<?xml version="1.0" encoding="UTF-8"?>
<svg id="uuid-8914fe7f-cdf8-49f9-a99c-47b1ec00871a" data-name="_x2018_ëîé_x5F_1" xmlns="http://www.w3.org/2000/svg" viewBox="0 0 93.86 124.6">
  <defs>
    <style>
      .uuid-85059c05-5c62-4302-b4fa-3d34d6085e9a {
        fill: #143351;
      }

      .uuid-b015878d-a841-422d-9c91-b9f80632239f {
        fill: #0a2033;
      }

      .uuid-adcfccc3-54b9-4594-b905-c3cd2fb0cac5 {
        fill: #295777;
      }
    </style>
  </defs>
  <path class="uuid-85059c05-5c62-4302-b4fa-3d34d6085e9a" d="M85.83,28.85c.22-8-2.35-12.49-7.64-13.35-3.65-.6-8.29-2.08-12.01-3.27-.73-.23-1.43-.46-2.1-.67-3.79-1.19-4.77-3.37-4.77-3.37,0,0,1.66,36.5-12.72,55.16C31.23,31.61,34.73,7.78,34.73,7.78c0,0-1.16,2.6-4.95,3.79-.67.21-1.37.43-2.1.67-3.72,1.19-8.36,2.67-12.01,3.27-5.29.86-7.86,5.36-7.64,13.35.14,4.91-3.55,77.8-3.55,77.8h10s6-39.37,6.09-50.69c.11,3.48.84,24.26.39,38.43-.31,9.78-.25,15.85-.02,21.3,6.11,2.62,22.34,2.43,22.34,2.43l3.66-3.63,3.66,3.63s16.23.19,22.34-2.43c.22-5.46.28-11.52-.02-21.3-.44-14.17.53-35.41.72-38.43.6,22.49,5.76,50.69,5.76,50.69h10s-3.69-72.89-3.55-77.8Z"/>
  <g>
    <path class="uuid-b015878d-a841-422d-9c91-b9f80632239f" d="M51.23,92.93c0,.63-.53,1.15-1.18,1.15s-1.18-.51-1.18-1.15.53-1.15,1.18-1.15,1.18.51,1.18,1.15Z"/>
    <path class="uuid-b015878d-a841-422d-9c91-b9f80632239f" d="M51.23,82.05c0,.63-.53,1.15-1.18,1.15s-1.18-.51-1.18-1.15.53-1.15,1.18-1.15,1.18.51,1.18,1.15Z"/>
    <path class="uuid-b015878d-a841-422d-9c91-b9f80632239f" d="M51.23,71.16c0,.63-.53,1.15-1.18,1.15s-1.18-.51-1.18-1.15.53-1.15,1.18-1.15,1.18.51,1.18,1.15Z"/>
    <path class="uuid-b015878d-a841-422d-9c91-b9f80632239f" d="M63.25,94.97c-.18,0-.34-.12-.38-.3-.01-.05-.27-1.15-.61-4.31-.01-.1.02-.21.09-.28.07-.08.16-.13.27-.14,2.6-.25,8.04-1.32,8.1-1.33.22-.04.42.09.47.3.04.21-.09.41-.31.46-.21.04-5.04,1-7.78,1.3.31,2.81.55,3.82.55,3.83.05.21-.08.41-.3.46-.03,0-.06,0-.09,0Z"/>
    <path class="uuid-b015878d-a841-422d-9c91-b9f80632239f" d="M29.95,94.97c.18,0,.34-.12.38-.3.01-.05.27-1.15.61-4.31.01-.1-.02-.21-.09-.28-.07-.08-.16-.13-.27-.14-2.6-.25-8.04-1.32-8.1-1.33-.22-.04-.42.09-.47.3-.04.21.09.41.31.46.21.04,5.04,1,7.78,1.3-.31,2.81-.55,3.82-.55,3.83-.05.21.08.41.3.46.03,0,.06,0,.09,0Z"/>
    <path class="uuid-b015878d-a841-422d-9c91-b9f80632239f" d="M68.22,47.86c-.22,0-.4-.17-.4-.39v-1.43s-.04-.09-.09-.09h-6.37c-.22,0-.4-.17-.4-.39s.18-.39.4-.39h6.37c.48,0,.88.39.88.86v1.43c0,.21-.18.39-.4.39Z"/>
    <path class="uuid-b015878d-a841-422d-9c91-b9f80632239f" d="M47.9,112.52c-.15,0-.29-.08-.36-.23-.87-1.81-.88-5.97-.88-6.15v-42.52c0-.22.18-.4.4-.4s.4.18.4.4v42.52s0,4.15.8,5.79c.1.2.02.44-.18.54-.06.03-.12.04-.17.04Z"/>
  </g>
  <g>
    <path class="uuid-adcfccc3-54b9-4594-b905-c3cd2fb0cac5" d="M29.35,28.8l3.32-1.16-3.32-1.56,1.75-14.92,4.2-4.69s-2.66,26.11,12.01,57.04c-.07.85-.49.39-.65.19-12.33-15.21-17.31-34.91-17.31-34.91Z"/>
    <path class="uuid-adcfccc3-54b9-4594-b905-c3cd2fb0cac5" d="M64.77,28.8l-3.32-1.16,3.32-1.56-1.75-14.92-4.58-4.47s3.03,25.89-11.64,56.82c-.54,1.16.49.39.65.19,12.33-15.21,17.31-34.91,17.31-34.91Z"/>
  </g>
</svg>