<?xml version="1.0" encoding="UTF-8"?>
<svg id="uuid-66f66338-2ff6-4fb0-8e47-770fc7b931c6" data-name="_x2018_ëîé_x5F_1" xmlns="http://www.w3.org/2000/svg" xmlns:xlink="http://www.w3.org/1999/xlink" viewBox="0 0 90.51 123.93">
  <defs>
    <style>
      .uuid-595fa0a7-a332-4e80-b867-f0f29a098ddf {
        fill: #d60b2d;
      }

      .uuid-a0e054b7-62be-48ac-846d-8e59ec7c999e {
        fill: #266d01;
      }

      .uuid-1b57f1cf-bbff-40a8-9a50-c27c158ea8ca {
        fill: #277f00;
      }

      .uuid-0ef77967-2694-4aa5-b91e-93d54079c114 {
        clip-path: url(#uuid-8730191c-a713-4bf9-b894-87df9ebc1ddb);
      }

      .uuid-95f5687e-0b0a-4429-a0a5-9c08f2f17c76 {
        fill: #353535;
      }

      .uuid-1df5ee59-7778-40d5-bec5-a3c910bb8914 {
        fill: #bf062e;
      }

      .uuid-846840d9-d467-4cad-bc32-149c644c18e4 {
        clip-path: url(#uuid-ea3ba0d2-a531-4133-9ae2-4584f5fd4967);
      }
    </style>
    <clipPath id="uuid-8730191c-a713-4bf9-b894-87df9ebc1ddb">
      <path class="uuid-595fa0a7-a332-4e80-b867-f0f29a098ddf" d="M55.1-57.48c-.07-2.89-1.47-50.37-2.14-70.35-.2-5.87-1.66-7.69-1.6-8.9.17-3.33-3.53-2.44-3.05.45.17,1.04-2.04,3.81-2.41,8.49-1.56,19.9-1.84,67.42-1.91,70.31-.01.52,5.53,7.1,5.53,7.1,0,0,5.59-6.57,5.58-7.1Z"/>
    </clipPath>
    <clipPath id="uuid-ea3ba0d2-a531-4133-9ae2-4584f5fd4967">
      <path class="uuid-1b57f1cf-bbff-40a8-9a50-c27c158ea8ca" d="M215.55-65.09c-.64-.2-6.45-2.32-7.46-3.01-1.01,11.72.02,36.24-14,53.53-14.38-21.23-13.28-45.81-13.32-53.54-1.02.69-6.87,2.82-7.53,3.03-1.72.54-5.35,38.44-5.35,38.44,0,0,1,28.92.56,43.09,3.52,4.23,19.31,10.24,19.31,10.24l6.66-7.41,6.66,7.41s12.66-2.41,19.31-10.24c-.44-14.17.56-43.09.56-43.09,0,0-3.73-37.93-5.4-38.46Z"/>
    </clipPath>
  </defs>
  <g>
    <path class="uuid-595fa0a7-a332-4e80-b867-f0f29a098ddf" d="M55.1-57.48c-.07-2.89-1.47-50.37-2.14-70.35-.2-5.87-1.66-7.69-1.6-8.9.17-3.33-3.53-2.44-3.05.45.17,1.04-2.04,3.81-2.41,8.49-1.56,19.9-1.84,67.42-1.91,70.31-.01.52,5.53,7.1,5.53,7.1,0,0,5.59-6.57,5.58-7.1Z"/>
    <g class="uuid-0ef77967-2694-4aa5-b91e-93d54079c114">
      <g>
        <rect class="uuid-1df5ee59-7778-40d5-bec5-a3c910bb8914" x="17.09" y="-45.16" width="128.09" height=".97" transform="translate(55.35 44.29) rotate(-45)"/>
        <rect class="uuid-1df5ee59-7778-40d5-bec5-a3c910bb8914" x="19.27" y="-42.98" width="128.09" height=".97" transform="translate(54.45 46.47) rotate(-45)"/>
        <rect class="uuid-1df5ee59-7778-40d5-bec5-a3c910bb8914" x="21.45" y="-40.8" width="128.09" height=".97" transform="translate(53.55 48.64) rotate(-45)"/>
      </g>
    </g>
  </g>
  <g>
    <path class="uuid-1b57f1cf-bbff-40a8-9a50-c27c158ea8ca" d="M215.55-65.09c-.64-.2-6.45-2.32-7.46-3.01-1.01,11.72.02,36.24-14,53.53-14.38-21.23-13.28-45.81-13.32-53.54-1.02.69-6.87,2.82-7.53,3.03-1.72.54-5.35,38.44-5.35,38.44,0,0,1,28.92.56,43.09,3.52,4.23,19.31,10.24,19.31,10.24l6.66-7.41,6.66,7.41s12.66-2.41,19.31-10.24c-.44-14.17.56-43.09.56-43.09,0,0-3.73-37.93-5.4-38.46Z"/>
    <g class="uuid-846840d9-d467-4cad-bc32-149c644c18e4">
      <g>
        <rect class="uuid-a0e054b7-62be-48ac-846d-8e59ec7c999e" x="150.65" y="-48.16" width="1.33" height="176.61" transform="translate(15.94 118.77) rotate(-45.01)"/>
        <rect class="uuid-a0e054b7-62be-48ac-846d-8e59ec7c999e" x="147.65" y="-45.16" width="1.33" height="176.61" transform="translate(12.93 117.51) rotate(-45)"/>
        <rect class="uuid-a0e054b7-62be-48ac-846d-8e59ec7c999e" x="144.65" y="-42.15" width="1.33" height="176.61" transform="translate(9.93 116.28) rotate(-45)"/>
      </g>
    </g>
  </g>
  <g>
    <path d="M84.15,28.52c.22-8-2.35-12.49-7.64-13.35-3.65-.6-8.29-2.08-12.01-3.27-.73-.23-1.43-.46-2.1-.67-3.79-1.19-4.77-3.37-4.77-3.37,0,0,1.66,36.5-12.72,55.16C29.55,31.28,33.05,7.45,33.05,7.45c0,0-1.16,2.6-4.95,3.79-.67.21-1.37.43-2.1.67-3.72,1.19-8.36,2.67-12.01,3.27-5.29.86-7.86,5.36-7.64,13.35.14,4.91-3.55,77.8-3.55,77.8h10s6-39.37,6.09-50.69c.11,3.48.84,24.26.39,38.43-.31,9.78-.25,15.85-.02,21.3,6.11,2.62,22.34,2.43,22.34,2.43l3.66-3.63,3.66,3.63s16.23.19,22.34-2.43c.22-5.46.28-11.52-.02-21.3-.44-14.17.53-35.42.72-38.43.6,22.49,5.76,50.69,5.76,50.69h10s-3.69-72.89-3.55-77.8Z"/>
    <g>
      <path class="uuid-95f5687e-0b0a-4429-a0a5-9c08f2f17c76" d="M49.55,92.6c0,.63-.53,1.15-1.18,1.15s-1.18-.51-1.18-1.15.53-1.15,1.18-1.15,1.18.51,1.18,1.15Z"/>
      <path class="uuid-95f5687e-0b0a-4429-a0a5-9c08f2f17c76" d="M49.55,81.71c0,.63-.53,1.15-1.18,1.15s-1.18-.51-1.18-1.15.53-1.15,1.18-1.15,1.18.51,1.18,1.15Z"/>
      <path class="uuid-95f5687e-0b0a-4429-a0a5-9c08f2f17c76" d="M49.55,70.83c0,.63-.53,1.15-1.18,1.15s-1.18-.51-1.18-1.15.53-1.15,1.18-1.15,1.18.51,1.18,1.15Z"/>
      <path class="uuid-95f5687e-0b0a-4429-a0a5-9c08f2f17c76" d="M61.58,94.64c-.18,0-.34-.12-.38-.3-.01-.05-.27-1.15-.61-4.31-.01-.1.02-.2.09-.28.07-.08.16-.13.27-.14,2.6-.25,8.04-1.32,8.1-1.33.22-.04.42.09.47.3.04.21-.09.41-.31.46-.21.04-5.04,1-7.78,1.3.31,2.81.55,3.82.55,3.83.05.21-.08.41-.3.46-.03,0-.06,0-.09,0Z"/>
      <path class="uuid-95f5687e-0b0a-4429-a0a5-9c08f2f17c76" d="M28.27,94.64c.18,0,.34-.12.38-.3.01-.05.27-1.15.61-4.31.01-.1-.02-.2-.09-.28-.07-.08-.16-.13-.27-.14-2.6-.25-8.04-1.32-8.1-1.33-.22-.04-.42.09-.47.3-.04.21.09.41.31.46.21.04,5.04,1,7.78,1.3-.31,2.81-.55,3.82-.55,3.83-.05.21.08.41.3.46.03,0,.06,0,.09,0Z"/>
      <path class="uuid-95f5687e-0b0a-4429-a0a5-9c08f2f17c76" d="M66.54,47.53c-.22,0-.4-.17-.4-.39v-1.43s-.04-.09-.09-.09h-6.37c-.22,0-.4-.17-.4-.39s.18-.39.4-.39h6.37c.48,0,.88.39.88.86v1.43c0,.21-.18.39-.4.39Z"/>
      <path class="uuid-95f5687e-0b0a-4429-a0a5-9c08f2f17c76" d="M46.22,112.19c-.15,0-.29-.08-.36-.23-.87-1.81-.88-5.97-.88-6.15v-42.52c0-.22.18-.4.4-.4s.4.18.4.4v42.52s0,4.15.8,5.79c.1.2.02.44-.18.54-.06.03-.12.04-.17.04Z"/>
    </g>
    <g>
      <path class="uuid-95f5687e-0b0a-4429-a0a5-9c08f2f17c76" d="M29.27,29.18c-1.18-7.6.16-18.35.16-18.35l4.2-4.69s-2.66,26.11,12.01,57.04c-.07.85-.49.39-.65.19-12.33-15.21-14.66-27.33-15.72-34.19Z"/>
      <path class="uuid-95f5687e-0b0a-4429-a0a5-9c08f2f17c76" d="M61.62,28.38c1.46-7.24-.27-17.55-.27-17.55l-4.58-4.47s3.03,25.89-11.64,56.82c-.54,1.16.49.39.65.19,12.33-15.21,14.38-27.75,15.84-34.99Z"/>
    </g>
  </g>
</svg>