<?xml version="1.0" encoding="UTF-8"?>
<svg id="uuid-a8d0bce8-5744-4ac8-bdf8-639613740a9b" data-name="_x2018_ëîé_x5F_1" xmlns="http://www.w3.org/2000/svg" viewBox="0 0 108.9 374.19">
  <defs>
    <style>
      .uuid-d4f99c2c-a5b9-4fbb-aef8-28aaefce53dc {
        fill: #9cc5d6;
      }

      .uuid-5e3a360b-277c-45d2-892d-f07a02bade2d {
        fill: #f9954b;
      }

      .uuid-4eb2642c-3c59-440f-815e-f7b5c56bdd03 {
        fill: #7c4a28;
      }

      .uuid-7f1c8499-9ddb-48aa-842b-cac71fbec938 {
        fill: #fff;
      }

      .uuid-0baa7496-9558-48b2-aed0-eb7f5ed645cd {
        fill: #ffbc8a;
      }

      .uuid-07e148d9-cffa-4e30-86ad-e34bc74e176b {
        fill: #f15a29;
      }

      .uuid-4819679d-6fe8-4210-a399-11bdc30475ec {
        fill: #ffb176;
      }

      .uuid-bd941049-44bd-4030-9382-1140e34a0f51 {
        fill: #9b623b;
      }

      .uuid-ac95b614-6064-4903-80a8-aea47142645b {
        fill: #6b452b;
      }
    </style>
  </defs>
  <ellipse class="uuid-d4f99c2c-a5b9-4fbb-aef8-28aaefce53dc" cx="54.45" cy="351.96" rx="42" ry="8.19"/>
  <g>
    <g>
      <path class="uuid-5e3a360b-277c-45d2-892d-f07a02bade2d" d="M92.05,210.03c1.25.26,1.38,4.17,1,4.87-.68,1.28-1.12,1.98-.59,2.5.59.59,1.78-1.78,1.78-1.78,0,0,1.37-5.3.45-6.63-1.72-2.48-3.73.8-2.63,1.03Z"/>
      <path class="uuid-5e3a360b-277c-45d2-892d-f07a02bade2d" d="M93.17,209.53c.49,1.6,1.75,4.85-.12,8.47-.73,1.41-.82,1.91-.14,2.37.71.48,2.23-2.5,2.23-2.5,0,0,.74-7.05.15-9.1-.59-2.05-2.54-.58-2.13.77Z"/>
      <path class="uuid-5e3a360b-277c-45d2-892d-f07a02bade2d" d="M93.93,208.75c.7,1.83,1.95,3.28.66,9.61-.57,2.81-.82,4.01.59,3.92.56-.03,1.61-4.87,1.61-4.87,0,0,.42-7.39-.43-9.74-.85-2.35-3.02-.48-2.43,1.07Z"/>
      <path class="uuid-5e3a360b-277c-45d2-892d-f07a02bade2d" d="M16.85,210.03c-1.25.26-1.38,4.17-1,4.87.68,1.28,1.12,1.98.59,2.5-.59.59-1.78-1.78-1.78-1.78,0,0-1.37-5.3-.45-6.63,1.72-2.48,3.73.8,2.63,1.03Z"/>
      <path class="uuid-5e3a360b-277c-45d2-892d-f07a02bade2d" d="M15.73,209.53c-.49,1.6-1.75,4.85.12,8.47.73,1.41.82,1.91.14,2.37-.71.48-2.23-2.5-2.23-2.5,0,0-.74-7.05-.15-9.1.59-2.05,2.54-.58,2.13.77Z"/>
      <path class="uuid-5e3a360b-277c-45d2-892d-f07a02bade2d" d="M14.96,208.75c-.7,1.83-1.95,3.28-.66,9.61.57,2.81.82,4.01-.59,3.92-.56-.03-1.61-4.87-1.61-4.87,0,0-.42-7.39.43-9.74.85-2.35,3.02-.48,2.43,1.07Z"/>
    </g>
    <path class="uuid-4819679d-6fe8-4210-a399-11bdc30475ec" d="M12.19,207.16c.94-2.62,1.43-4.95,1.71-6.72.63-15.03-.78-25.66.76-38.32.8-6.55,1.33-31.87,1.2-36.66-.16-5.63.93-11.99,7.39-13.05,4.37-.71,9.98-2.64,14.15-3.94,6.86-2.15,7.39-4.36,7.91-9.38.74-7.18.52-12.18.52-12.18h17.25s-.22,5,.52,12.18c.52,5.01,1.06,7.22,7.91,9.38,4.16,1.31,9.77,3.23,14.15,3.94,6.46,1.05,7.55,7.41,7.39,13.05-.13,4.8.4,30.11,1.2,36.66,1.54,12.66.13,23.29.76,38.32.28,1.77.77,4.1,1.71,6.72.84,2.35,1.22,6.24,1.25,7.77.04,2.15-1.18,6.41-1.77,6.3-1.96-.36-.14-3.05-.55-6.55-.39-3.3-3.6-6.65-3.64-5.06-.05,1.91.82,5.69-.83,6.1-.71.17-.92-.63-1.05-1.7-.4-3.13-1.72-5.04-1.94-7.45-.16-1.74.18-3.28.32-4.28.2-1.43-.13-3.32-.51-4.89-3.2-13.06-4.13-23.55-4.85-29.42-.66-5.45-2.1-21.57-2.09-29.93-.13,3.87-.35,7.94-1.06,15.39-.57,6.03-.31,23.34.13,37.57.43,13.69.13,19.92-.27,27.11-1.18,21.21-3.03,30.84-4.16,43.43-.59,6.54-.59,15.27-.11,24.9.66,13.12-2.14,21.84-2.77,30.83-1.29,18.4-1.29,20.24-.52,24.31.36,1.9.48,2.72.92,5.37.4,2.38-.16,4.74-1.53,5.22-3.3,1.15-3.99,1-5.37.73-.98-.19-1.1-.69-1.49-.7-.13,0-.11.21-.28.58-.42.94-3.26.79-3.53-.3-.38-1.53-.21-3.09,0-4.37.38-2.38.61-5.6,1.3-7.6.92-2.66.8-12.96.26-20.72-.89-12.7-3.54-19.53-3.37-33.26.07-5.79-.56-21.14-.86-23.12-2.04-13.47-3.7-55.39-3.88-55.39s-1.88,41.92-3.91,55.39c-.3,1.98-.93,17.33-.86,23.12.16,13.73-2.48,20.56-3.37,33.26-.54,7.76-.66,18.07.26,20.72.69,2,.92,5.22,1.3,7.6.21,1.28.38,2.84,0,4.37-.27,1.09-3.11,1.23-3.53.3-.16-.37-.14-.58-.28-.58-.39.01-.51.51-1.49.7-1.38.27-2.07.42-5.37-.73-1.37-.48-1.93-2.84-1.53-5.22.44-2.65.56-3.47.92-5.37.77-4.07.77-5.91-.52-24.31-.63-8.99-3.42-17.71-2.77-30.83.48-9.63.48-18.36-.11-24.9-1.14-12.6-2.99-22.22-4.16-43.43-.4-7.19-.7-13.42-.27-27.11.45-14.24.71-31.54.13-37.57-.71-7.46-.93-11.53-1.06-15.39,0,8.36-1.42,24.49-2.09,29.93-.71,5.87-1.65,16.37-4.85,29.42-.38,1.57-.71,3.46-.51,4.89.14,1,.48,2.54.32,4.28-.23,2.41-1.55,4.33-1.94,7.45-.13,1.06-.34,1.87-1.05,1.7-1.65-.41-.78-4.18-.83-6.1-.05-1.59-3.26,1.77-3.64,5.06-.41,3.5,1.41,6.19-.55,6.55-.59.11-1.81-4.15-1.77-6.3.03-1.54.41-5.42,1.25-7.77Z"/>
    <path class="uuid-5e3a360b-277c-45d2-892d-f07a02bade2d" d="M45.3,99.09l.52-12.18h17.25s-.22,5,.52,12.18c.34,3.27.7,5.35,2.8,6.99-7.66-4.05-9.82-2.04-13.76-2.89-6.04-1.3-7.33-4.1-7.33-4.1Z"/>
    <g>
      <path class="uuid-4819679d-6fe8-4210-a399-11bdc30475ec" d="M76.44,64.93c-1.26,5.01.64,9.81,4.25,10.71,3.6.9,7.55-2.42,8.8-7.44,1.26-5.01-.64-9.81-4.25-10.71-3.6-.9-7.55,2.43-8.8,7.44Z"/>
      <path class="uuid-5e3a360b-277c-45d2-892d-f07a02bade2d" d="M78.37,64.88c-.84,3.35.43,6.56,2.84,7.16,2.41.6,5.04-1.62,5.89-4.97.84-3.35-.43-6.56-2.84-7.16-2.41-.6-5.04,1.62-5.89,4.97Z"/>
      <path class="uuid-4819679d-6fe8-4210-a399-11bdc30475ec" d="M32.45,64.93c1.26,5.01-.64,9.81-4.25,10.71-3.6.9-7.55-2.42-8.8-7.44-1.26-5.01.64-9.81,4.25-10.71,3.6-.9,7.55,2.43,8.8,7.44Z"/>
      <path class="uuid-5e3a360b-277c-45d2-892d-f07a02bade2d" d="M30.53,64.88c.84,3.35-.43,6.56-2.84,7.16-2.41.6-5.04-1.62-5.89-4.97-.84-3.35.43-6.56,2.84-7.16,2.41-.6,5.04,1.62,5.89,4.97Z"/>
    </g>
    <path class="uuid-0baa7496-9558-48b2-aed0-eb7f5ed645cd" d="M54.45,15.11h0s0,0,0,0h0c17.18.04,31.42,14.81,29.65,34.42-1.23,13.65.46,16.77-3.22,28.03-2.07,6.34-2.5,10.74-9.08,14.84-1.57.98-8.77,6.52-10.4,7.39-2.57,1.37-4.65,1.13-6.95,1.13-2.3,0-4.38.24-6.95-1.13-1.63-.87-8.83-6.42-10.4-7.39-6.58-4.09-7.01-8.5-9.08-14.84-3.68-11.26-1.99-14.38-3.22-28.03-1.77-19.61,12.47-34.38,29.65-34.42Z"/>
    <path class="uuid-5e3a360b-277c-45d2-892d-f07a02bade2d" d="M49.41,72.14c.19-.13.45-.07.58.12.13.19.07.45-.12.58-.31.2-.61.4-.17,1.29.2.41.43.67.64.7.17.03.33-.11.43-.23.21-.23.54-.36.91-.36.39,0,.73.13.97.39.76,1,1.73.91,1.77.9.02,0,.03,0,.05,0,.02,0,.03,0,.05,0,.01,0,.99.12,1.8-.94.21-.23.55-.37.94-.35.37,0,.7.14.91.36.11.12.27.26.43.23.2-.03.43-.28.64-.7.44-.89.14-1.09-.17-1.29-.19-.13-.25-.39-.12-.58.13-.2.39-.25.58-.12.84.55.99,1.3.47,2.36-.42.87-.93,1.11-1.27,1.16-.41.06-.83-.12-1.18-.5-.04-.04-.14-.09-.29-.09-.16,0-.29.05-.29.06-.84,1.11-1.91,1.24-2.35,1.24-.06,0-.1,0-.14,0-.04,0-.08,0-.14,0-.44,0-1.49-.12-2.31-1.2-.03-.04-.12-.09-.32-.09-.15,0-.25.05-.29.09-.34.38-.76.56-1.18.5-.35-.05-.85-.29-1.27-1.16-.52-1.07-.37-1.82.47-2.36Z"/>
    <g>
      <path class="uuid-ac95b614-6064-4903-80a8-aea47142645b" d="M46.74,54.05c.13,0,.5-.29.6-.45.21-.33.23-.9.03-1.26-.17-.32-4.29-7.7-16.35-1.03-.27.15-.42.66-.34,1.13.09.47.33.62.6.45,9.66-5.76,15.03.8,15.06.87.1.19.24.29.39.29Z"/>
      <path class="uuid-ac95b614-6064-4903-80a8-aea47142645b" d="M63.11,54.05c-.13,0-.5-.29-.6-.45-.21-.33-.23-.9-.03-1.26.17-.32,4.29-7.7,16.35-1.03.27.15.42.66.34,1.13-.09.47-.33.62-.6.45-9.66-5.76-15.03.8-15.06.87-.1.19-.24.29-.39.29Z"/>
    </g>
    <g>
      <path class="uuid-ac95b614-6064-4903-80a8-aea47142645b" d="M46.32,60.2c-.12,3.07-3.13,5.37-6.55,5.15-3.42-.22-6-2.78-5.82-5.85.12-2.1,3.14-4.05,6.55-3.83,3.42.22,5.93,1.81,5.82,4.52Z"/>
      <path class="uuid-7f1c8499-9ddb-48aa-842b-cac71fbec938" d="M45.84,60.21c-.11,2.83-2.89,4.96-6.04,4.75-3.15-.21-5.53-2.56-5.37-5.39.11-1.93,2.89-3.74,6.04-3.53,3.15.21,5.47,1.67,5.37,4.17Z"/>
      <g>
        <path class="uuid-bd941049-44bd-4030-9382-1140e34a0f51" d="M44.04,60.39c-.36,1.91-2.2,3.16-4.1,2.8-1.91-.36-3.16-2.2-2.8-4.1.36-1.91,2.2-3.16,4.1-2.8,1.91.36,3.16,2.2,2.8,4.1Z"/>
        <path d="M42.45,60.09c-.2,1.03-1.19,1.7-2.22,1.51-1.03-.2-1.7-1.19-1.51-2.22.2-1.03,1.19-1.7,2.22-1.51,1.03.2,1.7,1.19,1.51,2.22Z"/>
        <path class="uuid-7f1c8499-9ddb-48aa-842b-cac71fbec938" d="M41.61,59.77c-.03.58-.49.9-.27,1.12.21.21.63-.17.77-.72.14-.55-.08-1.3-.37-1.26-.35.05-.09.21-.12.86Z"/>
      </g>
      <path class="uuid-ac95b614-6064-4903-80a8-aea47142645b" d="M74.96,60.2c-.12,3.07-3.13,5.37-6.55,5.15-3.42-.22-6-2.78-5.82-5.85.12-2.1,3.14-4.05,6.55-3.83,3.42.22,5.93,1.81,5.82,4.52Z"/>
      <path class="uuid-7f1c8499-9ddb-48aa-842b-cac71fbec938" d="M74.48,60.21c-.11,2.83-2.89,4.96-6.04,4.75-3.15-.21-5.53-2.56-5.37-5.39.11-1.93,2.89-3.74,6.04-3.53,3.15.21,5.47,1.67,5.37,4.17Z"/>
      <g>
        <path class="uuid-bd941049-44bd-4030-9382-1140e34a0f51" d="M64.87,60.39c.36,1.91,2.2,3.16,4.1,2.8,1.91-.36,3.16-2.2,2.8-4.1-.36-1.91-2.2-3.16-4.1-2.8-1.91.36-3.16,2.2-2.8,4.1Z"/>
        <path d="M66.45,60.09c.2,1.03,1.19,1.7,2.22,1.51,1.03-.2,1.7-1.19,1.51-2.22-.2-1.03-1.19-1.7-2.22-1.51-1.03.2-1.7,1.19-1.51,2.22Z"/>
        <path class="uuid-7f1c8499-9ddb-48aa-842b-cac71fbec938" d="M67.3,59.77c.03.58.49.9.27,1.12-.21.21-.63-.17-.77-.72-.14-.55.08-1.3.37-1.26.35.05.09.21.12.86Z"/>
      </g>
    </g>
    <g>
      <path class="uuid-07e148d9-cffa-4e30-86ad-e34bc74e176b" d="M41.65,80.86c.18-.28.58-.19.92-.04,1.07.47,6.57,1.76,11.91,1.77,5.45,0,10.74-1.28,11.85-1.77.33-.15.74-.24.92.04.18.28.06.48-.26.64-.66.31-5.74,6.91-12.44,6.91s-11.97-6.6-12.63-6.91c-.33-.15-.45-.36-.26-.64Z"/>
      <path class="uuid-7f1c8499-9ddb-48aa-842b-cac71fbec938" d="M62.19,83.22c-1.89,1.39-4.65,2.27-7.74,2.27s-5.85-.88-7.74-2.27c2.1.96,13.38.96,15.47,0Z"/>
    </g>
    <path class="uuid-7f1c8499-9ddb-48aa-842b-cac71fbec938" d="M28.78,191.01c11.7,1.67,39.54,1.76,51.34,0,.06,1.92.1,3.67.14,5.32-20.44,4.92-17.46,15.03-25.33,15.41-.07,0-.86,0-.93,0-7.83-.38-4.31-10.23-25.35-15.67.03-1.57.08-3.24.13-5.05Z"/>
    <path class="uuid-4eb2642c-3c59-440f-815e-f7b5c56bdd03" d="M40.13,17.58c17.62-8.7,32.78.92,34.84,4.88,7.77,2.64,11.32,16.92,10.44,26.59-.47,5.18-2.22,18.41-2.22,18.41h-.96s4.64-25.87-8.53-38.17c-4.99,7.32-14.21,9.72-22.92,11.44.83-.62,1.49-1.47,1.87-2.44-4.56,2.24-9.13,4.48-13.69,6.72.09-1.04.18-2.08.26-3.12-2.08,2.19-4.16,4.37-6.23,6.56-.01-1.25-.03-2.49-.05-3.74-2.78,1.71-5.18,3.6-6.84,6.14-.64,8.94.53,16.61.53,16.61h-1.21s-1.64-15.18-1.94-18.45c-.5-5.51-.99-22.74,16.63-31.44Z"/>
  </g>
</svg>