<?xml version="1.0" encoding="UTF-8"?>
<svg id="uuid-1845c986-f723-449f-8e18-b14558ba0732" data-name="_x2018_ëîé_x5F_1" xmlns="http://www.w3.org/2000/svg" xmlns:xlink="http://www.w3.org/1999/xlink" viewBox="0 0 99.46 119.44">
  <defs>
    <style>
      .uuid-714e941e-600a-49f8-9dc5-257adbafd18f {
        fill: #ea1840;
      }

      .uuid-74a45125-0860-4fcb-acc5-65b11feb2e02 {
        fill: #d60b2d;
      }

      .uuid-34edccdd-aef0-4f23-a38c-3b46499385b2 {
        fill: #277f00;
      }

      .uuid-2f2fa957-733e-4f2a-968e-a8d782cc4937 {
        fill: #ffdec0;
      }

      .uuid-297deb3a-df94-4304-a49d-ab6e3c4baed9 {
        clip-path: url(#uuid-8f9e87c1-4c89-4074-8e37-8bcc2b5e9d3d);
      }

      .uuid-5f1157e3-541b-4588-8b3e-6486d2f1a93e {
        fill: #efb88b;
      }

      .uuid-fd47dd2d-7f59-4156-bc92-dc241fb042a1 {
        fill: #bf062e;
      }
    </style>
    <clipPath id="uuid-8f9e87c1-4c89-4074-8e37-8bcc2b5e9d3d">
      <path class="uuid-74a45125-0860-4fcb-acc5-65b11feb2e02" d="M54.84,98.02c-.07-2.89-1.47-50.37-2.14-70.35-.2-5.87-1.66-7.69-1.6-8.9.17-3.33-3.53-2.44-3.05.45.17,1.04-2.04,3.81-2.41,8.49-1.56,19.9-1.84,67.42-1.91,70.31-.01.52,5.53,7.1,5.53,7.1,0,0,5.59-6.57,5.58-7.1Z"/>
    </clipPath>
    <clipPath id="uuid-e3f01824-80aa-40e3-bacb-78a0c02891ba">
      <path class="uuid-34edccdd-aef0-4f23-a38c-3b46499385b2" d="M215.3,90.41c-.64-.2-6.45-2.32-7.46-3.01-1.01,11.72.02,36.24-14,53.53-14.38-21.23-13.28-45.81-13.32-53.54-1.02.69-6.87,2.82-7.53,3.03-1.72.54-5.35,38.44-5.35,38.44,0,0,1,28.92.56,43.09,3.52,4.23,19.31,10.24,19.31,10.24l6.66-7.41,6.66,7.41s12.66-2.41,19.31-10.24c-.44-14.17.56-43.09.56-43.09,0,0-3.73-37.93-5.4-38.46Z"/>
    </clipPath>
  </defs>
  <g>
    <path class="uuid-2f2fa957-733e-4f2a-968e-a8d782cc4937" d="M7.86,112.45h8.4c.09-.51,4.83-31.32,5.54-37.2.66-5.45,1.3-20,1.29-28.37.13,3.87.38,5.41.78,13.38.3,5.97.49,26.8.07,40.8,0,0,7.28,12.09,25.77,12.09s25.79-12.09,25.79-12.09c-.42-14-.19-34.7.03-40.55.27-7.03.69-9.76.82-13.63,0,8.37.63,22.91,1.29,28.37.72,5.88,5.24,36.68,5.33,37.2h8.64c-.47-14.24-.56-30.83-2.05-43.06-.8-6.56-1.33-31.9-1.2-36.7.16-5.64-.93-12-7.4-13.06-4.38-.72-9.99-2.64-14.16-3.95-6.86-2.15-6.85-9.39-6.85-9.39,0,0-7.01,3.36-9.91,4.44-.33.49-.35,6.99-.35,6.99,0,0-.1-6.62-.35-6.99-3.01-1.34-9.75-4.44-9.75-4.44,0,0-.09,7.23-6.95,9.39-4.17,1.31-9.78,3.23-14.16,3.95-6.46,1.06-7.55,7.42-7.4,13.06.13,4.8-.4,30.15-1.2,36.7-1.49,12.24-1.55,28.83-2.02,43.06Z"/>
    <g>
      <path class="uuid-fd47dd2d-7f59-4156-bc92-dc241fb042a1" d="M49.03,14l-.93-1.75-.71,1.89s.1.4.82,1.03c.16-.93.82-1.17.82-1.17Z"/>
      <path class="uuid-fd47dd2d-7f59-4156-bc92-dc241fb042a1" d="M50.22,14l.74-1.75.72,1.18s.13.61-.3.84c-.16-.27-1.16-.27-1.16-.27Z"/>
      <g>
        <path class="uuid-74a45125-0860-4fcb-acc5-65b11feb2e02" d="M54.84,98.02c-.07-2.89-1.47-50.37-2.14-70.35-.2-5.87-1.66-7.69-1.6-8.9.17-3.33-3.53-2.44-3.05.45.17,1.04-2.04,3.81-2.41,8.49-1.56,19.9-1.84,67.42-1.91,70.31-.01.52,5.53,7.1,5.53,7.1,0,0,5.59-6.57,5.58-7.1Z"/>
        <g class="uuid-297deb3a-df94-4304-a49d-ab6e3c4baed9">
          <g>
            <rect class="uuid-fd47dd2d-7f59-4156-bc92-dc241fb042a1" x="-70.25" y="23.26" width="128.09" height=".97" transform="translate(-18.6 2.57) rotate(-45)"/>
            <rect class="uuid-fd47dd2d-7f59-4156-bc92-dc241fb042a1" x="-68.07" y="25.43" width="128.09" height=".97" transform="translate(-19.51 4.74) rotate(-45)"/>
            <rect class="uuid-fd47dd2d-7f59-4156-bc92-dc241fb042a1" x="-65.9" y="27.61" width="128.09" height=".97" transform="translate(-20.41 6.92) rotate(-45)"/>
            <rect class="uuid-fd47dd2d-7f59-4156-bc92-dc241fb042a1" x="-63.72" y="29.79" width="128.09" height=".97" transform="translate(-21.31 9.1) rotate(-45)"/>
            <rect class="uuid-fd47dd2d-7f59-4156-bc92-dc241fb042a1" x="-61.54" y="31.97" width="128.09" height=".97" transform="translate(-22.21 11.28) rotate(-45)"/>
            <rect class="uuid-fd47dd2d-7f59-4156-bc92-dc241fb042a1" x="-59.36" y="34.14" width="128.09" height=".97" transform="translate(-23.12 13.46) rotate(-45.01)"/>
            <rect class="uuid-fd47dd2d-7f59-4156-bc92-dc241fb042a1" x="-57.19" y="36.32" width="128.09" height=".97" transform="translate(-24.01 15.63) rotate(-45)"/>
            <rect class="uuid-fd47dd2d-7f59-4156-bc92-dc241fb042a1" x="-55.01" y="38.5" width="128.09" height=".97" transform="translate(-24.92 17.8) rotate(-45)"/>
            <rect class="uuid-fd47dd2d-7f59-4156-bc92-dc241fb042a1" x="-52.83" y="40.67" width="128.09" height=".97" transform="translate(-25.82 19.98) rotate(-45)"/>
            <rect class="uuid-fd47dd2d-7f59-4156-bc92-dc241fb042a1" x="-50.66" y="42.85" width="128.09" height=".97" transform="translate(-26.72 22.16) rotate(-45)"/>
            <rect class="uuid-fd47dd2d-7f59-4156-bc92-dc241fb042a1" x="-48.48" y="45.03" width="128.09" height=".97" transform="translate(-27.62 24.33) rotate(-45)"/>
            <rect class="uuid-fd47dd2d-7f59-4156-bc92-dc241fb042a1" x="-46.3" y="47.21" width="128.09" height=".97" transform="translate(-28.52 26.51) rotate(-45)"/>
            <rect class="uuid-fd47dd2d-7f59-4156-bc92-dc241fb042a1" x="-44.12" y="49.38" width="128.09" height=".97" transform="translate(-29.43 28.7) rotate(-45)"/>
            <rect class="uuid-fd47dd2d-7f59-4156-bc92-dc241fb042a1" x="-41.95" y="51.56" width="128.09" height=".97" transform="translate(-30.33 30.87) rotate(-45)"/>
            <rect class="uuid-fd47dd2d-7f59-4156-bc92-dc241fb042a1" x="-39.77" y="53.74" width="128.09" height=".97" transform="translate(-31.23 33.05) rotate(-45)"/>
            <rect class="uuid-fd47dd2d-7f59-4156-bc92-dc241fb042a1" x="-37.59" y="55.91" width="128.09" height=".97" transform="translate(-32.13 35.22) rotate(-45)"/>
            <rect class="uuid-fd47dd2d-7f59-4156-bc92-dc241fb042a1" x="-35.42" y="58.09" width="128.09" height=".97" transform="translate(-33.03 37.4) rotate(-45)"/>
            <rect class="uuid-fd47dd2d-7f59-4156-bc92-dc241fb042a1" x="-33.24" y="60.27" width="128.09" height=".97" transform="translate(-33.94 39.58) rotate(-45)"/>
            <rect class="uuid-fd47dd2d-7f59-4156-bc92-dc241fb042a1" x="-31.06" y="62.45" width="128.09" height=".97" transform="translate(-34.84 41.76) rotate(-45)"/>
            <rect class="uuid-fd47dd2d-7f59-4156-bc92-dc241fb042a1" x="-28.88" y="64.62" width="128.09" height=".97" transform="translate(-35.74 43.94) rotate(-45)"/>
            <rect class="uuid-fd47dd2d-7f59-4156-bc92-dc241fb042a1" x="-26.71" y="66.8" width="128.09" height=".97" transform="translate(-36.64 46.11) rotate(-45)"/>
            <rect class="uuid-fd47dd2d-7f59-4156-bc92-dc241fb042a1" x="-24.53" y="68.98" width="128.09" height=".97" transform="translate(-37.54 48.29) rotate(-45)"/>
            <rect class="uuid-fd47dd2d-7f59-4156-bc92-dc241fb042a1" x="-22.35" y="71.15" width="128.09" height=".97" transform="translate(-38.44 50.46) rotate(-45)"/>
            <rect class="uuid-fd47dd2d-7f59-4156-bc92-dc241fb042a1" x="-20.18" y="73.33" width="128.09" height=".97" transform="translate(-39.34 52.63) rotate(-45)"/>
            <rect class="uuid-fd47dd2d-7f59-4156-bc92-dc241fb042a1" x="-18" y="75.51" width="128.09" height=".97" transform="translate(-40.25 54.81) rotate(-45)"/>
            <rect class="uuid-fd47dd2d-7f59-4156-bc92-dc241fb042a1" x="-15.82" y="77.69" width="128.09" height=".97" transform="translate(-41.15 56.99) rotate(-45)"/>
            <rect class="uuid-fd47dd2d-7f59-4156-bc92-dc241fb042a1" x="-13.64" y="79.86" width="128.09" height=".97" transform="translate(-42.05 59.17) rotate(-45)"/>
            <rect class="uuid-fd47dd2d-7f59-4156-bc92-dc241fb042a1" x="-11.47" y="82.04" width="128.09" height=".97" transform="translate(-42.95 61.35) rotate(-45)"/>
            <rect class="uuid-fd47dd2d-7f59-4156-bc92-dc241fb042a1" x="-9.29" y="84.22" width="128.09" height=".97" transform="translate(-43.86 63.53) rotate(-45)"/>
            <rect class="uuid-fd47dd2d-7f59-4156-bc92-dc241fb042a1" x="-7.11" y="86.39" width="128.09" height=".97" transform="translate(-44.76 65.7) rotate(-45)"/>
            <rect class="uuid-fd47dd2d-7f59-4156-bc92-dc241fb042a1" x="-4.93" y="88.57" width="128.09" height=".97" transform="translate(-45.66 67.88) rotate(-45)"/>
            <rect class="uuid-fd47dd2d-7f59-4156-bc92-dc241fb042a1" x="-2.76" y="90.75" width="128.09" height=".97" transform="translate(-46.56 70.06) rotate(-45)"/>
            <rect class="uuid-fd47dd2d-7f59-4156-bc92-dc241fb042a1" x="-.58" y="92.93" width="128.09" height=".97" transform="translate(-47.46 72.24) rotate(-45)"/>
            <rect class="uuid-fd47dd2d-7f59-4156-bc92-dc241fb042a1" x="1.6" y="95.1" width="128.09" height=".97" transform="translate(-48.37 74.42) rotate(-45)"/>
            <rect class="uuid-fd47dd2d-7f59-4156-bc92-dc241fb042a1" x="3.77" y="97.28" width="128.09" height=".97" transform="translate(-49.27 76.6) rotate(-45)"/>
            <rect class="uuid-fd47dd2d-7f59-4156-bc92-dc241fb042a1" x="5.95" y="99.46" width="128.09" height=".97" transform="translate(-50.17 78.78) rotate(-45)"/>
            <rect class="uuid-fd47dd2d-7f59-4156-bc92-dc241fb042a1" x="8.13" y="101.63" width="128.09" height=".97" transform="translate(-51.07 80.94) rotate(-45)"/>
            <rect class="uuid-fd47dd2d-7f59-4156-bc92-dc241fb042a1" x="10.31" y="103.81" width="128.09" height=".97" transform="translate(-51.97 83.11) rotate(-45)"/>
            <rect class="uuid-fd47dd2d-7f59-4156-bc92-dc241fb042a1" x="12.48" y="105.99" width="128.09" height=".97" transform="translate(-52.87 85.29) rotate(-45)"/>
            <rect class="uuid-fd47dd2d-7f59-4156-bc92-dc241fb042a1" x="14.66" y="108.17" width="128.09" height=".97" transform="translate(-53.77 87.47) rotate(-45)"/>
            <rect class="uuid-fd47dd2d-7f59-4156-bc92-dc241fb042a1" x="16.84" y="110.34" width="128.09" height=".97" transform="translate(-54.68 89.64) rotate(-45)"/>
            <rect class="uuid-fd47dd2d-7f59-4156-bc92-dc241fb042a1" x="19.01" y="112.52" width="128.09" height=".97" transform="translate(-55.58 91.83) rotate(-45)"/>
            <rect class="uuid-fd47dd2d-7f59-4156-bc92-dc241fb042a1" x="21.19" y="114.7" width="128.09" height=".97" transform="translate(-56.48 94.01) rotate(-45)"/>
          </g>
        </g>
      </g>
      <path class="uuid-714e941e-600a-49f8-9dc5-257adbafd18f" d="M52.03,13.95c-.08-.74-1.14-.5-2.53-.5s-2.14-.19-2.22.55c-.08.74-.6,1.7-.56,2.15.02.26.38,3.91,1.11,3.67,1.67-.56,3.58-.26,3.72-.51.35-.62,1.02-2.74,1.08-3,.11-.49-.51-1.62-.59-2.36Z"/>
    </g>
    <g>
      <path class="uuid-5f1157e3-541b-4588-8b3e-6486d2f1a93e" d="M53.53,19.53c-.06,0-.12-.01-.17-.04-.1-.05-.18-.14-.21-.25-.83-2.91-2.24-7.23-2.81-7.73-.17-.15-.18-.4-.03-.57.15-.16.4-.18.57-.03.86.76,2.37,5.78,2.91,7.64.88-.52,3.17-2.1,6.76-6.17.15-.17.4-.18.56-.04.17.15.18.4.04.56-4.81,5.46-7.35,6.55-7.46,6.6-.05.02-.1.03-.15.03Z"/>
      <path class="uuid-5f1157e3-541b-4588-8b3e-6486d2f1a93e" d="M45.8,19.53c-.05,0-.1-.01-.15-.03-.11-.04-2.64-1.14-7.46-6.6-.15-.17-.13-.42.04-.56.17-.15.42-.13.56.04,3.59,4.07,5.88,5.65,6.76,6.17.54-1.85,2.06-6.88,2.91-7.64.17-.15.42-.13.57.03.15.17.13.42-.03.57-.57.5-1.98,4.82-2.81,7.73-.03.11-.11.2-.21.25-.05.03-.11.04-.17.04Z"/>
      <path class="uuid-5f1157e3-541b-4588-8b3e-6486d2f1a93e" d="M13.32,101.69c-1.21,0-2.6-.08-3.88-.32-.22-.04-.36-.25-.32-.47.04-.22.25-.36.47-.32,3.1.6,6.98.13,7.02.13.22-.03.42.13.45.35.03.22-.13.42-.35.45-.1.01-1.55.19-3.4.19Z"/>
      <path class="uuid-5f1157e3-541b-4588-8b3e-6486d2f1a93e" d="M86.14,101.69c-1.84,0-3.3-.17-3.4-.19-.22-.03-.37-.23-.35-.45.03-.22.23-.37.45-.35.04,0,3.93.47,7.02-.13.22-.04.43.1.47.32.04.22-.1.43-.32.47-1.28.25-2.66.32-3.88.32Z"/>
    </g>
  </g>
  <path class="uuid-34edccdd-aef0-4f23-a38c-3b46499385b2" d="M215.3,90.41c-.64-.2-6.45-2.32-7.46-3.01-1.01,11.72.02,36.24-14,53.53-14.38-21.23-13.28-45.81-13.32-53.54-1.02.69-6.87,2.82-7.53,3.03-1.72.54-5.35,38.44-5.35,38.44,0,0,1,28.92.56,43.09,3.52,4.23,19.31,10.24,19.31,10.24l6.66-7.41,6.66,7.41s12.66-2.41,19.31-10.24c-.44-14.17.56-43.09.56-43.09,0,0-3.73-37.93-5.4-38.46Z"/>
</svg>