<?xml version="1.0" encoding="UTF-8"?>
<svg id="uuid-447620bc-445b-4f5a-b909-decaf428581b" data-name="_x2018_ëîé_x5F_1" xmlns="http://www.w3.org/2000/svg" xmlns:xlink="http://www.w3.org/1999/xlink" viewBox="0 0 92.41 123.97">
  <defs>
    <style>
      .uuid-eb04699c-e85d-4538-9bcf-8128ff6cfd57 {
        fill: #83bde5;
      }

      .uuid-0ca9ad2b-76c4-4245-bc92-9d4eae450d3c {
        fill: #cfe9ff;
      }

      .uuid-2231527b-04c9-4dbf-a58b-7d953be85536 {
        fill: #353535;
      }

      .uuid-62210e77-ce80-42ac-b350-b7211444e29e {
        clip-path: url(#uuid-8611d5aa-0c4a-41cb-958e-7b96355de830);
      }
    </style>
    <clipPath id="uuid-8611d5aa-0c4a-41cb-958e-7b96355de830">
      <path class="uuid-2231527b-04c9-4dbf-a58b-7d953be85536" d="M51.25,100.28c-.07-2.89-1.47-50.37-2.14-70.35-.2-5.87-1.66-7.69-1.6-8.9.17-3.33-3.53-2.44-3.05.45.17,1.04-2.04,3.81-2.41,8.49-1.56,19.9-1.84,67.42-1.91,70.31-.01.52,5.53,7.1,5.53,7.1,0,0,5.59-6.57,5.58-7.1Z"/>
    </clipPath>
  </defs>
  <path class="uuid-0ca9ad2b-76c4-4245-bc92-9d4eae450d3c" d="M19.69,53.41c.14,2.01.32,4.47.55,9.12.3,5.97.26,26.85-.17,40.85,0,0,7.51,12.05,26,12.05s26.03-12.25,26.03-12.25c-.42-14-.43-34.54-.21-40.39.27-7.03.69-9.76.82-13.63,0,1.28.04,4.25.04,4.25l12.81-3.09s-.89-13.4-.83-15.36c.16-5.64-.93-12-7.4-13.06-4.38-.72-9.99-2.64-14.16-3.95-6.86-2.15-6.85-9.39-6.85-9.39,0,0-7.01,3.36-9.91,4.44-.33.49-.35,6.99-.35,6.99,0,0-.1-6.62-.35-6.99-3.01-1.34-9.75-4.44-9.75-4.44,0,0-.09,7.23-6.95,9.39-4.17,1.31-9.78,3.23-14.16,3.95-5.21.85-6.93,5.14-7.32,9.73-.09,1.11-.68,18.7-.68,18.7,0,0,6.25,2.52,12.84,3.1Z"/>
  <g>
    <path class="uuid-2231527b-04c9-4dbf-a58b-7d953be85536" d="M45.43,16.26l-.93-1.75-.71,1.89s.1.4.82,1.03c.16-.93.82-1.17.82-1.17Z"/>
    <path class="uuid-2231527b-04c9-4dbf-a58b-7d953be85536" d="M46.63,16.26l.74-1.75.72,1.18s.13.61-.3.84c-.16-.27-1.16-.27-1.16-.27Z"/>
    <g>
      <path class="uuid-2231527b-04c9-4dbf-a58b-7d953be85536" d="M51.25,100.28c-.07-2.89-1.47-50.37-2.14-70.35-.2-5.87-1.66-7.69-1.6-8.9.17-3.33-3.53-2.44-3.05.45.17,1.04-2.04,3.81-2.41,8.49-1.56,19.9-1.84,67.42-1.91,70.31-.01.52,5.53,7.1,5.53,7.1,0,0,5.59-6.57,5.58-7.1Z"/>
      <g class="uuid-62210e77-ce80-42ac-b350-b7211444e29e">
        <g>
          <path d="M31.78,21.1c0,.4-.33.73-.73.73s-.73-.33-.73-.73.33-.73.73-.73.73.33.73.73Z"/>
          <path d="M36.16,21.1c0,.4-.33.73-.73.73s-.73-.33-.73-.73.33-.73.73-.73.73.33.73.73Z"/>
          <path d="M40.55,21.1c0,.4-.33.73-.73.73s-.73-.33-.73-.73.33-.73.73-.73.73.33.73.73Z"/>
          <path d="M44.93,21.1c0,.4-.33.73-.73.73s-.73-.33-.73-.73.33-.73.73-.73.73.33.73.73Z"/>
          <path d="M49.32,21.1c0,.4-.33.73-.73.73s-.73-.33-.73-.73.33-.73.73-.73.73.33.73.73Z"/>
          <path d="M53.7,21.1c0,.4-.33.73-.73.73s-.73-.33-.73-.73.33-.73.73-.73.73.33.73.73Z"/>
          <path d="M58.08,21.1c0,.4-.33.73-.73.73s-.73-.33-.73-.73.33-.73.73-.73.73.33.73.73Z"/>
          <path d="M33.91,23.49c0,.4-.33.73-.73.73s-.73-.33-.73-.73.33-.73.73-.73.73.33.73.73Z"/>
          <path d="M38.29,23.49c0,.4-.33.73-.73.73s-.73-.33-.73-.73.33-.73.73-.73.73.33.73.73Z"/>
          <path d="M42.68,23.49c0,.4-.33.73-.73.73s-.73-.33-.73-.73.33-.73.73-.73.73.33.73.73Z"/>
          <circle cx="46.33" cy="23.49" r=".73"/>
          <path d="M51.45,23.49c0,.4-.33.73-.73.73s-.73-.33-.73-.73.33-.73.73-.73.73.33.73.73Z"/>
          <path d="M55.83,23.49c0,.4-.33.73-.73.73s-.73-.33-.73-.73.33-.73.73-.73.73.33.73.73Z"/>
          <path d="M60.22,23.49c0,.4-.33.73-.73.73s-.73-.33-.73-.73.33-.73.73-.73.73.33.73.73Z"/>
          <path d="M31.78,26.13c0,.4-.33.73-.73.73s-.73-.33-.73-.73.33-.73.73-.73.73.33.73.73Z"/>
          <path d="M36.16,26.13c0,.4-.33.73-.73.73s-.73-.33-.73-.73.33-.73.73-.73.73.33.73.73Z"/>
          <path d="M40.55,26.13c0,.4-.33.73-.73.73s-.73-.33-.73-.73.33-.73.73-.73.73.33.73.73Z"/>
          <path d="M44.93,26.13c0,.4-.33.73-.73.73s-.73-.33-.73-.73.33-.73.73-.73.73.33.73.73Z"/>
          <path d="M49.32,26.13c0,.4-.33.73-.73.73s-.73-.33-.73-.73.33-.73.73-.73.73.33.73.73Z"/>
          <path d="M53.7,26.13c0,.4-.33.73-.73.73s-.73-.33-.73-.73.33-.73.73-.73.73.33.73.73Z"/>
          <path d="M58.08,26.13c0,.4-.33.73-.73.73s-.73-.33-.73-.73.33-.73.73-.73.73.33.73.73Z"/>
          <path d="M33.91,28.52c0,.4-.33.73-.73.73s-.73-.33-.73-.73.33-.73.73-.73.73.33.73.73Z"/>
          <path d="M38.29,28.52c0,.4-.33.73-.73.73s-.73-.33-.73-.73.33-.73.73-.73.73.33.73.73Z"/>
          <path d="M42.68,28.52c0,.4-.33.73-.73.73s-.73-.33-.73-.73.33-.73.73-.73.73.33.73.73Z"/>
          <path d="M47.06,28.52c0,.4-.33.73-.73.73s-.73-.33-.73-.73.33-.73.73-.73.73.33.73.73Z"/>
          <path d="M51.45,28.52c0,.4-.33.73-.73.73s-.73-.33-.73-.73.33-.73.73-.73.73.33.73.73Z"/>
          <path d="M55.83,28.52c0,.4-.33.73-.73.73s-.73-.33-.73-.73.33-.73.73-.73.73.33.73.73Z"/>
          <path d="M60.22,28.52c0,.4-.33.73-.73.73s-.73-.33-.73-.73.33-.73.73-.73.73.33.73.73Z"/>
          <path d="M31.78,31.16c0,.4-.33.73-.73.73s-.73-.33-.73-.73.33-.73.73-.73.73.33.73.73Z"/>
          <path d="M36.16,31.16c0,.4-.33.73-.73.73s-.73-.33-.73-.73.33-.73.73-.73.73.33.73.73Z"/>
          <path d="M40.55,31.16c0,.4-.33.73-.73.73s-.73-.33-.73-.73.33-.73.73-.73.73.33.73.73Z"/>
          <path d="M44.93,31.16c0,.4-.33.73-.73.73s-.73-.33-.73-.73.33-.73.73-.73.73.33.73.73Z"/>
          <path d="M49.32,31.16c0,.4-.33.73-.73.73s-.73-.33-.73-.73.33-.73.73-.73.73.33.73.73Z"/>
          <path d="M53.7,31.16c0,.4-.33.73-.73.73s-.73-.33-.73-.73.33-.73.73-.73.73.33.73.73Z"/>
          <path d="M58.08,31.16c0,.4-.33.73-.73.73s-.73-.33-.73-.73.33-.73.73-.73.73.33.73.73Z"/>
          <path d="M33.91,33.55c0,.4-.33.73-.73.73s-.73-.33-.73-.73.33-.73.73-.73.73.33.73.73Z"/>
          <path d="M38.29,33.55c0,.4-.33.73-.73.73s-.73-.33-.73-.73.33-.73.73-.73.73.33.73.73Z"/>
          <path d="M42.68,33.55c0,.4-.33.73-.73.73s-.73-.33-.73-.73.33-.73.73-.73.73.33.73.73Z"/>
          <path d="M47.06,33.55c0,.4-.33.73-.73.73s-.73-.33-.73-.73.33-.73.73-.73.73.33.73.73Z"/>
          <path d="M51.45,33.55c0,.4-.33.73-.73.73s-.73-.33-.73-.73.33-.73.73-.73.73.33.73.73Z"/>
          <path d="M55.83,33.55c0,.4-.33.73-.73.73s-.73-.33-.73-.73.33-.73.73-.73.73.33.73.73Z"/>
          <path d="M60.22,33.55c0,.4-.33.73-.73.73s-.73-.33-.73-.73.33-.73.73-.73.73.33.73.73Z"/>
          <path d="M31.78,36.19c0,.4-.33.73-.73.73s-.73-.33-.73-.73.33-.73.73-.73.73.33.73.73Z"/>
          <path d="M36.16,36.19c0,.4-.33.73-.73.73s-.73-.33-.73-.73.33-.73.73-.73.73.33.73.73Z"/>
          <path d="M40.55,36.19c0,.4-.33.73-.73.73s-.73-.33-.73-.73.33-.73.73-.73.73.33.73.73Z"/>
          <path d="M44.93,36.19c0,.4-.33.73-.73.73s-.73-.33-.73-.73.33-.73.73-.73.73.33.73.73Z"/>
          <path d="M49.32,36.19c0,.4-.33.73-.73.73s-.73-.33-.73-.73.33-.73.73-.73.73.33.73.73Z"/>
          <path d="M53.7,36.19c0,.4-.33.73-.73.73s-.73-.33-.73-.73.33-.73.73-.73.73.33.73.73Z"/>
          <path d="M58.08,36.19c0,.4-.33.73-.73.73s-.73-.33-.73-.73.33-.73.73-.73.73.33.73.73Z"/>
          <path d="M33.91,38.58c0,.4-.33.73-.73.73s-.73-.33-.73-.73.33-.73.73-.73.73.33.73.73Z"/>
          <path d="M38.29,38.58c0,.4-.33.73-.73.73s-.73-.33-.73-.73.33-.73.73-.73.73.33.73.73Z"/>
          <path d="M42.68,38.58c0,.4-.33.73-.73.73s-.73-.33-.73-.73.33-.73.73-.73.73.33.73.73Z"/>
          <path d="M47.06,38.58c0,.4-.33.73-.73.73s-.73-.33-.73-.73.33-.73.73-.73.73.33.73.73Z"/>
          <path d="M51.45,38.58c0,.4-.33.73-.73.73s-.73-.33-.73-.73.33-.73.73-.73.73.33.73.73Z"/>
          <path d="M55.83,38.58c0,.4-.33.73-.73.73s-.73-.33-.73-.73.33-.73.73-.73.73.33.73.73Z"/>
          <path d="M60.22,38.58c0,.4-.33.73-.73.73s-.73-.33-.73-.73.33-.73.73-.73.73.33.73.73Z"/>
          <path d="M31.78,41.22c0,.4-.33.73-.73.73s-.73-.33-.73-.73.33-.73.73-.73.73.33.73.73Z"/>
          <circle cx="35.43" cy="41.22" r=".73"/>
          <path d="M40.55,41.22c0,.4-.33.73-.73.73s-.73-.33-.73-.73.33-.73.73-.73.73.33.73.73Z"/>
          <path d="M44.93,41.22c0,.4-.33.73-.73.73s-.73-.33-.73-.73.33-.73.73-.73.73.33.73.73Z"/>
          <path d="M49.32,41.22c0,.4-.33.73-.73.73s-.73-.33-.73-.73.33-.73.73-.73.73.33.73.73Z"/>
          <circle cx="52.97" cy="41.22" r=".73"/>
          <path d="M58.08,41.22c0,.4-.33.73-.73.73s-.73-.33-.73-.73.33-.73.73-.73.73.33.73.73Z"/>
          <path d="M33.91,43.61c0,.4-.33.73-.73.73s-.73-.33-.73-.73.33-.73.73-.73.73.33.73.73Z"/>
          <path d="M38.29,43.61c0,.4-.33.73-.73.73s-.73-.33-.73-.73.33-.73.73-.73.73.33.73.73Z"/>
          <path d="M42.68,43.61c0,.4-.33.73-.73.73s-.73-.33-.73-.73.33-.73.73-.73.73.33.73.73Z"/>
          <path d="M47.06,43.61c0,.4-.33.73-.73.73s-.73-.33-.73-.73.33-.73.73-.73.73.33.73.73Z"/>
          <path d="M51.45,43.61c0,.4-.33.73-.73.73s-.73-.33-.73-.73.33-.73.73-.73.73.33.73.73Z"/>
          <path d="M55.83,43.61c0,.4-.33.73-.73.73s-.73-.33-.73-.73.33-.73.73-.73.73.33.73.73Z"/>
          <path d="M60.22,43.61c0,.4-.33.73-.73.73s-.73-.33-.73-.73.33-.73.73-.73.73.33.73.73Z"/>
          <path d="M31.78,46.25c0,.4-.33.73-.73.73s-.73-.33-.73-.73.33-.73.73-.73.73.33.73.73Z"/>
          <path d="M36.16,46.25c0,.4-.33.73-.73.73s-.73-.33-.73-.73.33-.73.73-.73.73.33.73.73Z"/>
          <path d="M40.55,46.25c0,.4-.33.73-.73.73s-.73-.33-.73-.73.33-.73.73-.73.73.33.73.73Z"/>
          <path d="M44.93,46.25c0,.4-.33.73-.73.73s-.73-.33-.73-.73.33-.73.73-.73.73.33.73.73Z"/>
          <path d="M49.32,46.25c0,.4-.33.73-.73.73s-.73-.33-.73-.73.33-.73.73-.73.73.33.73.73Z"/>
          <path d="M53.7,46.25c0,.4-.33.73-.73.73s-.73-.33-.73-.73.33-.73.73-.73.73.33.73.73Z"/>
          <path d="M58.08,46.25c0,.4-.33.73-.73.73s-.73-.33-.73-.73.33-.73.73-.73.73.33.73.73Z"/>
          <path d="M33.91,48.64c0,.4-.33.73-.73.73s-.73-.33-.73-.73.33-.73.73-.73.73.33.73.73Z"/>
          <path d="M38.29,48.64c0,.4-.33.73-.73.73s-.73-.33-.73-.73.33-.73.73-.73.73.33.73.73Z"/>
          <path d="M42.68,48.64c0,.4-.33.73-.73.73s-.73-.33-.73-.73.33-.73.73-.73.73.33.73.73Z"/>
          <path d="M47.06,48.64c0,.4-.33.73-.73.73s-.73-.33-.73-.73.33-.73.73-.73.73.33.73.73Z"/>
          <path d="M51.45,48.64c0,.4-.33.73-.73.73s-.73-.33-.73-.73.33-.73.73-.73.73.33.73.73Z"/>
          <path d="M55.83,48.64c0,.4-.33.73-.73.73s-.73-.33-.73-.73.33-.73.73-.73.73.33.73.73Z"/>
          <path d="M60.22,48.64c0,.4-.33.73-.73.73s-.73-.33-.73-.73.33-.73.73-.73.73.33.73.73Z"/>
          <path d="M31.78,51.28c0,.4-.33.73-.73.73s-.73-.33-.73-.73.33-.73.73-.73.73.33.73.73Z"/>
          <path d="M36.16,51.28c0,.4-.33.73-.73.73s-.73-.33-.73-.73.33-.73.73-.73.73.33.73.73Z"/>
          <path d="M40.55,51.28c0,.4-.33.73-.73.73s-.73-.33-.73-.73.33-.73.73-.73.73.33.73.73Z"/>
          <path d="M44.93,51.28c0,.4-.33.73-.73.73s-.73-.33-.73-.73.33-.73.73-.73.73.33.73.73Z"/>
          <path d="M49.32,51.28c0,.4-.33.73-.73.73s-.73-.33-.73-.73.33-.73.73-.73.73.33.73.73Z"/>
          <path d="M53.7,51.28c0,.4-.33.73-.73.73s-.73-.33-.73-.73.33-.73.73-.73.73.33.73.73Z"/>
          <path d="M58.08,51.28c0,.4-.33.73-.73.73s-.73-.33-.73-.73.33-.73.73-.73.73.33.73.73Z"/>
          <path d="M33.91,53.67c0,.4-.33.73-.73.73s-.73-.33-.73-.73.33-.73.73-.73.73.33.73.73Z"/>
          <path d="M38.29,53.67c0,.4-.33.73-.73.73s-.73-.33-.73-.73.33-.73.73-.73.73.33.73.73Z"/>
          <path d="M42.68,53.67c0,.4-.33.73-.73.73s-.73-.33-.73-.73.33-.73.73-.73.73.33.73.73Z"/>
          <path d="M47.06,53.67c0,.4-.33.73-.73.73s-.73-.33-.73-.73.33-.73.73-.73.73.33.73.73Z"/>
          <path d="M51.45,53.67c0,.4-.33.73-.73.73s-.73-.33-.73-.73.33-.73.73-.73.73.33.73.73Z"/>
          <path d="M55.83,53.67c0,.4-.33.73-.73.73s-.73-.33-.73-.73.33-.73.73-.73.73.33.73.73Z"/>
          <path d="M60.22,53.67c0,.4-.33.73-.73.73s-.73-.33-.73-.73.33-.73.73-.73.73.33.73.73Z"/>
          <path d="M31.78,56.31c0,.4-.33.73-.73.73s-.73-.33-.73-.73.33-.73.73-.73.73.33.73.73Z"/>
          <path d="M36.16,56.31c0,.4-.33.73-.73.73s-.73-.33-.73-.73.33-.73.73-.73.73.33.73.73Z"/>
          <path d="M40.55,56.31c0,.4-.33.73-.73.73s-.73-.33-.73-.73.33-.73.73-.73.73.33.73.73Z"/>
          <path d="M44.93,56.31c0,.4-.33.73-.73.73s-.73-.33-.73-.73.33-.73.73-.73.73.33.73.73Z"/>
          <path d="M49.32,56.31c0,.4-.33.73-.73.73s-.73-.33-.73-.73.33-.73.73-.73.73.33.73.73Z"/>
          <path d="M53.7,56.31c0,.4-.33.73-.73.73s-.73-.33-.73-.73.33-.73.73-.73.73.33.73.73Z"/>
          <path d="M58.08,56.31c0,.4-.33.73-.73.73s-.73-.33-.73-.73.33-.73.73-.73.73.33.73.73Z"/>
          <path d="M33.91,58.7c0,.4-.33.73-.73.73s-.73-.33-.73-.73.33-.73.73-.73.73.33.73.73Z"/>
          <path d="M38.29,58.7c0,.4-.33.73-.73.73s-.73-.33-.73-.73.33-.73.73-.73.73.33.73.73Z"/>
          <path d="M42.68,58.7c0,.4-.33.73-.73.73s-.73-.33-.73-.73.33-.73.73-.73.73.33.73.73Z"/>
          <path d="M47.06,58.7c0,.4-.33.73-.73.73s-.73-.33-.73-.73.33-.73.73-.73.73.33.73.73Z"/>
          <path d="M51.45,58.7c0,.4-.33.73-.73.73s-.73-.33-.73-.73.33-.73.73-.73.73.33.73.73Z"/>
          <path d="M55.83,58.7c0,.4-.33.73-.73.73s-.73-.33-.73-.73.33-.73.73-.73.73.33.73.73Z"/>
          <path d="M60.22,58.7c0,.4-.33.73-.73.73s-.73-.33-.73-.73.33-.73.73-.73.73.33.73.73Z"/>
          <path d="M31.78,61.34c0,.4-.33.73-.73.73s-.73-.33-.73-.73.33-.73.73-.73.73.33.73.73Z"/>
          <circle cx="35.43" cy="61.34" r=".73"/>
          <path d="M40.55,61.34c0,.4-.33.73-.73.73s-.73-.33-.73-.73.33-.73.73-.73.73.33.73.73Z"/>
          <path d="M44.93,61.34c0,.4-.33.73-.73.73s-.73-.33-.73-.73.33-.73.73-.73.73.33.73.73Z"/>
          <path d="M49.32,61.34c0,.4-.33.73-.73.73s-.73-.33-.73-.73.33-.73.73-.73.73.33.73.73Z"/>
          <circle cx="52.97" cy="61.34" r=".73"/>
          <path d="M58.08,61.34c0,.4-.33.73-.73.73s-.73-.33-.73-.73.33-.73.73-.73.73.33.73.73Z"/>
          <path d="M33.91,63.73c0,.4-.33.73-.73.73s-.73-.33-.73-.73.33-.73.73-.73.73.33.73.73Z"/>
          <path d="M38.29,63.73c0,.4-.33.73-.73.73s-.73-.33-.73-.73.33-.73.73-.73.73.33.73.73Z"/>
          <path d="M42.68,63.73c0,.4-.33.73-.73.73s-.73-.33-.73-.73.33-.73.73-.73.73.33.73.73Z"/>
          <path d="M47.06,63.73c0,.4-.33.73-.73.73s-.73-.33-.73-.73.33-.73.73-.73.73.33.73.73Z"/>
          <path d="M51.45,63.73c0,.4-.33.73-.73.73s-.73-.33-.73-.73.33-.73.73-.73.73.33.73.73Z"/>
          <path d="M55.83,63.73c0,.4-.33.73-.73.73s-.73-.33-.73-.73.33-.73.73-.73.73.33.73.73Z"/>
          <path d="M60.22,63.73c0,.4-.33.73-.73.73s-.73-.33-.73-.73.33-.73.73-.73.73.33.73.73Z"/>
          <path d="M31.78,66.37c0,.4-.33.73-.73.73s-.73-.33-.73-.73.33-.73.73-.73.73.33.73.73Z"/>
          <path d="M36.16,66.37c0,.4-.33.73-.73.73s-.73-.33-.73-.73.33-.73.73-.73.73.33.73.73Z"/>
          <path d="M40.55,66.37c0,.4-.33.73-.73.73s-.73-.33-.73-.73.33-.73.73-.73.73.33.73.73Z"/>
          <path d="M44.93,66.37c0,.4-.33.73-.73.73s-.73-.33-.73-.73.33-.73.73-.73.73.33.73.73Z"/>
          <path d="M49.32,66.37c0,.4-.33.73-.73.73s-.73-.33-.73-.73.33-.73.73-.73.73.33.73.73Z"/>
          <path d="M53.7,66.37c0,.4-.33.73-.73.73s-.73-.33-.73-.73.33-.73.73-.73.73.33.73.73Z"/>
          <path d="M58.08,66.37c0,.4-.33.73-.73.73s-.73-.33-.73-.73.33-.73.73-.73.73.33.73.73Z"/>
          <path d="M33.91,68.76c0,.4-.33.73-.73.73s-.73-.33-.73-.73.33-.73.73-.73.73.33.73.73Z"/>
          <path d="M38.29,68.76c0,.4-.33.73-.73.73s-.73-.33-.73-.73.33-.73.73-.73.73.33.73.73Z"/>
          <path d="M42.68,68.76c0,.4-.33.73-.73.73s-.73-.33-.73-.73.33-.73.73-.73.73.33.73.73Z"/>
          <path d="M47.06,68.76c0,.4-.33.73-.73.73s-.73-.33-.73-.73.33-.73.73-.73.73.33.73.73Z"/>
          <path d="M51.45,68.76c0,.4-.33.73-.73.73s-.73-.33-.73-.73.33-.73.73-.73.73.33.73.73Z"/>
          <path d="M55.83,68.76c0,.4-.33.73-.73.73s-.73-.33-.73-.73.33-.73.73-.73.73.33.73.73Z"/>
          <path d="M60.22,68.76c0,.4-.33.73-.73.73s-.73-.33-.73-.73.33-.73.73-.73.73.33.73.73Z"/>
          <path d="M31.78,71.4c0,.4-.33.73-.73.73s-.73-.33-.73-.73.33-.73.73-.73.73.33.73.73Z"/>
          <path d="M36.16,71.4c0,.4-.33.73-.73.73s-.73-.33-.73-.73.33-.73.73-.73.73.33.73.73Z"/>
          <path d="M40.55,71.4c0,.4-.33.73-.73.73s-.73-.33-.73-.73.33-.73.73-.73.73.33.73.73Z"/>
          <path d="M44.93,71.4c0,.4-.33.73-.73.73s-.73-.33-.73-.73.33-.73.73-.73.73.33.73.73Z"/>
          <path d="M49.32,71.4c0,.4-.33.73-.73.73s-.73-.33-.73-.73.33-.73.73-.73.73.33.73.73Z"/>
          <path d="M53.7,71.4c0,.4-.33.73-.73.73s-.73-.33-.73-.73.33-.73.73-.73.73.33.73.73Z"/>
          <path d="M58.08,71.4c0,.4-.33.73-.73.73s-.73-.33-.73-.73.33-.73.73-.73.73.33.73.73Z"/>
          <path d="M33.91,73.78c0,.4-.33.73-.73.73s-.73-.33-.73-.73.33-.73.73-.73.73.33.73.73Z"/>
          <path d="M38.29,73.78c0,.4-.33.73-.73.73s-.73-.33-.73-.73.33-.73.73-.73.73.33.73.73Z"/>
          <path d="M42.68,73.78c0,.4-.33.73-.73.73s-.73-.33-.73-.73.33-.73.73-.73.73.33.73.73Z"/>
          <path d="M47.06,73.78c0,.4-.33.73-.73.73s-.73-.33-.73-.73.33-.73.73-.73.73.33.73.73Z"/>
          <path d="M51.45,73.78c0,.4-.33.73-.73.73s-.73-.33-.73-.73.33-.73.73-.73.73.33.73.73Z"/>
          <path d="M55.83,73.78c0,.4-.33.73-.73.73s-.73-.33-.73-.73.33-.73.73-.73.73.33.73.73Z"/>
          <path d="M60.22,73.78c0,.4-.33.73-.73.73s-.73-.33-.73-.73.33-.73.73-.73.73.33.73.73Z"/>
          <path d="M31.78,76.42c0,.4-.33.73-.73.73s-.73-.33-.73-.73.33-.73.73-.73.73.33.73.73Z"/>
          <path d="M36.16,76.42c0,.4-.33.73-.73.73s-.73-.33-.73-.73.33-.73.73-.73.73.33.73.73Z"/>
          <path d="M40.55,76.42c0,.4-.33.73-.73.73s-.73-.33-.73-.73.33-.73.73-.73.73.33.73.73Z"/>
          <path d="M44.93,76.42c0,.4-.33.73-.73.73s-.73-.33-.73-.73.33-.73.73-.73.73.33.73.73Z"/>
          <path d="M49.32,76.42c0,.4-.33.73-.73.73s-.73-.33-.73-.73.33-.73.73-.73.73.33.73.73Z"/>
          <path d="M53.7,76.42c0,.4-.33.73-.73.73s-.73-.33-.73-.73.33-.73.73-.73.73.33.73.73Z"/>
          <path d="M58.08,76.42c0,.4-.33.73-.73.73s-.73-.33-.73-.73.33-.73.73-.73.73.33.73.73Z"/>
          <path d="M33.91,78.81c0,.4-.33.73-.73.73s-.73-.33-.73-.73.33-.73.73-.73.73.33.73.73Z"/>
          <path d="M38.29,78.81c0,.4-.33.73-.73.73s-.73-.33-.73-.73.33-.73.73-.73.73.33.73.73Z"/>
          <path d="M42.68,78.81c0,.4-.33.73-.73.73s-.73-.33-.73-.73.33-.73.73-.73.73.33.73.73Z"/>
          <path d="M47.06,78.81c0,.4-.33.73-.73.73s-.73-.33-.73-.73.33-.73.73-.73.73.33.73.73Z"/>
          <path d="M51.45,78.81c0,.4-.33.73-.73.73s-.73-.33-.73-.73.33-.73.73-.73.73.33.73.73Z"/>
          <path d="M55.83,78.81c0,.4-.33.73-.73.73s-.73-.33-.73-.73.33-.73.73-.73.73.33.73.73Z"/>
          <path d="M60.22,78.81c0,.4-.33.73-.73.73s-.73-.33-.73-.73.33-.73.73-.73.73.33.73.73Z"/>
          <path d="M31.78,81.45c0,.4-.33.73-.73.73s-.73-.33-.73-.73.33-.73.73-.73.73.33.73.73Z"/>
          <circle cx="35.43" cy="81.45" r=".73"/>
          <path d="M40.55,81.45c0,.4-.33.73-.73.73s-.73-.33-.73-.73.33-.73.73-.73.73.33.73.73Z"/>
          <path d="M44.93,81.45c0,.4-.33.73-.73.73s-.73-.33-.73-.73.33-.73.73-.73.73.33.73.73Z"/>
          <path d="M49.32,81.45c0,.4-.33.73-.73.73s-.73-.33-.73-.73.33-.73.73-.73.73.33.73.73Z"/>
          <circle cx="52.97" cy="81.45" r=".73"/>
          <path d="M58.08,81.45c0,.4-.33.73-.73.73s-.73-.33-.73-.73.33-.73.73-.73.73.33.73.73Z"/>
          <path d="M33.91,83.84c0,.4-.33.73-.73.73s-.73-.33-.73-.73.33-.73.73-.73.73.33.73.73Z"/>
          <path d="M38.29,83.84c0,.4-.33.73-.73.73s-.73-.33-.73-.73.33-.73.73-.73.73.33.73.73Z"/>
          <path d="M42.68,83.84c0,.4-.33.73-.73.73s-.73-.33-.73-.73.33-.73.73-.73.73.33.73.73Z"/>
          <path d="M47.06,83.84c0,.4-.33.73-.73.73s-.73-.33-.73-.73.33-.73.73-.73.73.33.73.73Z"/>
          <path d="M51.45,83.84c0,.4-.33.73-.73.73s-.73-.33-.73-.73.33-.73.73-.73.73.33.73.73Z"/>
          <path d="M55.83,83.84c0,.4-.33.73-.73.73s-.73-.33-.73-.73.33-.73.73-.73.73.33.73.73Z"/>
          <path d="M60.22,83.84c0,.4-.33.73-.73.73s-.73-.33-.73-.73.33-.73.73-.73.73.33.73.73Z"/>
          <path d="M31.78,86.48c0,.4-.33.73-.73.73s-.73-.33-.73-.73.33-.73.73-.73.73.33.73.73Z"/>
          <path d="M36.16,86.48c0,.4-.33.73-.73.73s-.73-.33-.73-.73.33-.73.73-.73.73.33.73.73Z"/>
          <path d="M40.55,86.48c0,.4-.33.73-.73.73s-.73-.33-.73-.73.33-.73.73-.73.73.33.73.73Z"/>
          <path d="M44.93,86.48c0,.4-.33.73-.73.73s-.73-.33-.73-.73.33-.73.73-.73.73.33.73.73Z"/>
          <path d="M49.32,86.48c0,.4-.33.73-.73.73s-.73-.33-.73-.73.33-.73.73-.73.73.33.73.73Z"/>
          <path d="M53.7,86.48c0,.4-.33.73-.73.73s-.73-.33-.73-.73.33-.73.73-.73.73.33.73.73Z"/>
          <path d="M58.08,86.48c0,.4-.33.73-.73.73s-.73-.33-.73-.73.33-.73.73-.73.73.33.73.73Z"/>
          <path d="M33.91,88.87c0,.4-.33.73-.73.73s-.73-.33-.73-.73.33-.73.73-.73.73.33.73.73Z"/>
          <path d="M38.29,88.87c0,.4-.33.73-.73.73s-.73-.33-.73-.73.33-.73.73-.73.73.33.73.73Z"/>
          <path d="M42.68,88.87c0,.4-.33.73-.73.73s-.73-.33-.73-.73.33-.73.73-.73.73.33.73.73Z"/>
          <circle cx="46.33" cy="88.87" r=".73"/>
          <path d="M51.45,88.87c0,.4-.33.73-.73.73s-.73-.33-.73-.73.33-.73.73-.73.73.33.73.73Z"/>
          <path d="M55.83,88.87c0,.4-.33.73-.73.73s-.73-.33-.73-.73.33-.73.73-.73.73.33.73.73Z"/>
          <path d="M60.22,88.87c0,.4-.33.73-.73.73s-.73-.33-.73-.73.33-.73.73-.73.73.33.73.73Z"/>
          <path d="M31.78,91.51c0,.4-.33.73-.73.73s-.73-.33-.73-.73.33-.73.73-.73.73.33.73.73Z"/>
          <path d="M36.16,91.51c0,.4-.33.73-.73.73s-.73-.33-.73-.73.33-.73.73-.73.73.33.73.73Z"/>
          <path d="M40.55,91.51c0,.4-.33.73-.73.73s-.73-.33-.73-.73.33-.73.73-.73.73.33.73.73Z"/>
          <path d="M44.93,91.51c0,.4-.33.73-.73.73s-.73-.33-.73-.73.33-.73.73-.73.73.33.73.73Z"/>
          <path d="M49.32,91.51c0,.4-.33.73-.73.73s-.73-.33-.73-.73.33-.73.73-.73.73.33.73.73Z"/>
          <path d="M53.7,91.51c0,.4-.33.73-.73.73s-.73-.33-.73-.73.33-.73.73-.73.73.33.73.73Z"/>
          <path d="M58.08,91.51c0,.4-.33.73-.73.73s-.73-.33-.73-.73.33-.73.73-.73.73.33.73.73Z"/>
          <path d="M33.91,93.9c0,.4-.33.73-.73.73s-.73-.33-.73-.73.33-.73.73-.73.73.33.73.73Z"/>
          <path d="M38.29,93.9c0,.4-.33.73-.73.73s-.73-.33-.73-.73.33-.73.73-.73.73.33.73.73Z"/>
          <path d="M42.68,93.9c0,.4-.33.73-.73.73s-.73-.33-.73-.73.33-.73.73-.73.73.33.73.73Z"/>
          <path d="M47.06,93.9c0,.4-.33.73-.73.73s-.73-.33-.73-.73.33-.73.73-.73.73.33.73.73Z"/>
          <path d="M51.45,93.9c0,.4-.33.73-.73.73s-.73-.33-.73-.73.33-.73.73-.73.73.33.73.73Z"/>
          <path d="M55.83,93.9c0,.4-.33.73-.73.73s-.73-.33-.73-.73.33-.73.73-.73.73.33.73.73Z"/>
          <path d="M60.22,93.9c0,.4-.33.73-.73.73s-.73-.33-.73-.73.33-.73.73-.73.73.33.73.73Z"/>
          <path d="M31.78,96.54c0,.4-.33.73-.73.73s-.73-.33-.73-.73.33-.73.73-.73.73.33.73.73Z"/>
          <path d="M36.16,96.54c0,.4-.33.73-.73.73s-.73-.33-.73-.73.33-.73.73-.73.73.33.73.73Z"/>
          <path d="M40.55,96.54c0,.4-.33.73-.73.73s-.73-.33-.73-.73.33-.73.73-.73.73.33.73.73Z"/>
          <path d="M44.93,96.54c0,.4-.33.73-.73.73s-.73-.33-.73-.73.33-.73.73-.73.73.33.73.73Z"/>
          <path d="M49.32,96.54c0,.4-.33.73-.73.73s-.73-.33-.73-.73.33-.73.73-.73.73.33.73.73Z"/>
          <path d="M53.7,96.54c0,.4-.33.73-.73.73s-.73-.33-.73-.73.33-.73.73-.73.73.33.73.73Z"/>
          <path d="M58.08,96.54c0,.4-.33.73-.73.73s-.73-.33-.73-.73.33-.73.73-.73.73.33.73.73Z"/>
          <path d="M33.91,98.93c0,.4-.33.73-.73.73s-.73-.33-.73-.73.33-.73.73-.73.73.33.73.73Z"/>
          <path d="M38.29,98.93c0,.4-.33.73-.73.73s-.73-.33-.73-.73.33-.73.73-.73.73.33.73.73Z"/>
          <path d="M42.68,98.93c0,.4-.33.73-.73.73s-.73-.33-.73-.73.33-.73.73-.73.73.33.73.73Z"/>
          <path d="M47.06,98.93c0,.4-.33.73-.73.73s-.73-.33-.73-.73.33-.73.73-.73.73.33.73.73Z"/>
          <path d="M51.45,98.93c0,.4-.33.73-.73.73s-.73-.33-.73-.73.33-.73.73-.73.73.33.73.73Z"/>
          <path d="M55.83,98.93c0,.4-.33.73-.73.73s-.73-.33-.73-.73.33-.73.73-.73.73.33.73.73Z"/>
          <path d="M60.22,98.93c0,.4-.33.73-.73.73s-.73-.33-.73-.73.33-.73.73-.73.73.33.73.73Z"/>
          <path d="M31.78,101.57c0,.4-.33.73-.73.73s-.73-.33-.73-.73.33-.73.73-.73.73.33.73.73Z"/>
          <path d="M36.16,101.57c0,.4-.33.73-.73.73s-.73-.33-.73-.73.33-.73.73-.73.73.33.73.73Z"/>
          <path d="M40.55,101.57c0,.4-.33.73-.73.73s-.73-.33-.73-.73.33-.73.73-.73.73.33.73.73Z"/>
          <path d="M44.93,101.57c0,.4-.33.73-.73.73s-.73-.33-.73-.73.33-.73.73-.73.73.33.73.73Z"/>
          <path d="M49.32,101.57c0,.4-.33.73-.73.73s-.73-.33-.73-.73.33-.73.73-.73.73.33.73.73Z"/>
          <path d="M53.7,101.57c0,.4-.33.73-.73.73s-.73-.33-.73-.73.33-.73.73-.73.73.33.73.73Z"/>
          <path d="M58.08,101.57c0,.4-.33.73-.73.73s-.73-.33-.73-.73.33-.73.73-.73.73.33.73.73Z"/>
          <path d="M33.91,103.96c0,.4-.33.73-.73.73s-.73-.33-.73-.73.33-.73.73-.73.73.33.73.73Z"/>
          <path d="M38.29,103.96c0,.4-.33.73-.73.73s-.73-.33-.73-.73.33-.73.73-.73.73.33.73.73Z"/>
          <path d="M42.68,103.96c0,.4-.33.73-.73.73s-.73-.33-.73-.73.33-.73.73-.73.73.33.73.73Z"/>
          <path d="M47.06,103.96c0,.4-.33.73-.73.73s-.73-.33-.73-.73.33-.73.73-.73.73.33.73.73Z"/>
          <path d="M51.45,103.96c0,.4-.33.73-.73.73s-.73-.33-.73-.73.33-.73.73-.73.73.33.73.73Z"/>
          <path d="M55.83,103.96c0,.4-.33.73-.73.73s-.73-.33-.73-.73.33-.73.73-.73.73.33.73.73Z"/>
          <path d="M60.22,103.96c0,.4-.33.73-.73.73s-.73-.33-.73-.73.33-.73.73-.73.73.33.73.73Z"/>
          <path d="M31.78,106.6c0,.4-.33.73-.73.73s-.73-.33-.73-.73.33-.73.73-.73.73.33.73.73Z"/>
          <path d="M36.16,106.6c0,.4-.33.73-.73.73s-.73-.33-.73-.73.33-.73.73-.73.73.33.73.73Z"/>
          <path d="M40.55,106.6c0,.4-.33.73-.73.73s-.73-.33-.73-.73.33-.73.73-.73.73.33.73.73Z"/>
          <path d="M44.93,106.6c0,.4-.33.73-.73.73s-.73-.33-.73-.73.33-.73.73-.73.73.33.73.73Z"/>
          <path d="M49.32,106.6c0,.4-.33.73-.73.73s-.73-.33-.73-.73.33-.73.73-.73.73.33.73.73Z"/>
          <path d="M53.7,106.6c0,.4-.33.73-.73.73s-.73-.33-.73-.73.33-.73.73-.73.73.33.73.73Z"/>
          <path d="M58.08,106.6c0,.4-.33.73-.73.73s-.73-.33-.73-.73.33-.73.73-.73.73.33.73.73Z"/>
          <path d="M33.91,108.99c0,.4-.33.73-.73.73s-.73-.33-.73-.73.33-.73.73-.73.73.33.73.73Z"/>
          <path d="M38.29,108.99c0,.4-.33.73-.73.73s-.73-.33-.73-.73.33-.73.73-.73.73.33.73.73Z"/>
          <path d="M42.68,108.99c0,.4-.33.73-.73.73s-.73-.33-.73-.73.33-.73.73-.73.73.33.73.73Z"/>
          <circle cx="46.33" cy="108.99" r=".73"/>
          <path d="M51.45,108.99c0,.4-.33.73-.73.73s-.73-.33-.73-.73.33-.73.73-.73.73.33.73.73Z"/>
          <path d="M55.83,108.99c0,.4-.33.73-.73.73s-.73-.33-.73-.73.33-.73.73-.73.73.33.73.73Z"/>
          <path d="M60.22,108.99c0,.4-.33.73-.73.73s-.73-.33-.73-.73.33-.73.73-.73.73.33.73.73Z"/>
        </g>
      </g>
    </g>
    <path d="M48.44,16.22c-.08-.74-1.14-.5-2.53-.5s-2.14-.19-2.22.55c-.08.74-.6,1.7-.56,2.15.02.26.38,3.91,1.11,3.67,1.67-.56,3.58-.26,3.72-.51.35-.62,1.02-2.74,1.08-3,.11-.49-.51-1.62-.59-2.36Z"/>
  </g>
  <g>
    <path class="uuid-eb04699c-e85d-4538-9bcf-8128ff6cfd57" d="M49.9,21.8c-.06,0-.12-.01-.17-.04-.1-.05-.18-.14-.21-.25-.83-2.91-2.24-7.23-2.81-7.73-.17-.15-.18-.4-.03-.57.15-.16.4-.18.57-.03.86.76,2.37,5.78,2.91,7.64.88-.52,3.17-2.1,6.76-6.17.15-.17.4-.18.56-.04.17.15.18.4.04.56-4.81,5.46-7.35,6.55-7.46,6.6-.05.02-.1.03-.15.03Z"/>
    <path class="uuid-eb04699c-e85d-4538-9bcf-8128ff6cfd57" d="M42.17,21.8c-.05,0-.1-.01-.15-.03-.11-.04-2.64-1.14-7.46-6.6-.15-.17-.13-.42.04-.56.17-.15.42-.13.56.04,3.59,4.07,5.88,5.65,6.76,6.17.54-1.85,2.06-6.88,2.91-7.64.17-.15.42-.13.57.03.15.17.13.42-.03.57-.57.5-1.98,4.82-2.81,7.73-.03.11-.11.2-.21.25-.05.03-.11.04-.17.04Z"/>
    <path class="uuid-eb04699c-e85d-4538-9bcf-8128ff6cfd57" d="M19.49,47.06l-.46,4.44-12.12-2.86c-.03,1.03-.06,1.67-.06,1.67,0,0,6.28,2.5,12.84,3.1l-.2-6.35Z"/>
    <path class="uuid-eb04699c-e85d-4538-9bcf-8128ff6cfd57" d="M72.72,47.17l.66,4.33,12.12-2.86c.03,1.03.06,1.67.06,1.67,0,0-6.28,2.5-12.84,3.1v-6.24Z"/>
  </g>
</svg>