<?xml version="1.0" encoding="UTF-8"?>
<svg id="uuid-fdc03ed1-c964-49a4-bfc9-eb187fd84ddd" data-name="_x2018_ëîé_x5F_1" xmlns="http://www.w3.org/2000/svg" viewBox="0 0 101.91 120.6">
  <defs>
    <style>
      .uuid-1dd1e1ad-5903-4e72-bd82-fb05655e4214 {
        fill: #fff;
      }

      .uuid-31cc1f19-7224-4fd7-a349-9456848cdd7c {
        fill: #8fc5d8;
      }

      .uuid-cb4c3f85-77cd-4892-b1f5-2b56050ff942 {
        fill: #2b2b2b;
      }
    </style>
  </defs>
  <path class="uuid-1dd1e1ad-5903-4e72-bd82-fb05655e4214" d="M9.08,113.03h8.4c.09-.51,4.83-31.32,5.54-37.2.66-5.45,1.3-20,1.29-28.37.13,3.87.38,5.41.78,13.38.3,5.97.49,26.8.07,40.8,0,0,7.28,12.09,25.77,12.09s25.79-12.09,25.79-12.09c-.42-14-.19-34.7.03-40.55.27-7.03.69-9.76.82-13.63,0,8.37.63,22.91,1.29,28.37.72,5.88,5.24,36.68,5.33,37.2h8.64c-.47-14.24-.56-30.83-2.05-43.06-.8-6.56-1.33-31.9-1.2-36.7.16-5.64-.93-12-7.4-13.06-4.38-.72-9.99-2.64-14.16-3.95-6.86-2.15-6.85-9.39-6.85-9.39,0,0-7.01,3.36-9.91,4.44-.33.49-.35,6.99-.35,6.99,0,0-.1-6.62-.35-6.99-3.01-1.34-9.75-4.44-9.75-4.44,0,0-.09,7.23-6.95,9.39-4.17,1.31-9.78,3.23-14.16,3.95-6.46,1.06-7.56,7.42-7.4,13.06.13,4.8-.4,30.15-1.2,36.7-1.49,12.24-1.55,28.83-2.02,43.06Z"/>
  <g>
    <path class="uuid-31cc1f19-7224-4fd7-a349-9456848cdd7c" d="M54.75,20.11c-.06,0-.12-.01-.17-.04-.1-.05-.18-.14-.21-.25-.83-2.91-2.24-7.23-2.81-7.73-.17-.15-.18-.4-.03-.57.15-.16.4-.18.57-.03.86.76,2.37,5.78,2.91,7.64.88-.52,3.17-2.1,6.76-6.17.15-.17.4-.18.56-.04.17.15.18.4.04.56-4.81,5.46-7.35,6.55-7.46,6.6-.05.02-.1.03-.15.03Z"/>
    <path class="uuid-31cc1f19-7224-4fd7-a349-9456848cdd7c" d="M47.03,20.11c-.05,0-.1-.01-.15-.03-.11-.04-2.64-1.14-7.46-6.6-.15-.17-.13-.42.04-.56.17-.15.42-.13.56.04,3.59,4.07,5.88,5.65,6.76,6.17.54-1.85,2.06-6.88,2.91-7.64.17-.15.42-.13.57.03.15.17.13.42-.03.57-.57.5-1.98,4.82-2.81,7.73-.03.11-.11.2-.21.25-.05.03-.11.04-.17.04Z"/>
    <path class="uuid-31cc1f19-7224-4fd7-a349-9456848cdd7c" d="M14.54,102.26c-1.21,0-2.6-.08-3.88-.32-.22-.04-.36-.25-.32-.47.04-.22.25-.36.47-.32,3.1.6,6.98.13,7.02.13.22-.03.42.13.45.35s-.13.42-.35.45c-.1.01-1.55.19-3.4.19Z"/>
    <path class="uuid-31cc1f19-7224-4fd7-a349-9456848cdd7c" d="M87.36,102.26c-1.84,0-3.3-.17-3.4-.19-.22-.03-.37-.23-.35-.45.03-.22.23-.37.45-.35.04,0,3.93.47,7.02-.13.22-.04.43.1.47.32.04.22-.1.43-.32.47-1.28.25-2.66.32-3.88.32Z"/>
    <path class="uuid-31cc1f19-7224-4fd7-a349-9456848cdd7c" d="M50.62,112.51c-.17,0-.32-.18-.32-.41V16.41c0-.23.14-.41.32-.41s.32.18.32.41v95.68c0,.23-.14.41-.32.41Z"/>
    <g>
      <path class="uuid-31cc1f19-7224-4fd7-a349-9456848cdd7c" d="M53.15,105c0,.43-.35.78-.78.78s-.78-.35-.78-.78.35-.78.78-.78.78.35.78.78Z"/>
      <path class="uuid-31cc1f19-7224-4fd7-a349-9456848cdd7c" d="M53.15,93.18c0,.43-.35.78-.78.78s-.78-.35-.78-.78.35-.78.78-.78.78.35.78.78Z"/>
      <path class="uuid-31cc1f19-7224-4fd7-a349-9456848cdd7c" d="M53.15,81.37c0,.43-.35.78-.78.78s-.78-.35-.78-.78.35-.78.78-.78.78.35.78.78Z"/>
      <path class="uuid-31cc1f19-7224-4fd7-a349-9456848cdd7c" d="M53.15,69.56c0,.43-.35.78-.78.78s-.78-.35-.78-.78.35-.78.78-.78.78.35.78.78Z"/>
      <path class="uuid-31cc1f19-7224-4fd7-a349-9456848cdd7c" d="M53.15,57.75c0,.43-.35.78-.78.78s-.78-.35-.78-.78.35-.78.78-.78.78.35.78.78Z"/>
      <path class="uuid-31cc1f19-7224-4fd7-a349-9456848cdd7c" d="M53.15,45.93c0,.43-.35.78-.78.78s-.78-.35-.78-.78.35-.78.78-.78.78.35.78.78Z"/>
      <path class="uuid-31cc1f19-7224-4fd7-a349-9456848cdd7c" d="M53.15,34.12c0,.43-.35.78-.78.78s-.78-.35-.78-.78.35-.78.78-.78.78.35.78.78Z"/>
      <path class="uuid-31cc1f19-7224-4fd7-a349-9456848cdd7c" d="M53.15,22.31c0,.43-.35.78-.78.78s-.78-.35-.78-.78.35-.78.78-.78.78.35.78.78Z"/>
      <path class="uuid-31cc1f19-7224-4fd7-a349-9456848cdd7c" d="M53.15,17.17c0,.43-.35.78-.78.78s-.78-.35-.78-.78.35-.78.78-.78.78.35.78.78Z"/>
    </g>
  </g>
  <g>
    <path class="uuid-cb4c3f85-77cd-4892-b1f5-2b56050ff942" d="M50.29,13.7c-.14.03-6.4-1.48-7.91-2.13-.27-.1-.09,1.96-.05,2.68.03.52.04,1.48-.04,1.99-.18,1.11.05,3.69.05,3.69,2.63-.96,5.27-1.75,7.91-2.5.02-1.24.03-2.49.05-3.73Z"/>
    <path class="uuid-cb4c3f85-77cd-4892-b1f5-2b56050ff942" d="M51.77,17.49c.14-.03,6.4,1.61,7.91,2.25.27.1-.01-2.16-.04-2.68-.04-.78.17-1.61.13-2.14-.09-1.46-.05-3.17-.05-3.17-2.63.78-5.27,1.41-7.91,2-.02,1.24-.03,2.49-.05,3.73Z"/>
    <g>
      <path d="M46.36,16.82c-.12,0-.23-.11-.26-.28-.03-.18.07-.36.21-.39,1.2-.28,2.41-.55,3.61-.82-1.58-.38-4.18-.93-5.7-1.28-.14-.03-.24-.21-.22-.4.02-.19.16-.32.3-.28.25.1,6.18,1.33,7.04,1.68.11.05.18.19.18.34,0,.15-.1.27-.22.3-1.63.37-3.27.73-4.9,1.12-.02,0-.03,0-.05,0Z"/>
      <path d="M55.98,16.82c.12,0,.23-.11.26-.28.03-.18-.07-.36-.21-.39-1.2-.28-2.41-.55-3.61-.82,1.58-.38,4.18-.93,5.7-1.28.14-.03.24-.21.22-.4-.02-.19-.16-.32-.3-.28-.25.1-6.18,1.33-7.05,1.68-.11.05-.18.19-.18.34,0,.15.1.27.22.3,1.63.37,3.27.73,4.9,1.12.02,0,.03,0,.05,0Z"/>
    </g>
    <path d="M49.33,15.47c0,1.12-.11,2.25,1.68,2.26,1.48.01,1.73-.88,1.73-2.27,0-1.05.07-2.23-1.65-2.22-1.84,0-1.75.74-1.75,2.23Z"/>
  </g>
</svg>