<?xml version="1.0" encoding="UTF-8"?>
<svg id="uuid-23833225-83d7-407d-9035-8f646414074a" data-name="_x2018_ëîé_x5F_1" xmlns="http://www.w3.org/2000/svg" viewBox="0 0 75.57 172.27">
  <defs>
    <style>
      .uuid-6fcd4f9d-0849-4ebb-9d30-198e039ded04 {
        fill: #143351;
      }

      .uuid-6a4350a2-b6e8-4e5d-b8eb-80edd64a40ed {
        fill: #0a2033;
      }
    </style>
  </defs>
  <path class="uuid-6fcd4f9d-0849-4ebb-9d30-198e039ded04" d="M11.87,17.72c-.43,13.82-.13,20.11.27,27.37,1.19,21.41,1.44,26.71,2.59,39.43.6,6.61,1.4,13.85.92,23.57-.66,13.25.55,22.05,1.18,31.12.7,10.03,1.02,21.01,1.05,24.28,0,0,1.77.81,6.79.81s6.99-.81,6.99-.81c-.19-4.45-.02-16.57.34-21.75.9-12.82,1.95-19.71,1.79-33.58-.07-5.84.57-19.77.87-21.78,2.06-13.6,2.93-36.97,3.11-36.97s1.09,23.37,3.14,36.97c.3,2,.94,15.93.87,21.78-.17,13.86.89,20.75,1.79,33.58.36,5.18.53,17.29.34,21.75,0,0,2.28.81,7.07.81s6.71-.81,6.71-.81c.03-3.27.35-14.25,1.05-24.28.63-9.07,1.84-17.87,1.18-31.12-.49-9.72.32-16.97.92-23.57,1.15-12.71,1.4-18.01,2.59-39.43.4-7.26.7-13.55.27-27.37-.1-3.15-.19-6.45-.26-9.75,0,0-5.55.77-25.67.77s-25.63-.77-25.63-.77c-.07,3.3-.16,6.6-.26,9.75Z"/>
  <g>
    <path class="uuid-6a4350a2-b6e8-4e5d-b8eb-80edd64a40ed" d="M38.54,11.5c0,.65-.53,1.17-1.17,1.17s-1.17-.53-1.17-1.17.53-1.17,1.17-1.17,1.17.53,1.17,1.17Z"/>
    <path class="uuid-6a4350a2-b6e8-4e5d-b8eb-80edd64a40ed" d="M37.77,14.05c-19.01,0-25.23-.91-25.29-.92-.22-.03-.37-.24-.34-.46s.24-.37.46-.34c.06,0,6.24.91,25.17.91s25.11-.91,25.17-.91c.22-.04.43.12.46.34.03.22-.12.43-.34.46-.06,0-6.28.92-25.29.92Z"/>
    <path class="uuid-6a4350a2-b6e8-4e5d-b8eb-80edd64a40ed" d="M37.06,38.57c-.11,0-.28-.03-.44-.2-1.45-1.48-1.27-19.58-1.2-24.22h-.51c-.22,0-.4-.18-.4-.4v-4.19c0-.22.18-.4.4-.4s.4.18.4.4v3.78h.52c.11,0,.21.04.29.12.08.08.12.18.12.29-.18,10.88.08,22.91.93,24.02.17.05.29.2.29.39,0,.22-.18.4-.4.4Z"/>
    <path class="uuid-6a4350a2-b6e8-4e5d-b8eb-80edd64a40ed" d="M62.15,36.22c-.17,0-.32-.1-.38-.27-2.81-7.82-4.24-17.93-4.26-18.03-.03-.22.12-.42.34-.46.22-.03.42.12.46.34.01.1,1.44,10.14,4.22,17.87.08.21-.03.44-.24.52-.04.02-.09.02-.14.02Z"/>
    <path class="uuid-6a4350a2-b6e8-4e5d-b8eb-80edd64a40ed" d="M13.4,36.22c.17,0,.32-.1.38-.27,2.81-7.82,4.24-17.93,4.26-18.03.03-.22-.12-.42-.34-.46-.22-.03-.42.12-.46.34-.01.1-1.44,10.14-4.22,17.87-.08.21.03.44.24.52.04.02.09.02.14.02Z"/>
  </g>
</svg>