<?xml version="1.0" encoding="UTF-8"?>
<svg id="uuid-7f9d60cc-bf6d-48ed-b129-9b580eaaa458" data-name="_x2018_ëîé_x5F_1" xmlns="http://www.w3.org/2000/svg" viewBox="0 0 46.98 21.76">
  <defs>
    <style>
      .uuid-7f3c5842-b880-462b-9a62-828b202f9b6d {
        fill: #414042;
      }
    </style>
  </defs>
  <g>
    <path d="M4.9,5.12c-.59,3.72-.81,4.37-1,5.38-.16.83-.31,1.99-.18,2.77.28,1.65.71,2.76,2.05,3.42,4.17,2.05,9.45,1.64,10.66.13.46-.57.8-1.42.89-2.25.09-.88-.04-3.11-.54-4.2-.48-1.04-.5-3.09-.96-5.09-.1-.46-2.8.12-2.8.12-.36.12-.75-1.92-1.01-2.2-.36-.38-.29-.28-1.86-.26-1.57.02-1.5-.09-1.86.28-.26.27-.63,2.3-.99,2.19,0,0-2.34-.73-2.41-.28Z"/>
    <path class="uuid-7f3c5842-b880-462b-9a62-828b202f9b6d" d="M8.8,17.46c-4.47-1.21-5.01-3.66-5.09-4.55-.05.08-.17.17-.16.28.02.19,0,.38.02.69.04.98.88,2.48,2.33,3.27,1.86,1.02,4.67,1.95,7.1,1.64,1.55-.19,2.83-1,3.58-1.78.34-.35.89-.96.95-1.61.03-.3,0-.64,0-.9,0-.08-.11-.36-.17-.5-.05.86-1.21,3.34-4.47,3.84-1.04.16-2.52.04-4.1-.39Z"/>
    <path class="uuid-7f3c5842-b880-462b-9a62-828b202f9b6d" d="M12.7,5.8c-.22-.01-.43.15-.45.38-.01.14-.03.33-.05.53-1.71-.78-3.46-.34-4.29-.05-.02-.19-.04-.36-.05-.49-.02-.23-.22-.38-.45-.38-.23.02-.4.22-.38.45.03.37.33,3.6.81,4.63.07.15.22.24.37.24.06,0,.12-.01.17-.04.21-.1.3-.34.2-.55-.09-.18-.17-.48-.24-.83.68-.27,2.07-.64,3.39.04-.07.33-.15.61-.23.79-.1.21,0,.45.2.55.06.03.12.04.17.04.16,0,.3-.09.37-.24.48-1.03.78-4.27.81-4.63.02-.23-.15-.43-.38-.45ZM12.15,7.15c-.03.23-.06.49-.09.74-1.59-.74-3.21-.34-4.01-.04-.03-.27-.07-.52-.09-.76.74-.28,2.53-.76,4.2.06ZM8.27,9.29c-.06-.32-.12-.67-.17-1.02.72-.27,2.35-.72,3.89.06-.05.35-.11.68-.17,1-1.4-.67-2.81-.33-3.56-.04Z"/>
  </g>
  <g>
    <path d="M42.08,5.12c.59,3.72.81,4.37,1,5.38.16.83.31,1.99.18,2.77-.28,1.65-.71,2.76-2.05,3.42-4.17,2.05-9.45,1.64-10.66.13-.46-.57-.8-1.42-.89-2.25-.09-.88.04-3.11.54-4.2.48-1.04.5-3.09.96-5.09.1-.46,2.8.12,2.8.12.36.12.75-1.92,1.01-2.2.36-.38.29-.28,1.86-.26,1.57.02,1.5-.09,1.86.28.26.27.63,2.3.99,2.19,0,0,2.34-.73,2.41-.28Z"/>
    <path class="uuid-7f3c5842-b880-462b-9a62-828b202f9b6d" d="M38.18,17.46c4.47-1.21,5.01-3.66,5.09-4.55.05.08.17.17.16.28-.02.19,0,.38-.02.69-.04.98-.88,2.48-2.33,3.27-1.86,1.02-4.67,1.95-7.1,1.64-1.55-.19-2.83-1-3.58-1.78-.34-.35-.89-.96-.95-1.61-.03-.3,0-.64,0-.9,0-.08.11-.36.17-.5.05.86,1.21,3.34,4.47,3.84,1.04.16,2.52.04,4.1-.39Z"/>
    <path class="uuid-7f3c5842-b880-462b-9a62-828b202f9b6d" d="M33.91,6.25c.03.37.33,3.6.81,4.63.07.15.22.24.37.24.06,0,.12-.01.17-.04.21-.1.3-.34.2-.55-.08-.18-.16-.46-.23-.79,1.32-.68,2.71-.31,3.39-.04-.08.35-.16.64-.24.83-.1.21,0,.45.2.55.06.03.12.04.17.04.16,0,.3-.09.37-.24.48-1.03.78-4.27.81-4.63.02-.23-.15-.43-.38-.45-.23,0-.43.15-.45.38-.01.13-.03.3-.05.49-.83-.3-2.58-.73-4.29.05-.02-.2-.04-.39-.05-.53-.02-.23-.22-.39-.45-.38-.23.02-.4.22-.38.45ZM39.03,7.09c-.03.24-.06.49-.09.76-.8-.29-2.42-.7-4.01.04-.03-.26-.07-.51-.09-.74,1.67-.82,3.46-.34,4.2-.06ZM35.15,9.33c-.06-.32-.12-.65-.17-1,1.54-.77,3.17-.33,3.89-.06-.05.35-.11.69-.17,1.02-.75-.29-2.16-.63-3.56.04Z"/>
  </g>
</svg>