<?xml version="1.0" encoding="UTF-8"?>
<svg id="uuid-0562b0a5-e15c-4bb3-87d4-0febd52399e3" data-name="Sacos" xmlns="http://www.w3.org/2000/svg" viewBox="0 0 91.4 102.63">
  <defs>
    <style>
      .uuid-a51ab8a6-eeec-4c94-9eaf-87e6d1e199eb {
        fill: #ffb176;
      }

      .uuid-60dbabc9-68e7-4029-884c-c5157b093b13 {
        fill: #444;
      }
    </style>
  </defs>
  <path d="M83.69,56.28c-.41-5.28-2.04-30.04-2.29-32.17-1.72-14.79-6.07-15.09-13.77-15.7-2.04-.16-5.02-1.63-8.17-4.41,0,0,6.51,21.61-10.29,46.16C31.82,32.81,38.34,3.99,38.34,3.99c-1.38,1.86-5.93,4.11-7.8,4.21-8.98.48-13.7,3.83-17.1,21.19-1.15,5.89-5.72,21.94-6.53,25.23-1.6,6.5-1.7,9.99-.76,10.8.01.01,10.48,6.27,15.53,8.93,0,0,.94-2.51,1.83-4.35.89-1.84,2.79-4.07,2.79-4.07-2.14-1.53-9.18-7.03-9.18-7.03,0,0,10.39-28.81,10.57-29.1.17,1.08,1.18,7.56.97,15.31-.22,8.32-.32,12.46-1.14,16.91-.45,2.61-1.72,7.31-2.21,8.99-.68,2.31-1.2,4.29-2.35,7.56-.59,1.68-1.32,4.44-1.91,7.82-.71,4.08-1.19,8.34-1.19,10.24,0,0,11.4,2.07,25.58,2.07,1.82,0,3.24-.43,3.36-1.9.18,1.49.86,1.98,3.65,1.98,14.31,0,25.36-2.34,25.36-2.34-.06-1.78-.46-6.24-1.04-9.78-.85-5.2-1.35-6.44-1.89-8.06-4.91-14.72-5.42-17.21-5.54-33.61-.07-9.44.42-13.16.58-15.08,1.01,5.2,2.69,20.18,3.41,27.03.2,1.91,2.37,16.03,3.65,23.6,1.69.9,8.32.2,8.9-.47-.75-6.89-1.96-21.07-2.17-23.81Z"/>
  <g>
    <g>
      <path class="uuid-60dbabc9-68e7-4029-884c-c5157b093b13" d="M49.16,96.13c-.23,0-.42-.23-.42-.52v-44.94c0-.29.19-.52.42-.52s.42.23.42.52v44.94c0,.29-.19.52-.42.52Z"/>
      <path class="uuid-60dbabc9-68e7-4029-884c-c5157b093b13" d="M63.03,76.23c-.18-.04-.32-.19-.33-.38,0-.02-.12-1.87-.12-3.78,0-.22.17-.41.4-.42,2.05-.1,6.07-.37,8.21-.64.23-.03.44.14.47.37.03.23-.13.44-.36.47-2.02.25-5.72.5-7.87.62.02,1.73.12,3.31.12,3.33.01.23-.16.43-.39.44-.04,0-.08,0-.11,0Z"/>
      <path class="uuid-60dbabc9-68e7-4029-884c-c5157b093b13" d="M34.76,76.23c.18-.04.32-.19.33-.38,0-.02.12-1.87.12-3.78,0-.22-.17-.41-.4-.42-2.05-.1-6.07-.37-8.21-.64-.23-.03-.44.14-.47.37-.03.23.13.44.36.47,2.02.25,5.72.5,7.87.62-.02,1.73-.12,3.31-.12,3.33-.01.23.16.43.39.44.04,0,.08,0,.11,0Z"/>
    </g>
    <path class="uuid-60dbabc9-68e7-4029-884c-c5157b093b13" d="M47.3,61.55c-.61,0-1.1.49-1.1,1.1s.49,1.1,1.1,1.1,1.1-.49,1.1-1.1-.49-1.1-1.1-1.1ZM47.09,74.97c-.61,0-1.1.49-1.1,1.1s.49,1.1,1.1,1.1,1.1-.49,1.1-1.1-.49-1.1-1.1-1.1ZM47.09,86.6c-.61,0-1.1.49-1.1,1.1s.49,1.1,1.1,1.1,1.1-.49,1.1-1.1-.49-1.1-1.1-1.1Z"/>
    <path class="uuid-60dbabc9-68e7-4029-884c-c5157b093b13" d="M63.74,7.04c-2.59-1.31-4.29-3.19-4.29-3.19,0,0,2.62,27.11-10.59,45.53C34.99,30.58,38.29,3.85,38.29,3.85c0,0-1.7,1.88-4.29,3.19-.77,2.8-.37,12.65-.37,12.65l2.97,1.08-2.73,1.36s6.09,22.34,15,29.41c8.29-6.62,15-29.41,15-29.41l-2.73-1.36,2.97-1.08s.4-9.85-.37-12.65Z"/>
  </g>
  <path class="uuid-a51ab8a6-eeec-4c94-9eaf-87e6d1e199eb" d="M44.06,79.58c.96.45,3.96,2.65,6.03,4.59.96.9,1.35,1.27,1.72.93.25-.23.23-.7-.71-2.02-1.28-1.79-5.15-4.87-6.89-5.97-1.74-1.1-7.25-2.62-8.14-3.21,0,0,0,0-.01,0-4.86-3.39-9.32-6.78-13.36-9.83-1.55,2.53-3.65,4.79-4.86,7.5,4.56,2.4,9.65,4.96,14.18,7.67.03.02.04.05.07.07,1.6,1,1.78,2.01,2.79,3.13,1.34,1.48,2.08,1.62,3.9,2.45,3.41,1.55,5.41,3.5,5.96,3.11.3-.21.05-.54-.46-1.09-.76-.83-3.26-2.62-3.46-2.85-.21-.23.11-.59.43-.48.32.11,2.72,1.53,5.14,3.08.71.46,1.54,1.17,1.94.77.43-.43-.51-1.2-.88-1.57-1.28-1.28-3.5-2.87-4.94-3.73-.57-.34-.39-.58.06-.37,1.99.94,4.75,2.95,6.68,4.39.91.68,1.67,1.47,2.22.97.31-.28-.19-1.12-.92-1.85-2.21-2.2-5.69-4.69-6.76-5.27-.61-.34-.39-.73.27-.42Z"/>
  <path d="M14.19,70.16c2.69,1.56,5.5,3.15,7.48,4.2,0,0,.94-2.51,1.83-4.35.89-1.84,2.79-4.07,2.79-4.07-1.08-.77-3.4-2.55-5.43-4.12-2.69,2.31-4.9,5.1-6.65,8.35Z"/>
</svg>