<?xml version="1.0" encoding="UTF-8"?>
<svg id="uuid-6bab1773-b90c-48b8-975a-3fc315faf175" data-name="Capa_2" xmlns="http://www.w3.org/2000/svg" viewBox="0 0 91.4 102.63">
  <defs>
    <style>
      .uuid-a684ca6e-2d39-4b24-a90c-392bf1ec2a43 {
        fill: #bfc0c1;
      }

      .uuid-c2b5a9c9-d419-49b1-99a2-82520da75998 {
        fill: #fff;
      }

      .uuid-2a6e9340-c07c-4736-b0db-6d1d026812ca {
        fill: #e5e5e5;
      }

      .uuid-571cbb9b-3355-4683-837c-383fb909b4ae {
        fill: #ffb176;
      }
    </style>
  </defs>
  <path class="uuid-c2b5a9c9-d419-49b1-99a2-82520da75998" d="M79.69,32.51c-.01-2.92-.42-13.96-4.74-18.45-1.32-1.37-2.37-1.95-9.38-2.84-1.5-.19-7.41-1.48-9.43-5.83,0,0,0,1.24-7.8,3.33-.91.24-1.4,1.11-1.4,1.11,0,0-.53-.79-1.64-1.11-8.05-2.3-7.74-3.19-7.74-3.19-2.87,4.8-7.78,5.54-9.32,5.62-6.64.36-8.92,2.7-10.08,3.9-3.45,3.59-5.4,11.99-6.44,17.37-.31,1.62,4.64,2.09,6.69,2.34,2.24.28,5.33.53,5.72-.69.46-1.48,1.83-2.77,1.91-2.41.41,1.77.81,5.43.56,16.48-.38,16.59-.88,18.11-5.83,33.94-1.09,3.49-1.81,7.09-2.29,10.59,0,0,13.78,4.56,28.18,4.56s28.56-4.79,28.56-4.79c-.62-4.93-1.34-6.94-2.41-10.36-4.95-15.83-5.49-17.34-5.87-33.94-.25-11.05.13-15.13.72-16.9.15-.46.77,1.53.93,2.48.16.9,2.5,1.23,5.71,1.04,2.68-.16,5.37-1.16,5.37-2.26Z"/>
  <g>
    <path class="uuid-a684ca6e-2d39-4b24-a90c-392bf1ec2a43" d="M58.03,8.05c-.17-.16-.44-.15-.6.03-.02.03-2.47,2.66-6.16,4.25-1.15.5-1.39.6-4.09-2.1-.09-.09-.21-.13-.33-.12-.12,0-.24.03-.33.12-2.7,2.7-2.94,2.6-4.09,2.1-3.69-1.59-6.14-4.23-6.16-4.25-.16-.17-.43-.18-.6-.03-.17.16-.18.43-.03.6.1.11,2.59,2.79,6.45,4.46.5.22.9.35,1.3.35.84,0,1.68-.62,3.45-2.37,1.77,1.75,2.62,2.37,3.45,2.37.4,0,.8-.14,1.3-.35,3.86-1.67,6.34-4.35,6.45-4.46.16-.17.15-.44-.03-.6Z"/>
    <path class="uuid-a684ca6e-2d39-4b24-a90c-392bf1ec2a43" d="M60.4,16.61c-.39-.42-.83-.9-.85-1.18-.01-.23.33-.48.64-.7.41-.3.88-.65.72-1.13-.13-.4-.69-.76-1.28-1.13-.39-.25-.87-.56-.95-.74-.05-.13.1-.29.32-.51.24-.23.56-.55.33-.91-.21-.34-.8-.61-1.36-.88-.31-.15-.64-.3-.77-.41-.09-.08-.22-.07-.3.02-.08.09-.07.22.02.3.17.15.49.3.87.48.46.22,1.03.49,1.18.72.04.07-.13.24-.27.38-.24.24-.57.57-.41.97.13.31.58.6,1.11.94.46.29,1.02.65,1.11.91.06.19-.26.42-.57.65-.39.29-.84.61-.81,1.07.02.43.48.92.96,1.44.46.5.99,1.07.94,1.42-.05.37-.75.61-1.42.85-.68.23-1.38.47-1.67.93-.3.47-.21,1.17-.11,1.91.12.85.24,1.73-.3,2.13-.56.42-1.73.23-2.86.05-1-.16-2.04-.33-2.83-.12-.69.18-1.35.75-2.04,1.36-.93.82-1.9,1.66-3.03,1.66-.01,0-.02.01-.03.01-.01,0-.02-.01-.03-.01-1.1,0-1.88-.82-2.64-1.61-.6-.63-1.17-1.23-1.88-1.41-.79-.2-1.83-.04-2.83.12-1.13.18-2.31.37-2.86-.05-.53-.4-.41-1.28-.3-2.13.1-.74.2-1.44-.11-1.91-.29-.45-.99-.69-1.67-.93-.67-.23-1.37-.47-1.42-.85-.05-.35.48-.92.94-1.42.48-.52.94-1.01.96-1.44.02-.46-.42-.78-.81-1.07-.31-.23-.63-.46-.57-.65.09-.26.65-.62,1.11-.91.53-.34.98-.63,1.11-.94.16-.4-.17-.73-.41-.97-.14-.14-.31-.31-.27-.38.15-.23.72-.5,1.18-.72.37-.17.69-.33.87-.48.09-.08.1-.21.02-.3-.08-.09-.21-.1-.3-.02-.13.11-.45.27-.77.41-.56.27-1.15.54-1.36.88-.22.36.1.67.33.91.22.22.37.38.32.51-.08.18-.56.49-.95.74-.59.38-1.15.73-1.28,1.13-.16.48.31.82.72,1.13.31.22.65.48.64.7-.01.28-.46.75-.85,1.18-.55.6-1.12,1.21-1.05,1.76.08.63.87.91,1.7,1.19.61.21,1.24.43,1.45.76.22.34.13.99.04,1.62-.13.93-.27,1.97.46,2.53.7.53,1.91.34,3.18.13.96-.15,1.95-.31,2.66-.13.6.15,1.12.71,1.68,1.29.78.82,1.67,1.74,2.95,1.74.01,0,.02-.01.03-.01.01,0,.02.01.03.01,1.29,0,2.36-.94,3.3-1.76.66-.57,1.28-1.12,1.87-1.27.7-.18,1.7-.02,2.66.13,1.28.2,2.48.4,3.18-.13.73-.55.59-1.6.46-2.53-.09-.63-.18-1.28.04-1.62.21-.33.84-.55,1.45-.76.83-.29,1.62-.56,1.7-1.19.07-.55-.5-1.17-1.05-1.76Z"/>
    <path class="uuid-a684ca6e-2d39-4b24-a90c-392bf1ec2a43" d="M36.35,12.26c-.13.45.26.78.6,1.07.26.22.53.45.52.68-.01.27-.37.73-.69,1.13-.45.57-.92,1.16-.86,1.68.07.61.75.88,1.41,1.15.49.2,1,.4,1.17.71.18.33.11.95.04,1.56-.11.92-.22,1.88.38,2.41.59.52,1.59.34,2.65.14.78-.15,1.59-.29,2.14-.13.47.14.86.67,1.27,1.23.57.79,1.22,1.68,2.3,1.68,0,0,.01,0,.02,0,0,0,.01,0,.02,0,.9,0,1.72-.92,2.45-1.74.47-.53.92-1.04,1.29-1.17.43-.16,1.07-.01,1.69.13.84.19,1.7.39,2.2-.15.48-.53.39-1.47.3-2.39-.06-.61-.12-1.25.03-1.58.14-.31.54-.51.93-.7.54-.27,1.09-.55,1.15-1.15.04-.5-.33-1.09-.69-1.65-.27-.42-.55-.86-.56-1.14,0-.24.2-.46.42-.69.27-.29.58-.61.48-1.04-.09-.38-.48-.74-.85-1.08-.27-.25-.57-.52-.62-.7-.03-.11-.15-.18-.26-.15-.11.03-.18.15-.15.26.08.29.4.59.74.9.31.29.67.62.73.87.04.19-.11.38-.38.65-.26.27-.55.58-.54,1,.01.4.31.86.63,1.36.31.48.66,1.03.63,1.39-.03.36-.46.58-.91.8-.46.23-.93.47-1.13.91-.2.44-.13,1.1-.07,1.79.07.79.16,1.68-.19,2.07-.33.36-1.04.2-1.79.03-.68-.16-1.38-.32-1.93-.11-.47.17-.95.72-1.46,1.29-.67.75-1.42,1.59-2.13,1.59,0,0-.01,0-.02,0,0,0-.01,0-.02,0-.86,0-1.42-.76-1.96-1.5-.45-.62-.88-1.2-1.49-1.39-.66-.2-1.52-.04-2.35.12-.91.17-1.86.35-2.29-.04-.43-.38-.33-1.23-.24-2.04.08-.7.16-1.37-.09-1.82-.24-.44-.82-.67-1.38-.9-.54-.22-1.11-.45-1.14-.8-.04-.35.39-.89.77-1.37.39-.5.77-.97.78-1.37.02-.43-.35-.74-.67-1.02-.31-.27-.51-.45-.46-.63.07-.24.53-.59.9-.87.43-.32.81-.6.91-.9.04-.11-.02-.23-.13-.27-.11-.04-.23.02-.27.13-.06.17-.44.45-.77.7-.47.35-.95.71-1.06,1.09Z"/>
    <path class="uuid-a684ca6e-2d39-4b24-a90c-392bf1ec2a43" d="M47.87,15.06c0,.55-.45,1-1,1s-1-.45-1-1,.45-1,1-1,1,.45,1,1Z"/>
    <path class="uuid-a684ca6e-2d39-4b24-a90c-392bf1ec2a43" d="M47.87,19.98c0,.55-.45,1-1,1s-1-.45-1-1,.45-1,1-1,1,.45,1,1Z"/>
  </g>
  <path class="uuid-571cbb9b-3355-4683-837c-383fb909b4ae" d="M40.65,84.28c1.99.94,4.75,2.95,6.68,4.39.91.68,1.67,1.47,2.22.97.31-.28-.19-1.12-.92-1.85-2.21-2.2-5.69-4.69-6.76-5.27-.61-.34-.39-.73.27-.42.96.45,3.96,2.65,6.03,4.59.96.9,1.35,1.27,1.72.93.25-.23.23-.7-.71-2.02-1.28-1.79-5.15-4.87-6.89-5.97-1.74-1.1-7.25-2.62-8.14-3.21,0,0,0,0-.01,0-3.4-2.37-6.6-4.74-9.6-7-.57,2.28-1.32,4.81-2.3,7.98,2.67,1.41,5.36,2.86,7.87,4.36.03.02.04.05.07.07,1.6,1,1.78,2.01,2.79,3.13,1.34,1.48,2.08,1.62,3.9,2.45,3.41,1.55,5.41,3.5,5.96,3.11.3-.22.05-.54-.46-1.09-.76-.83-3.26-2.62-3.46-2.85-.21-.23.11-.59.43-.48.32.11,2.72,1.53,5.14,3.08.71.46,1.54,1.17,1.94.77.43-.43-.51-1.2-.88-1.57-1.28-1.28-3.5-2.87-4.94-3.73-.57-.34-.39-.58.06-.37Z"/>
  <g>
    <path class="uuid-a684ca6e-2d39-4b24-a90c-392bf1ec2a43" d="M67.38,58.98H26.18c-.07,1-.16,1.93-.26,2.82h41.73c-.1-.89-.19-1.83-.26-2.82Z"/>
    <path class="uuid-2a6e9340-c07c-4736-b0db-6d1d026812ca" d="M42.22,63.68l4.56-1.9,4.56,1.9c.78.22,1.5-.7,1.5-1.92v-2.16c0-1.22-.72-2.13-1.5-1.92l-4.56,1.28-4.56-1.28c-.78-.22-1.5.7-1.5,1.92v2.16c0,1.22.72,2.13,1.5,1.92Z"/>
    <path class="uuid-a684ca6e-2d39-4b24-a90c-392bf1ec2a43" d="M45.62,59.49c0-.2.15-.37.34-.37h1.65c.19,0,.34.16.34.37v1.85c0,.2-.15.37-.34.37h-1.65c-.19,0-.34-.16-.34-.37v-1.85Z"/>
  </g>
</svg>