<?xml version="1.0" encoding="UTF-8"?>
<svg xmlns="http://www.w3.org/2000/svg" xmlns:xlink="http://www.w3.org/1999/xlink" viewBox="0 0 91.4 102.63">
  <defs>
    <style>
      .uuid-7eb70ac7-c10d-425e-8075-592e78e653ec {
        clip-path: url(#uuid-5ebe7898-1803-46e7-affa-a0b2ff9f8e7b);
      }

      .uuid-87fd358b-f950-42be-a77a-f688945f21e1 {
        fill: #0e3151;
      }

      .uuid-a80b0d95-639e-4d53-9c09-01be7b6483e2 {
        fill: none;
      }

      .uuid-1e9d446d-a166-472c-a187-3c8cdec43878 {
        fill: #eae7d6;
      }

      .uuid-9c50f25e-5f97-49a4-bbaf-84fdf7a75f54 {
        fill: #ffb176;
      }

      .uuid-278e8798-3251-4812-8f18-83b9a2b49ccb {
        fill: #7a5841;
      }

      .uuid-1a3055e3-f363-4dd5-a18e-45fb2f57b9a8 {
        fill: #1b466d;
      }

      .uuid-3d81aba1-4107-49e0-9a41-053b635d2070 {
        fill: #60412c;
      }

      .uuid-a521f75f-9b47-49d9-a7ec-7bea9a1adf46 {
        fill: #ebeced;
      }
    </style>
    <clipPath id="uuid-5ebe7898-1803-46e7-affa-a0b2ff9f8e7b">
      <path class="uuid-a80b0d95-639e-4d53-9c09-01be7b6483e2" d="M186.42,12.94c-2.27-2.32-4.04-2.85-9.06-3.14-.09,0-.24,0-.43,0-1.41.76-7.2,4.03-12.24,4.33-2.44-2.33-5.95-3.86-7-3.87-2.74-.04-6.13,3.27-6.87,3.74-.74.46-5.63-.23-12.28-4.19-.05,0-.1,0-.13,0-4.39.37-7.61,1.11-9.73,3.56-2.95,3.41-4.3,10.72-5.08,13.96-.09.36-.4,1.85-.4,1.85.48,1.58,5.89,4.59,11.98,4.45.39-.61,1.46-2.42,1.72-2.76.13-.17.93,6.38.67,17.98-.36,15.97-2.14,19.24-6.54,34.95-1.03,3.7-1.22,6.92-1.58,10.72,0,0,19.31,1.55,28.46,1.55s28.76-1.6,28.76-1.6c-.29-3.71-.58-6.88-1.54-10.6-4.16-16.18-6.27-19.07-6.63-35.04-.26-11.6.62-18.31.69-18.11.15.42.69,2.39.94,2.72.15,0,.87.02.9.03,2.97.07,7.65-1.33,9.19-2.39.92-.63.64-.76.8-1.28-.38-3.4-.92-13.14-4.59-16.88ZM157.83,9.94c-.06,0-.11,0-.17,0,.03,0,.06,0,.08,0,.03,0,.06,0,.08,0Z"/>
    </clipPath>
  </defs>
  <g id="uuid-da4382a0-89a5-4df6-9acb-4c726c567ca2" data-name="Camisas">
    <g class="uuid-7eb70ac7-c10d-425e-8075-592e78e653ec">
      <g>
        <rect class="uuid-a521f75f-9b47-49d9-a7ec-7bea9a1adf46" x="136.32" y="-1.19" width=".98" height="130.29" transform="translate(-5.15 115.47) rotate(-45)"/>
        <rect class="uuid-a521f75f-9b47-49d9-a7ec-7bea9a1adf46" x="134.1" y="1.03" width=".98" height="130.29" transform="translate(-7.37 114.54) rotate(-45)"/>
        <rect class="uuid-a521f75f-9b47-49d9-a7ec-7bea9a1adf46" x="131.89" y="3.24" width=".98" height="130.29" transform="translate(-9.59 113.63) rotate(-45)"/>
        <rect class="uuid-a521f75f-9b47-49d9-a7ec-7bea9a1adf46" x="129.67" y="5.46" width=".98" height="130.29" transform="translate(-11.8 112.72) rotate(-45)"/>
        <rect class="uuid-a521f75f-9b47-49d9-a7ec-7bea9a1adf46" x="127.46" y="7.67" width=".98" height="130.29" transform="translate(-14.01 111.8) rotate(-45)"/>
        <rect class="uuid-a521f75f-9b47-49d9-a7ec-7bea9a1adf46" x="125.24" y="9.89" width=".98" height="130.29" transform="translate(-16.23 110.89) rotate(-45)"/>
        <rect class="uuid-a521f75f-9b47-49d9-a7ec-7bea9a1adf46" x="123.03" y="12.1" width=".98" height="130.29" transform="translate(-18.44 109.97) rotate(-45)"/>
        <rect class="uuid-a521f75f-9b47-49d9-a7ec-7bea9a1adf46" x="120.81" y="14.31" width=".98" height="130.29" transform="translate(-20.65 109.06) rotate(-45)"/>
        <rect class="uuid-a521f75f-9b47-49d9-a7ec-7bea9a1adf46" x="118.6" y="16.53" width=".98" height="130.29" transform="translate(-22.87 108.14) rotate(-45)"/>
        <rect class="uuid-a521f75f-9b47-49d9-a7ec-7bea9a1adf46" x="116.38" y="18.74" width=".98" height="130.29" transform="translate(-25.09 107.21) rotate(-45)"/>
        <rect class="uuid-a521f75f-9b47-49d9-a7ec-7bea9a1adf46" x="114.17" y="20.96" width=".98" height="130.29" transform="translate(-27.3 106.31) rotate(-45.01)"/>
      </g>
    </g>
  </g>
  <g id="uuid-0f771ab2-27b2-49c2-8aa0-8afafaedae0f" data-name="Sacos">
    <g>
      <path class="uuid-1a3055e3-f363-4dd5-a18e-45fb2f57b9a8" d="M83.69,56.21c-.41-5.28-2.04-30.04-2.29-32.17-1.72-14.79-6.07-15.09-13.77-15.7-2.04-.16-5.02-1.63-8.17-4.41,0,0,3.37,8.46-2.35,33.56-2.6,11.41-8.09,20.48-8.09,20.48,0,0-5.93-8.75-8.33-20.48-5.36-26.2-2.35-33.56-2.35-33.56-1.38,1.86-5.93,4.11-7.81,4.21-8.98.48-13.7,3.83-17.1,21.19-1.15,5.89-5.72,21.94-6.53,25.23-1.6,6.5-1.7,9.99-.76,10.8.01.01,10.48,6.27,15.53,8.94,0,0,.94-2.51,1.83-4.35.89-1.84,2.79-4.07,2.79-4.07-2.14-1.53-9.18-7.03-9.18-7.03,0,0,10.39-28.81,10.57-29.1.17,1.08,1.18,7.56.97,15.31-.22,8.32-.32,12.46-1.14,16.91-.45,2.61-1.72,7.31-2.21,8.99-.68,2.31-1.2,4.29-2.35,7.56-.59,1.68-1.32,4.44-1.91,7.82-.71,4.08-1.19,8.34-1.19,10.24,0,0,11.4,2.07,25.58,2.07,1.82,0,3.24-.43,3.36-1.9.18,1.49.86,1.98,3.65,1.98,14.31,0,25.36-2.34,25.36-2.34-.06-1.78-.46-6.24-1.04-9.78-.85-5.2-1.35-6.44-1.89-8.06-4.91-14.72-5.42-17.21-5.54-33.61-.07-9.44.42-13.16.58-15.08,1.01,5.2,2.69,20.18,3.41,27.03.2,1.91,2.37,16.03,3.65,23.6,1.69.9,8.32.2,8.9-.47-.75-6.89-1.96-21.07-2.17-23.81Z"/>
      <g>
        <g>
          <path class="uuid-87fd358b-f950-42be-a77a-f688945f21e1" d="M49.16,96.06c-.23,0-.42-.19-.42-.42v-36.38c0-.23.19-.42.42-.42s.42.19.42.42v36.38c0,.23-.19.42-.42.42Z"/>
          <path class="uuid-87fd358b-f950-42be-a77a-f688945f21e1" d="M63.03,76.16c-.18-.04-.32-.19-.33-.38,0-.02-.12-1.87-.12-3.78,0-.22.17-.41.4-.42,2.05-.1,6.07-.37,8.21-.64.23-.03.44.14.47.37.03.23-.13.44-.36.47-2.02.25-5.72.51-7.87.62.02,1.73.12,3.31.12,3.33.01.23-.16.43-.39.44-.04,0-.08,0-.11,0Z"/>
          <path class="uuid-87fd358b-f950-42be-a77a-f688945f21e1" d="M34.76,76.16c.18-.04.32-.19.33-.38,0-.02.12-1.87.12-3.78,0-.22-.17-.41-.4-.42-2.05-.1-6.07-.37-8.21-.64-.23-.03-.44.14-.47.37-.03.23.13.44.36.47,2.02.25,5.72.51,7.87.62-.02,1.73-.12,3.31-.12,3.33-.01.23.16.43.39.44.04,0,.08,0,.11,0Z"/>
        </g>
        <path class="uuid-87fd358b-f950-42be-a77a-f688945f21e1" d="M47.3,61.47c-.61,0-1.1.49-1.1,1.1s.49,1.1,1.1,1.1,1.1-.49,1.1-1.1-.49-1.1-1.1-1.1ZM47.09,74.9c-.61,0-1.1.49-1.1,1.1s.49,1.1,1.1,1.1,1.1-.49,1.1-1.1-.49-1.1-1.1-1.1ZM47.09,86.52c-.61,0-1.1.49-1.1,1.1s.49,1.1,1.1,1.1,1.1-.49,1.1-1.1-.49-1.1-1.1-1.1Z"/>
        <g>
          <path class="uuid-87fd358b-f950-42be-a77a-f688945f21e1" d="M59.45,3.92s3.1,11.53-2.55,33.03c-4.39,16.69-8.15,21-8.15,21l.27,1.62s6.92-5.82,13.75-30.99c1.33-4.89,2.32-16.62.98-21.46-2.59-1.31-4.29-3.19-4.29-3.19Z"/>
          <path class="uuid-87fd358b-f950-42be-a77a-f688945f21e1" d="M38.34,3.92s-2.87,12.3,2.44,33.03c4.28,16.72,8.53,21.1,8.53,21.1l-.3,1.52s-7.75-7.05-14.1-30.99c-1.31-4.96-2.32-16.62-.98-21.46,2.59-1.31,4.41-3.19,4.41-3.19Z"/>
        </g>
      </g>
      <g>
        <path class="uuid-3d81aba1-4107-49e0-9a41-053b635d2070" d="M51.44,62.99l14.65,12.2c.29.24.71.83.27,1.39-.3.38-1.95,2.23-2.02,2.31l-.07.07-26.51,7-2.93-2.11,16.62-20.86ZM63.9,78.38c.32-.36,1.68-1.89,1.94-2.21.15-.19-.17-.46-.17-.47l-14.13-11.77-15.77,19.79,2.11,1.52,26.02-6.87Z"/>
        <path class="uuid-1e9d446d-a166-472c-a187-3c8cdec43878" d="M35.51,85.09l-.22-1.3,16.19-20.33,14.39,11.98s.58.48.22.93c-.3.37-2.01,2.29-2.01,2.29l-28.57,6.42Z"/>
        <path class="uuid-278e8798-3251-4812-8f18-83b9a2b49ccb" d="M51.76,65.08s13.11,10.88,13.59,11.25c.48.37,1.16.03,1.16.03l-16.53,19.97c-.34.41-.95.47-1.36.13l-13.55-11.22,16.69-20.16Z"/>
        <path class="uuid-3d81aba1-4107-49e0-9a41-053b635d2070" d="M41.57,75.26s-.03.05-.03.08c-.01.29-.05,1.96.64,2.45.82.59,4.47,3.09,5.69,3.92.22.15.52.1.69-.11l1.7-2.24c.17-.22.13-.54-.1-.71-1.24-.93-4.91-3.69-5.36-4.06-.47-.39-.64-1.5-.69-2.07-.01-.12-.16-.17-.24-.07l-2.29,2.81Z"/>
        <path class="uuid-3d81aba1-4107-49e0-9a41-053b635d2070" d="M51.81,65.85s.07.01.1.04l12.64,10.44c.16.14.65.51,1.02.48.09,0,.17.06.17.16,0,.09-.06.17-.16.17-.58.02-1.23-.53-1.25-.56l-12.51-10.33-15.49,18.89c1.26,1.06,11.64,9.76,12.24,10.23.59.46,1.11.46,1.11.46.09,0,.17.07.17.16,0,.09-.07.17-.16.17-.02,0-.63,0-1.32-.54-.64-.51-11.89-9.94-12.37-10.34-.07-.06-.08-.16-.02-.23l15.7-19.15s.07-.06.11-.06c0,0,.01,0,.02,0Z"/>
      </g>
      <path class="uuid-9c50f25e-5f97-49a4-bbaf-84fdf7a75f54" d="M44.06,79.51c.96.45,3.96,2.65,6.03,4.59.96.9,1.35,1.27,1.72.93.25-.23.23-.7-.71-2.02-1.28-1.79-5.15-4.87-6.89-5.97-1.74-1.1-7.25-2.62-8.14-3.21,0,0,0,0-.01,0-4.86-3.39-9.32-6.78-13.36-9.83-1.55,2.53-3.65,4.79-4.86,7.5,4.56,2.4,9.65,4.96,14.18,7.67.03.02.04.05.07.07,1.6,1,1.78,2.01,2.79,3.13,1.34,1.48,2.08,1.62,3.9,2.45,3.41,1.55,5.41,3.5,5.96,3.11.3-.22.05-.54-.46-1.09-.76-.83-3.26-2.62-3.46-2.85-.21-.23.11-.59.43-.48.32.11,2.72,1.53,5.14,3.08.71.46,1.54,1.17,1.94.77.43-.43-.51-1.2-.88-1.57-1.28-1.28-3.5-2.87-4.94-3.73-.57-.34-.39-.58.06-.37,1.99.94,4.75,2.95,6.68,4.39.91.68,1.67,1.47,2.22.97.31-.28-.19-1.12-.92-1.85-2.21-2.2-5.69-4.69-6.76-5.27-.61-.34-.39-.73.27-.42Z"/>
      <path class="uuid-1a3055e3-f363-4dd5-a18e-45fb2f57b9a8" d="M14.19,70.09c2.69,1.56,5.5,3.15,7.48,4.2,0,0,.94-2.51,1.83-4.35.89-1.84,2.79-4.07,2.79-4.07-1.08-.77-3.4-2.55-5.43-4.12-2.69,2.31-4.9,5.1-6.65,8.35Z"/>
    </g>
  </g>
</svg>