<?xml version="1.0" encoding="UTF-8"?>
<svg id="uuid-50c29db2-8633-45f4-a735-8649acf43654" data-name="Capa_2" xmlns="http://www.w3.org/2000/svg" xmlns:xlink="http://www.w3.org/1999/xlink" viewBox="0 0 108.9 374.19">
  <defs>
    <style>
      .uuid-169040e0-3481-4668-9d1c-faa5f6cf8400 {
        fill: #ffb985;
      }

      .uuid-08ccce7f-d178-4968-b8d0-47ef6d203b61 {
        fill: #f9954b;
      }

      .uuid-efcbe8c0-1cfa-4322-9a13-8cd9b5d0a505 {
        fill: #7c4a28;
      }

      .uuid-f8caee82-4168-4d1a-bbfb-9a2cf08af220 {
        fill: #f94f4a;
      }

      .uuid-45491967-331c-4398-b2aa-9efe795791bc {
        fill: #6d4a32;
      }

      .uuid-9ce50665-ea4e-4041-ba39-815373ff8c9a, .uuid-9d35faf9-5417-434f-a391-20ba269a345c {
        fill: #fff;
      }

      .uuid-90bb56df-c41d-4b44-b476-aadf6ec545f4 {
        fill: #ffb176;
      }

      .uuid-86e0f3c6-37d7-411f-a437-500e15cbc834 {
        fill: #966747;
      }

      .uuid-9d35faf9-5417-434f-a391-20ba269a345c {
        opacity: .4;
      }

      .uuid-77fcca88-76a6-4967-bb0b-cd0cbb15a026 {
        fill: #a3c3ce;
      }

      .uuid-af0482e8-00e4-49c3-8a40-fcb8e9409104 {
        clip-path: url(#uuid-fcf031ed-7f39-49f0-a5ef-7f81390b4d28);
      }
    </style>
    <clipPath id="uuid-fcf031ed-7f39-49f0-a5ef-7f81390b4d28">
      <path class="uuid-9d35faf9-5417-434f-a391-20ba269a345c" d="M81.65,179.62c-4.91-15.72-5.48-17.23-5.85-33.72-.04-1.82-.06-3.45-.07-4.92h-39.52c0,1.47-.02,3.1-.07,4.92-.37,16.49-.94,18-5.85,33.72-.67,2.16-1.21,4.35-1.63,6.54,13.25,5.06,36.57,7.47,54.68.33-.43-2.3-.99-4.61-1.69-6.87Z"/>
    </clipPath>
  </defs>
  <ellipse class="uuid-77fcca88-76a6-4967-bb0b-cd0cbb15a026" cx="54.45" cy="357.18" rx="45.7" ry="8.91"/>
  <g>
    <ellipse class="uuid-45491967-331c-4398-b2aa-9efe795791bc" cx="76.08" cy="74.22" rx="18.93" ry="19.57"/>
    <path class="uuid-45491967-331c-4398-b2aa-9efe795791bc" d="M90.94,46.96c-.74,21.07-15.61,38.18-34.87,38.18s-29.15-8.88-33.92-29.33c-3.75-16.11-.32-32.54,10.41-36.59,8.13-11.43,24.34-14.19,38.22-7.6,12.72,6.05,20.75,18.56,20.16,35.34Z"/>
    <g>
      <path class="uuid-90bb56df-c41d-4b44-b476-aadf6ec545f4" d="M33.39,60.12c1.29,5.15-.66,10.07-4.36,11-3.7.93-7.75-2.49-9.04-7.63-1.29-5.15.66-10.07,4.36-11,3.7-.93,7.75,2.49,9.04,7.63Z"/>
      <path class="uuid-08ccce7f-d178-4968-b8d0-47ef6d203b61" d="M31.41,60.06c.86,3.44-.44,6.73-2.92,7.35-2.47.62-5.18-1.66-6.04-5.1-.86-3.44.44-6.73,2.92-7.35,2.47-.62,5.18,1.66,6.04,5.1Z"/>
      <path class="uuid-90bb56df-c41d-4b44-b476-aadf6ec545f4" d="M78.55,60.12c-1.29,5.15.66,10.07,4.36,11,3.7.93,7.75-2.49,9.04-7.63,1.29-5.15-.66-10.07-4.36-11-3.7-.93-7.75,2.49-9.04,7.63Z"/>
      <path class="uuid-08ccce7f-d178-4968-b8d0-47ef6d203b61" d="M80.53,60.06c-.86,3.44.44,6.73,2.92,7.35,2.47.62,5.18-1.66,6.04-5.1.86-3.44-.44-6.73-2.92-7.35-2.47-.62-5.18,1.66-6.04,5.1Z"/>
    </g>
    <g>
      <path class="uuid-08ccce7f-d178-4968-b8d0-47ef6d203b61" d="M92.66,204.64c.29,1.31.91,2.33-.36,6.87-.55,1.95-.62,2.5,0,2.49.39,0,1.58-3.14,1.58-3.14,0,0,1.02-4.97.68-6.65-.34-1.68-2.14-.68-1.89.43Z"/>
      <path class="uuid-08ccce7f-d178-4968-b8d0-47ef6d203b61" d="M92.67,204.39c.52,1.69,1.29,3.29.06,8.97-.57,2.6-.55,3.33.25,3.25.5-.05,1.74-4.27,1.74-4.27,0,0,.82-6.6.2-8.76-.62-2.16-2.68-.61-2.24.81Z"/>
      <path class="uuid-08ccce7f-d178-4968-b8d0-47ef6d203b61" d="M92.7,203.96c.82,1.9,1.93,3.67,1.21,10.44-.33,3.1-.22,3.95.7,3.76.58-.12,1.48-5.19,1.48-5.19,0,0,.12-7.8-.88-10.24-1-2.43-3.2-.37-2.51,1.23Z"/>
    </g>
    <path class="uuid-90bb56df-c41d-4b44-b476-aadf6ec545f4" d="M97.07,210.12c-.03-1.62-.43-5.71-1.32-8.19-.99-2.76-1.5-5.21-1.8-7.08-1.78-15.91-2.7-27.04-3.52-37.55-.41-5.31-2.11-30.08-2.36-32.22-.25-2.14-.93-9.28-4.41-12.81-2.15-2.19-4.54-2.7-9.29-2.97-4.41-.25-8.77-2.25-11.02-8.88-1.86-5.49-1.28-15.36-1.28-15.36h-12.22s.58,9.87-1.28,15.36c-2.25,6.63-6.6,8.63-11.02,8.88-4.75.27-7.14.78-9.29,2.97-.96.98,6.92,16.19,7.05,16.57.59,1.76,1.07,6.08.82,17.06-.37,16.49-.94,18-5.85,33.72-4.07,13.02-3.11,27.59-2.65,32.56,2.06,21.98,7.97,42.84,9.94,55.15.64,4.01,1.77,10.1,1.65,21.75-.14,13.84,1.22,23.04,2.19,32.49,1.64,15.9,1.02,21.51.98,24.74-.03,2.04-.14,4.12-.34,6.9-.18,2.54.42,5.15,1.88,5.6,2.7.83,3.69.51,4.84.3,1.04-.19,1.16-.73,1.57-.74.14,0,.12.22.29.61.44.99,2.8.68,3.08-.48.36-1.53-.32-2.96-.73-4.27-.89-2.83-2.13-5.49-2.38-6.55-.89-3.71-1.19-15.3-.61-23.47.94-13.39,3.42-20.58,3.25-35.05-.07-6.1.12-20.69.35-22.79,1.48-13.57,1.66-34.12,1.13-57.84.37.14.79.2,1.25.2s.88-.06,1.24-.2c-.53,23.72-.36,44.27,1.13,57.84.23,2.1.41,18.37.34,24.47-.17,14.47,2.32,19.99,3.26,33.37.57,8.18.28,19.76-.62,23.47-.25,1.05-1.48,3.71-2.38,6.55-.41,1.31-1.1,2.73-.73,4.27.27,1.15,2.63,1.47,3.08.48.17-.39.15-.61.29-.61.41.01.54.55,1.57.74,1.15.22,2.14.53,4.84-.3,1.46-.45,2.07-3.07,1.88-5.6-.2-2.78-.31-4.86-.34-6.9-.04-3.23-.66-8.84.98-24.74.98-9.44,2.37-16.63,2.24-30.48-.12-11.65.97-19.75,1.61-23.76,1.96-12.31,7.88-33.17,9.94-55.15.46-4.97,1.42-19.53-2.65-32.56-4.91-15.72-5.48-17.23-5.85-33.72-.25-10.98.23-15.3.82-17.06.15-.46.62-.62.77.05,1.12,5.25,2.87,22.14,3.59,29.03.65,6.2,3.99,20.65,6.18,33.82.28,1.68.36,3.57.16,5.07-.14,1.05-.2,2.35,0,4.18.2,1.88,1.39,7.04,1.5,8.17.1,1.12.36,1.97,1.11,1.79,1.11-.28.66-5.21.66-7.23,0-2.25,3.93,2.67,4.39,6.14.68,5.13.53,6.89,1.46,6.92.87.03.68-4.39.64-6.66Z"/>
    <path class="uuid-08ccce7f-d178-4968-b8d0-47ef6d203b61" d="M62.08,85.06h-12.22s.58,9.87-1.28,15.36c-.43,1.26-.93,2.35-1.5,3.3,4.84-2.95,9.99-5.49,15.51-6.47-.91-5.44-.52-12.18-.52-12.18Z"/>
    <path class="uuid-169040e0-3481-4668-9d1c-faa5f6cf8400" d="M55.97,15.87c-17.11,0-32.19,14.7-30.43,34.21,1.22,13.56-1.59,18.09,3.18,27.86,3.86,7.91,16.32,18.34,27.25,18.34s23.39-10.43,27.25-18.34c4.77-9.78,1.96-14.3,3.18-27.86,1.76-19.52-13.32-34.21-30.42-34.21Z"/>
    <g>
      <path class="uuid-9ce50665-ea4e-4041-ba39-815373ff8c9a" d="M64.45,54.8c.12,3.07,3.13,5.37,6.54,5.15,3.41-.22,5.99-2.77,5.82-5.84-.12-2.1-3.13-4.05-6.55-3.82-3.41.22-5.92,1.8-5.82,4.52Z"/>
      <path d="M75.28,57.84c-1.92,1.99-6.65,2.29-8.81.58-.16-.13-.24.29-.12.39,2.25,1.79,7.14,1.46,9.13-.6.11-.11-.05-.52-.2-.36h0Z"/>
      <g>
        <path class="uuid-86e0f3c6-37d7-411f-a437-500e15cbc834" d="M66.4,54.79c.39,2.06,2.38,3.42,4.45,3.03,2.06-.39,3.42-2.38,3.03-4.45-.39-2.06-2.38-3.42-4.45-3.03-2.06.39-3.42,2.38-3.03,4.45Z"/>
        <path d="M68.12,54.46c.21,1.11,1.29,1.85,2.4,1.64,1.11-.21,1.85-1.29,1.64-2.4-.21-1.11-1.29-1.85-2.4-1.64-1.11.21-1.85,1.29-1.64,2.4Z"/>
        <path class="uuid-9ce50665-ea4e-4041-ba39-815373ff8c9a" d="M69.03,54.12c.03.63.53.97.3,1.22-.23.23-.68-.18-.83-.78-.15-.6.09-1.41.4-1.36.38.06.1.22.13.93Z"/>
      </g>
      <path d="M78.8,51.29c-.46.5-1,.77-1.66.87-.79.13-1.49-.33-2.12-.75-.02-.01-.03-.02-.05-.03,1.02-.03,2.01-.36,2.84-1.05.5-.41-.57-1.32-.97-.98-.87.71-1.94,1.09-3.05.94.68-.28,1.26-.72,1.56-1.4.14-.33-1.06-1.03-1.14-.84-.61,1.4-2.44,1.76-3.87,1.78,0,0-.02,0-.03,0-.09,0-.18,0-.27,0-.02,0-.03,0-.04.01-1.35.07-2.8.42-3.64,1.04-2.3,1.69-3.25,4.15-1.38,2.32,1.87-1.83,6.04-2.95,8.65-1.7,1.08.52,1.96,1.42,3.18,1.65,1.19.22,2.32-.15,3.14-1.03.36-.39-.76-1.25-1.14-.84Z"/>
      <path class="uuid-9ce50665-ea4e-4041-ba39-815373ff8c9a" d="M47.49,54.8c-.12,3.07-3.13,5.37-6.54,5.15-3.41-.22-5.99-2.77-5.82-5.84.12-2.1,3.13-4.05,6.55-3.82,3.41.22,5.92,1.8,5.82,4.52Z"/>
      <path d="M36.67,57.84c1.92,1.99,6.65,2.29,8.81.58.16-.13.24.29.12.39-2.25,1.79-7.14,1.46-9.13-.6-.11-.11.05-.52.2-.36h0Z"/>
      <g>
        <path class="uuid-86e0f3c6-37d7-411f-a437-500e15cbc834" d="M45.55,54.79c-.39,2.06-2.38,3.42-4.45,3.03-2.06-.39-3.42-2.38-3.03-4.45.39-2.06,2.38-3.42,4.45-3.03,2.06.39,3.42,2.38,3.03,4.45Z"/>
        <path d="M43.83,54.46c-.21,1.11-1.29,1.85-2.4,1.64s-1.85-1.29-1.64-2.4c.21-1.11,1.29-1.85,2.4-1.64,1.11.21,1.85,1.29,1.64,2.4Z"/>
        <path class="uuid-9ce50665-ea4e-4041-ba39-815373ff8c9a" d="M42.92,54.12c-.03.63-.53.97-.3,1.22.23.23.68-.18.83-.78s-.09-1.41-.4-1.36c-.38.06-.1.22-.13.93Z"/>
      </g>
      <path d="M33.15,51.29c.46.5,1,.77,1.66.87.79.13,1.49-.33,2.12-.75.02-.01.03-.02.05-.03-1.02-.03-2.01-.36-2.84-1.05-.5-.41.57-1.32.97-.98.87.71,1.94,1.09,3.05.94-.68-.28-1.26-.72-1.56-1.4-.14-.33,1.06-1.03,1.14-.84.61,1.4,2.44,1.76,3.87,1.78,0,0,.02,0,.03,0,.09,0,.18,0,.27,0,.02,0,.03,0,.04.01,1.35.07,2.8.42,3.64,1.04,2.3,1.69,3.25,4.15,1.38,2.32-1.87-1.83-6.04-2.95-8.65-1.7-1.08.52-1.96,1.42-3.18,1.65-1.19.22-2.32-.15-3.14-1.03-.36-.39.76-1.25,1.14-.84Z"/>
    </g>
    <path class="uuid-08ccce7f-d178-4968-b8d0-47ef6d203b61" d="M60.6,70.98c-.07-.19-.28-.29-.46-.22-.19.07-.29.28-.22.46.13.37.05.79-.19,1-.22.19-.56.17-.96-.04-.99-.55-1.71-.12-1.74-.1-.05.03-.1.08-.13.14-.01.02-.3.52-.92.56-.62-.04-.9-.54-.92-.56-.03-.06-.08-.11-.13-.14-.03-.02-.76-.45-1.74.1-.39.22-.73.23-.96.04-.24-.21-.33-.63-.19-1,.07-.19-.03-.4-.22-.46-.19-.07-.4.03-.46.22-.23.65-.07,1.39.41,1.8.46.39,1.11.41,1.78.04.47-.26.82-.19.95-.14.16.23.57.72,1.3.82.03.01.07.02.11.02.03,0,.05,0,.08,0,.03,0,.05,0,.08,0,.04,0,.07-.01.11-.02.73-.1,1.14-.59,1.3-.81.14-.05.49-.12.95.14.67.37,1.32.36,1.78-.04.47-.4.64-1.14.41-1.8Z"/>
    <g>
      <path class="uuid-f8caee82-4168-4d1a-bbfb-9a2cf08af220" d="M69.75,76.46c-.19-.29-.63-.19-.99-.04-2.33.97-6.21,2.14-8.65,1.8-1.47-.21-2.65.04-3.39.5-.47.29-1.05.2-1.53-.07-.74-.41-1.87-.59-3.28-.43-2.65.3-6.38-.81-8.74-1.8-.36-.15-.79-.25-.99.04-.19.29-.07.49.28.65.71.32,1.39.6,2.07.87.21.08.39.21.54.38,1.12,1.27,3.57,5.86,10.78,5.86s9.87-4.59,10.99-5.86c.15-.17.33-.29.54-.38.68-.26,1.36-.55,2.07-.87.35-.16.48-.36.28-.65Z"/>
      <path class="uuid-9ce50665-ea4e-4041-ba39-815373ff8c9a" d="M55.97,79.73c-3.02,0-5.79.15-7.94-.84,1.94,1.43,4.77,2.33,7.94,2.33s6.01-.9,7.94-2.33c-2.15.99-4.92.84-7.94.84Z"/>
    </g>
    <g>
      <path class="uuid-efcbe8c0-1cfa-4322-9a13-8cd9b5d0a505" d="M65.11,45.95c4.11-2.55,9.36-2.25,13.05.93.63.54.62-.52.23-.86-3.92-3.38-9.47-3.92-13.9-1.18-.43.27.2,1.36.62,1.11h0Z"/>
      <path class="uuid-efcbe8c0-1cfa-4322-9a13-8cd9b5d0a505" d="M46.83,45.95c-4.11-2.55-9.36-2.25-13.05.93-.63.54-.62-.52-.23-.86,3.92-3.38,9.47-3.92,13.9-1.18.43.27-.2,1.36-.62,1.11h0Z"/>
    </g>
    <g>
      <path class="uuid-9ce50665-ea4e-4041-ba39-815373ff8c9a" d="M55.97,191.99c-10.06,0-19.55-.82-27.91-2.25-.14,1-.26,1.98-.36,2.96,18.58,6.11,25.97,14.69,27.02,15.75.37.14.79.2,1.25.2h0s0,0,0,0h0c.46,0,.88-.06,1.25-.2,1.05-1.06,12.49-11.93,26.94-16.46-.08-.75-.18-1.5-.29-2.25-8.36,1.44-17.84,2.25-27.91,2.25Z"/>
      <path class="uuid-9ce50665-ea4e-4041-ba39-815373ff8c9a" d="M75.73,140.48c-.04-3.92.08-6.54.3-8.3.02-.21.04-.39.06-.58-.68-.26-1.36-.46-2.03-.6v-21.72c-.5-.04-.99-.1-1.49-.19v21.7c-9.36-.78-16.61,9.4-16.61,9.4,0,0-7.08-10.61-16.61-9.52v-21.58c-.49.09-.99.15-1.49.19v21.65c-.67.16-1.34.38-2.03.67.04.39.09.82.12,1.29.15,1.52.24,3.56.23,6.35,0,1.26,0,2.66-.02,4.22,5.21.47,35.45.69,39.56,0-.01-1.05-.02-2.05-.02-2.97Z"/>
      <g>
        <path class="uuid-9d35faf9-5417-434f-a391-20ba269a345c" d="M81.65,179.62c-4.91-15.72-5.48-17.23-5.85-33.72-.04-1.82-.06-3.45-.07-4.92h-39.52c0,1.47-.02,3.1-.07,4.92-.37,16.49-.94,18-5.85,33.72-.67,2.16-1.21,4.35-1.63,6.54,13.25,5.06,36.57,7.47,54.68.33-.43-2.3-.99-4.61-1.69-6.87Z"/>
        <g class="uuid-af0482e8-00e4-49c3-8a40-fcb8e9409104">
          <g>
            <circle class="uuid-9ce50665-ea4e-4041-ba39-815373ff8c9a" cx="24.89" cy="112.86" r=".59"/>
            <circle class="uuid-9ce50665-ea4e-4041-ba39-815373ff8c9a" cx="33.35" cy="112.86" r=".59"/>
            <circle class="uuid-9ce50665-ea4e-4041-ba39-815373ff8c9a" cx="41.55" cy="112.86" r=".59"/>
            <path class="uuid-9ce50665-ea4e-4041-ba39-815373ff8c9a" d="M50.33,112.86c0,.33-.26.59-.59.59s-.59-.26-.59-.59.26-.59.59-.59.59.26.59.59Z"/>
            <path class="uuid-9ce50665-ea4e-4041-ba39-815373ff8c9a" d="M58.53,112.86c0,.33-.26.59-.59.59s-.59-.26-.59-.59.26-.59.59-.59.59.26.59.59Z"/>
            <circle class="uuid-9ce50665-ea4e-4041-ba39-815373ff8c9a" cx="66.14" cy="112.86" r=".59"/>
            <circle class="uuid-9ce50665-ea4e-4041-ba39-815373ff8c9a" cx="74.33" cy="112.86" r=".59"/>
            <circle class="uuid-9ce50665-ea4e-4041-ba39-815373ff8c9a" cx="82.53" cy="112.86" r=".59"/>
            <path class="uuid-9ce50665-ea4e-4041-ba39-815373ff8c9a" d="M29.71,117.45c0,.33-.26.59-.59.59s-.59-.26-.59-.59.26-.59.59-.59.59.26.59.59Z"/>
            <path class="uuid-9ce50665-ea4e-4041-ba39-815373ff8c9a" d="M38.18,117.45c0,.33-.26.59-.59.59s-.59-.26-.59-.59.26-.59.59-.59.59.26.59.59Z"/>
            <path class="uuid-9ce50665-ea4e-4041-ba39-815373ff8c9a" d="M46.37,117.45c0,.33-.26.59-.59.59s-.59-.26-.59-.59.26-.59.59-.59.59.26.59.59Z"/>
            <circle class="uuid-9ce50665-ea4e-4041-ba39-815373ff8c9a" cx="53.98" cy="117.45" r=".59"/>
            <circle class="uuid-9ce50665-ea4e-4041-ba39-815373ff8c9a" cx="62.17" cy="117.45" r=".59"/>
            <path class="uuid-9ce50665-ea4e-4041-ba39-815373ff8c9a" d="M70.96,117.45c0,.33-.26.59-.59.59s-.59-.26-.59-.59.26-.59.59-.59.59.26.59.59Z"/>
            <path class="uuid-9ce50665-ea4e-4041-ba39-815373ff8c9a" d="M79.16,117.45c0,.33-.26.59-.59.59s-.59-.26-.59-.59.26-.59.59-.59.59.26.59.59Z"/>
            <path class="uuid-9ce50665-ea4e-4041-ba39-815373ff8c9a" d="M87.35,117.45c0,.33-.26.59-.59.59s-.59-.26-.59-.59.26-.59.59-.59.59.26.59.59Z"/>
            <circle class="uuid-9ce50665-ea4e-4041-ba39-815373ff8c9a" cx="24.89" cy="121.85" r=".59"/>
            <circle class="uuid-9ce50665-ea4e-4041-ba39-815373ff8c9a" cx="33.35" cy="121.85" r=".59"/>
            <circle class="uuid-9ce50665-ea4e-4041-ba39-815373ff8c9a" cx="41.55" cy="121.85" r=".59"/>
            <path class="uuid-9ce50665-ea4e-4041-ba39-815373ff8c9a" d="M50.33,121.85c0,.33-.26.59-.59.59s-.59-.26-.59-.59.26-.59.59-.59.59.26.59.59Z"/>
            <path class="uuid-9ce50665-ea4e-4041-ba39-815373ff8c9a" d="M58.53,121.85c0,.33-.26.59-.59.59s-.59-.26-.59-.59.26-.59.59-.59.59.26.59.59Z"/>
            <circle class="uuid-9ce50665-ea4e-4041-ba39-815373ff8c9a" cx="66.14" cy="121.85" r=".59"/>
            <circle class="uuid-9ce50665-ea4e-4041-ba39-815373ff8c9a" cx="74.33" cy="121.85" r=".59"/>
            <circle class="uuid-9ce50665-ea4e-4041-ba39-815373ff8c9a" cx="82.53" cy="121.85" r=".59"/>
            <path class="uuid-9ce50665-ea4e-4041-ba39-815373ff8c9a" d="M29.71,126.44c0,.33-.26.59-.59.59s-.59-.26-.59-.59.26-.59.59-.59.59.26.59.59Z"/>
            <path class="uuid-9ce50665-ea4e-4041-ba39-815373ff8c9a" d="M38.18,126.44c0,.33-.26.59-.59.59s-.59-.26-.59-.59.26-.59.59-.59.59.26.59.59Z"/>
            <path class="uuid-9ce50665-ea4e-4041-ba39-815373ff8c9a" d="M46.37,126.44c0,.33-.26.59-.59.59s-.59-.26-.59-.59.26-.59.59-.59.59.26.59.59Z"/>
            <path class="uuid-9ce50665-ea4e-4041-ba39-815373ff8c9a" d="M54.57,126.44c0,.33-.26.59-.59.59s-.59-.26-.59-.59.26-.59.59-.59.59.26.59.59Z"/>
            <path class="uuid-9ce50665-ea4e-4041-ba39-815373ff8c9a" d="M62.76,126.44c0,.33-.26.59-.59.59s-.59-.26-.59-.59.26-.59.59-.59.59.26.59.59Z"/>
            <path class="uuid-9ce50665-ea4e-4041-ba39-815373ff8c9a" d="M70.96,126.44c0,.33-.26.59-.59.59s-.59-.26-.59-.59.26-.59.59-.59.59.26.59.59Z"/>
            <path class="uuid-9ce50665-ea4e-4041-ba39-815373ff8c9a" d="M79.16,126.44c0,.33-.26.59-.59.59s-.59-.26-.59-.59.26-.59.59-.59.59.26.59.59Z"/>
            <path class="uuid-9ce50665-ea4e-4041-ba39-815373ff8c9a" d="M87.35,126.44c0,.33-.26.59-.59.59s-.59-.26-.59-.59.26-.59.59-.59.59.26.59.59Z"/>
            <circle class="uuid-9ce50665-ea4e-4041-ba39-815373ff8c9a" cx="24.89" cy="130.83" r=".59"/>
            <circle class="uuid-9ce50665-ea4e-4041-ba39-815373ff8c9a" cx="33.35" cy="130.83" r=".59"/>
            <circle class="uuid-9ce50665-ea4e-4041-ba39-815373ff8c9a" cx="41.55" cy="130.83" r=".59"/>
            <path class="uuid-9ce50665-ea4e-4041-ba39-815373ff8c9a" d="M50.33,130.83c0,.33-.26.59-.59.59s-.59-.26-.59-.59.26-.59.59-.59.59.26.59.59Z"/>
            <path class="uuid-9ce50665-ea4e-4041-ba39-815373ff8c9a" d="M58.53,130.83c0,.33-.26.59-.59.59s-.59-.26-.59-.59.26-.59.59-.59.59.26.59.59Z"/>
            <circle class="uuid-9ce50665-ea4e-4041-ba39-815373ff8c9a" cx="66.14" cy="130.83" r=".59"/>
            <circle class="uuid-9ce50665-ea4e-4041-ba39-815373ff8c9a" cx="74.33" cy="130.83" r=".59"/>
            <circle class="uuid-9ce50665-ea4e-4041-ba39-815373ff8c9a" cx="82.53" cy="130.83" r=".59"/>
            <path class="uuid-9ce50665-ea4e-4041-ba39-815373ff8c9a" d="M29.71,135.43c0,.33-.26.59-.59.59s-.59-.26-.59-.59.26-.59.59-.59.59.26.59.59Z"/>
            <path class="uuid-9ce50665-ea4e-4041-ba39-815373ff8c9a" d="M38.18,135.43c0,.33-.26.59-.59.59s-.59-.26-.59-.59.26-.59.59-.59.59.26.59.59Z"/>
            <path class="uuid-9ce50665-ea4e-4041-ba39-815373ff8c9a" d="M46.37,135.43c0,.33-.26.59-.59.59s-.59-.26-.59-.59.26-.59.59-.59.59.26.59.59Z"/>
            <path class="uuid-9ce50665-ea4e-4041-ba39-815373ff8c9a" d="M54.57,135.43c0,.33-.26.59-.59.59s-.59-.26-.59-.59.26-.59.59-.59.59.26.59.59Z"/>
            <path class="uuid-9ce50665-ea4e-4041-ba39-815373ff8c9a" d="M62.76,135.43c0,.33-.26.59-.59.59s-.59-.26-.59-.59.26-.59.59-.59.59.26.59.59Z"/>
            <path class="uuid-9ce50665-ea4e-4041-ba39-815373ff8c9a" d="M70.96,135.43c0,.33-.26.59-.59.59s-.59-.26-.59-.59.26-.59.59-.59.59.26.59.59Z"/>
            <path class="uuid-9ce50665-ea4e-4041-ba39-815373ff8c9a" d="M79.16,135.43c0,.33-.26.59-.59.59s-.59-.26-.59-.59.26-.59.59-.59.59.26.59.59Z"/>
            <path class="uuid-9ce50665-ea4e-4041-ba39-815373ff8c9a" d="M87.35,135.43c0,.33-.26.59-.59.59s-.59-.26-.59-.59.26-.59.59-.59.59.26.59.59Z"/>
            <path class="uuid-9ce50665-ea4e-4041-ba39-815373ff8c9a" d="M25.48,139.82c0,.33-.26.59-.59.59s-.59-.26-.59-.59.26-.59.59-.59.59.26.59.59Z"/>
            <path class="uuid-9ce50665-ea4e-4041-ba39-815373ff8c9a" d="M33.94,139.82c0,.33-.26.59-.59.59s-.59-.26-.59-.59.26-.59.59-.59.59.26.59.59Z"/>
            <path class="uuid-9ce50665-ea4e-4041-ba39-815373ff8c9a" d="M42.14,139.82c0,.33-.26.59-.59.59s-.59-.26-.59-.59.26-.59.59-.59.59.26.59.59Z"/>
            <path class="uuid-9ce50665-ea4e-4041-ba39-815373ff8c9a" d="M50.33,139.82c0,.33-.26.59-.59.59s-.59-.26-.59-.59.26-.59.59-.59.59.26.59.59Z"/>
            <path class="uuid-9ce50665-ea4e-4041-ba39-815373ff8c9a" d="M58.53,139.82c0,.33-.26.59-.59.59s-.59-.26-.59-.59.26-.59.59-.59.59.26.59.59Z"/>
            <path class="uuid-9ce50665-ea4e-4041-ba39-815373ff8c9a" d="M66.73,139.82c0,.33-.26.59-.59.59s-.59-.26-.59-.59.26-.59.59-.59.59.26.59.59Z"/>
            <path class="uuid-9ce50665-ea4e-4041-ba39-815373ff8c9a" d="M74.92,139.82c0,.33-.26.59-.59.59s-.59-.26-.59-.59.26-.59.59-.59.59.26.59.59Z"/>
            <path class="uuid-9ce50665-ea4e-4041-ba39-815373ff8c9a" d="M83.12,139.82c0,.33-.26.59-.59.59s-.59-.26-.59-.59.26-.59.59-.59.59.26.59.59Z"/>
            <path class="uuid-9ce50665-ea4e-4041-ba39-815373ff8c9a" d="M29.71,144.41c0,.33-.26.59-.59.59s-.59-.26-.59-.59.26-.59.59-.59.59.26.59.59Z"/>
            <path class="uuid-9ce50665-ea4e-4041-ba39-815373ff8c9a" d="M38.18,144.41c0,.33-.26.59-.59.59s-.59-.26-.59-.59.26-.59.59-.59.59.26.59.59Z"/>
            <path class="uuid-9ce50665-ea4e-4041-ba39-815373ff8c9a" d="M46.37,144.41c0,.33-.26.59-.59.59s-.59-.26-.59-.59.26-.59.59-.59.59.26.59.59Z"/>
            <path class="uuid-9ce50665-ea4e-4041-ba39-815373ff8c9a" d="M54.57,144.41c0,.33-.26.59-.59.59s-.59-.26-.59-.59.26-.59.59-.59.59.26.59.59Z"/>
            <path class="uuid-9ce50665-ea4e-4041-ba39-815373ff8c9a" d="M62.76,144.41c0,.33-.26.59-.59.59s-.59-.26-.59-.59.26-.59.59-.59.59.26.59.59Z"/>
            <path class="uuid-9ce50665-ea4e-4041-ba39-815373ff8c9a" d="M70.96,144.41c0,.33-.26.59-.59.59s-.59-.26-.59-.59.26-.59.59-.59.59.26.59.59Z"/>
            <path class="uuid-9ce50665-ea4e-4041-ba39-815373ff8c9a" d="M79.16,144.41c0,.33-.26.59-.59.59s-.59-.26-.59-.59.26-.59.59-.59.59.26.59.59Z"/>
            <path class="uuid-9ce50665-ea4e-4041-ba39-815373ff8c9a" d="M87.35,144.41c0,.33-.26.59-.59.59s-.59-.26-.59-.59.26-.59.59-.59.59.26.59.59Z"/>
            <path class="uuid-9ce50665-ea4e-4041-ba39-815373ff8c9a" d="M25.48,148.81c0,.33-.26.59-.59.59s-.59-.26-.59-.59.26-.59.59-.59.59.26.59.59Z"/>
            <path class="uuid-9ce50665-ea4e-4041-ba39-815373ff8c9a" d="M33.94,148.81c0,.33-.26.59-.59.59s-.59-.26-.59-.59.26-.59.59-.59.59.26.59.59Z"/>
            <path class="uuid-9ce50665-ea4e-4041-ba39-815373ff8c9a" d="M42.14,148.81c0,.33-.26.59-.59.59s-.59-.26-.59-.59.26-.59.59-.59.59.26.59.59Z"/>
            <path class="uuid-9ce50665-ea4e-4041-ba39-815373ff8c9a" d="M50.33,148.81c0,.33-.26.59-.59.59s-.59-.26-.59-.59.26-.59.59-.59.59.26.59.59Z"/>
            <path class="uuid-9ce50665-ea4e-4041-ba39-815373ff8c9a" d="M58.53,148.81c0,.33-.26.59-.59.59s-.59-.26-.59-.59.26-.59.59-.59.59.26.59.59Z"/>
            <path class="uuid-9ce50665-ea4e-4041-ba39-815373ff8c9a" d="M66.73,148.81c0,.33-.26.59-.59.59s-.59-.26-.59-.59.26-.59.59-.59.59.26.59.59Z"/>
            <path class="uuid-9ce50665-ea4e-4041-ba39-815373ff8c9a" d="M74.92,148.81c0,.33-.26.59-.59.59s-.59-.26-.59-.59.26-.59.59-.59.59.26.59.59Z"/>
            <path class="uuid-9ce50665-ea4e-4041-ba39-815373ff8c9a" d="M83.12,148.81c0,.33-.26.59-.59.59s-.59-.26-.59-.59.26-.59.59-.59.59.26.59.59Z"/>
            <path class="uuid-9ce50665-ea4e-4041-ba39-815373ff8c9a" d="M29.71,153.4c0,.33-.26.59-.59.59s-.59-.26-.59-.59.26-.59.59-.59.59.26.59.59Z"/>
            <path class="uuid-9ce50665-ea4e-4041-ba39-815373ff8c9a" d="M38.18,153.4c0,.33-.26.59-.59.59s-.59-.26-.59-.59.26-.59.59-.59.59.26.59.59Z"/>
            <path class="uuid-9ce50665-ea4e-4041-ba39-815373ff8c9a" d="M46.37,153.4c0,.33-.26.59-.59.59s-.59-.26-.59-.59.26-.59.59-.59.59.26.59.59Z"/>
            <path class="uuid-9ce50665-ea4e-4041-ba39-815373ff8c9a" d="M54.57,153.4c0,.33-.26.59-.59.59s-.59-.26-.59-.59.26-.59.59-.59.59.26.59.59Z"/>
            <path class="uuid-9ce50665-ea4e-4041-ba39-815373ff8c9a" d="M62.76,153.4c0,.33-.26.59-.59.59s-.59-.26-.59-.59.26-.59.59-.59.59.26.59.59Z"/>
            <path class="uuid-9ce50665-ea4e-4041-ba39-815373ff8c9a" d="M70.96,153.4c0,.33-.26.59-.59.59s-.59-.26-.59-.59.26-.59.59-.59.59.26.59.59Z"/>
            <path class="uuid-9ce50665-ea4e-4041-ba39-815373ff8c9a" d="M79.16,153.4c0,.33-.26.59-.59.59s-.59-.26-.59-.59.26-.59.59-.59.59.26.59.59Z"/>
            <path class="uuid-9ce50665-ea4e-4041-ba39-815373ff8c9a" d="M87.35,153.4c0,.33-.26.59-.59.59s-.59-.26-.59-.59.26-.59.59-.59.59.26.59.59Z"/>
            <path class="uuid-9ce50665-ea4e-4041-ba39-815373ff8c9a" d="M25.48,157.8c0,.33-.26.59-.59.59s-.59-.26-.59-.59.26-.59.59-.59.59.26.59.59Z"/>
            <path class="uuid-9ce50665-ea4e-4041-ba39-815373ff8c9a" d="M33.94,157.8c0,.33-.26.59-.59.59s-.59-.26-.59-.59.26-.59.59-.59.59.26.59.59Z"/>
            <path class="uuid-9ce50665-ea4e-4041-ba39-815373ff8c9a" d="M42.14,157.8c0,.33-.26.59-.59.59s-.59-.26-.59-.59.26-.59.59-.59.59.26.59.59Z"/>
            <path class="uuid-9ce50665-ea4e-4041-ba39-815373ff8c9a" d="M50.33,157.8c0,.33-.26.59-.59.59s-.59-.26-.59-.59.26-.59.59-.59.59.26.59.59Z"/>
            <path class="uuid-9ce50665-ea4e-4041-ba39-815373ff8c9a" d="M58.53,157.8c0,.33-.26.59-.59.59s-.59-.26-.59-.59.26-.59.59-.59.59.26.59.59Z"/>
            <path class="uuid-9ce50665-ea4e-4041-ba39-815373ff8c9a" d="M66.73,157.8c0,.33-.26.59-.59.59s-.59-.26-.59-.59.26-.59.59-.59.59.26.59.59Z"/>
            <path class="uuid-9ce50665-ea4e-4041-ba39-815373ff8c9a" d="M74.92,157.8c0,.33-.26.59-.59.59s-.59-.26-.59-.59.26-.59.59-.59.59.26.59.59Z"/>
            <path class="uuid-9ce50665-ea4e-4041-ba39-815373ff8c9a" d="M83.12,157.8c0,.33-.26.59-.59.59s-.59-.26-.59-.59.26-.59.59-.59.59.26.59.59Z"/>
            <path class="uuid-9ce50665-ea4e-4041-ba39-815373ff8c9a" d="M29.71,162.39c0,.33-.26.59-.59.59s-.59-.26-.59-.59.26-.59.59-.59.59.26.59.59Z"/>
            <path class="uuid-9ce50665-ea4e-4041-ba39-815373ff8c9a" d="M38.18,162.39c0,.33-.26.59-.59.59s-.59-.26-.59-.59.26-.59.59-.59.59.26.59.59Z"/>
            <path class="uuid-9ce50665-ea4e-4041-ba39-815373ff8c9a" d="M46.37,162.39c0,.33-.26.59-.59.59s-.59-.26-.59-.59.26-.59.59-.59.59.26.59.59Z"/>
            <circle class="uuid-9ce50665-ea4e-4041-ba39-815373ff8c9a" cx="53.98" cy="162.39" r=".59"/>
            <circle class="uuid-9ce50665-ea4e-4041-ba39-815373ff8c9a" cx="62.17" cy="162.39" r=".59"/>
            <path class="uuid-9ce50665-ea4e-4041-ba39-815373ff8c9a" d="M70.96,162.39c0,.33-.26.59-.59.59s-.59-.26-.59-.59.26-.59.59-.59.59.26.59.59Z"/>
            <path class="uuid-9ce50665-ea4e-4041-ba39-815373ff8c9a" d="M79.16,162.39c0,.33-.26.59-.59.59s-.59-.26-.59-.59.26-.59.59-.59.59.26.59.59Z"/>
            <path class="uuid-9ce50665-ea4e-4041-ba39-815373ff8c9a" d="M87.35,162.39c0,.33-.26.59-.59.59s-.59-.26-.59-.59.26-.59.59-.59.59.26.59.59Z"/>
            <path class="uuid-9ce50665-ea4e-4041-ba39-815373ff8c9a" d="M25.48,166.79c0,.33-.26.59-.59.59s-.59-.26-.59-.59.26-.59.59-.59.59.26.59.59Z"/>
            <path class="uuid-9ce50665-ea4e-4041-ba39-815373ff8c9a" d="M33.94,166.79c0,.33-.26.59-.59.59s-.59-.26-.59-.59.26-.59.59-.59.59.26.59.59Z"/>
            <path class="uuid-9ce50665-ea4e-4041-ba39-815373ff8c9a" d="M42.14,166.79c0,.33-.26.59-.59.59s-.59-.26-.59-.59.26-.59.59-.59.59.26.59.59Z"/>
            <path class="uuid-9ce50665-ea4e-4041-ba39-815373ff8c9a" d="M50.33,166.79c0,.33-.26.59-.59.59s-.59-.26-.59-.59.26-.59.59-.59.59.26.59.59Z"/>
            <path class="uuid-9ce50665-ea4e-4041-ba39-815373ff8c9a" d="M58.53,166.79c0,.33-.26.59-.59.59s-.59-.26-.59-.59.26-.59.59-.59.59.26.59.59Z"/>
            <path class="uuid-9ce50665-ea4e-4041-ba39-815373ff8c9a" d="M66.73,166.79c0,.33-.26.59-.59.59s-.59-.26-.59-.59.26-.59.59-.59.59.26.59.59Z"/>
            <path class="uuid-9ce50665-ea4e-4041-ba39-815373ff8c9a" d="M74.92,166.79c0,.33-.26.59-.59.59s-.59-.26-.59-.59.26-.59.59-.59.59.26.59.59Z"/>
            <path class="uuid-9ce50665-ea4e-4041-ba39-815373ff8c9a" d="M83.12,166.79c0,.33-.26.59-.59.59s-.59-.26-.59-.59.26-.59.59-.59.59.26.59.59Z"/>
            <path class="uuid-9ce50665-ea4e-4041-ba39-815373ff8c9a" d="M29.71,171.38c0,.33-.26.59-.59.59s-.59-.26-.59-.59.26-.59.59-.59.59.26.59.59Z"/>
            <path class="uuid-9ce50665-ea4e-4041-ba39-815373ff8c9a" d="M38.18,171.38c0,.33-.26.59-.59.59s-.59-.26-.59-.59.26-.59.59-.59.59.26.59.59Z"/>
            <path class="uuid-9ce50665-ea4e-4041-ba39-815373ff8c9a" d="M46.37,171.38c0,.33-.26.59-.59.59s-.59-.26-.59-.59.26-.59.59-.59.59.26.59.59Z"/>
            <circle class="uuid-9ce50665-ea4e-4041-ba39-815373ff8c9a" cx="53.98" cy="171.38" r=".59"/>
            <circle class="uuid-9ce50665-ea4e-4041-ba39-815373ff8c9a" cx="62.17" cy="171.38" r=".59"/>
            <path class="uuid-9ce50665-ea4e-4041-ba39-815373ff8c9a" d="M70.96,171.38c0,.33-.26.59-.59.59s-.59-.26-.59-.59.26-.59.59-.59.59.26.59.59Z"/>
            <path class="uuid-9ce50665-ea4e-4041-ba39-815373ff8c9a" d="M79.16,171.38c0,.33-.26.59-.59.59s-.59-.26-.59-.59.26-.59.59-.59.59.26.59.59Z"/>
            <path class="uuid-9ce50665-ea4e-4041-ba39-815373ff8c9a" d="M87.35,171.38c0,.33-.26.59-.59.59s-.59-.26-.59-.59.26-.59.59-.59.59.26.59.59Z"/>
            <circle class="uuid-9ce50665-ea4e-4041-ba39-815373ff8c9a" cx="24.89" cy="175.77" r=".59"/>
            <circle class="uuid-9ce50665-ea4e-4041-ba39-815373ff8c9a" cx="33.35" cy="175.77" r=".59"/>
            <circle class="uuid-9ce50665-ea4e-4041-ba39-815373ff8c9a" cx="41.55" cy="175.77" r=".59"/>
            <path class="uuid-9ce50665-ea4e-4041-ba39-815373ff8c9a" d="M50.33,175.77c0,.33-.26.59-.59.59s-.59-.26-.59-.59.26-.59.59-.59.59.26.59.59Z"/>
            <path class="uuid-9ce50665-ea4e-4041-ba39-815373ff8c9a" d="M58.53,175.77c0,.33-.26.59-.59.59s-.59-.26-.59-.59.26-.59.59-.59.59.26.59.59Z"/>
            <circle class="uuid-9ce50665-ea4e-4041-ba39-815373ff8c9a" cx="66.14" cy="175.77" r=".59"/>
            <circle class="uuid-9ce50665-ea4e-4041-ba39-815373ff8c9a" cx="74.33" cy="175.77" r=".59"/>
            <circle class="uuid-9ce50665-ea4e-4041-ba39-815373ff8c9a" cx="82.53" cy="175.77" r=".59"/>
            <path class="uuid-9ce50665-ea4e-4041-ba39-815373ff8c9a" d="M29.71,180.36c0,.33-.26.59-.59.59s-.59-.26-.59-.59.26-.59.59-.59.59.26.59.59Z"/>
            <path class="uuid-9ce50665-ea4e-4041-ba39-815373ff8c9a" d="M38.18,180.36c0,.33-.26.59-.59.59s-.59-.26-.59-.59.26-.59.59-.59.59.26.59.59Z"/>
            <path class="uuid-9ce50665-ea4e-4041-ba39-815373ff8c9a" d="M46.37,180.36c0,.33-.26.59-.59.59s-.59-.26-.59-.59.26-.59.59-.59.59.26.59.59Z"/>
            <path class="uuid-9ce50665-ea4e-4041-ba39-815373ff8c9a" d="M54.57,180.36c0,.33-.26.59-.59.59s-.59-.26-.59-.59.26-.59.59-.59.59.26.59.59Z"/>
            <path class="uuid-9ce50665-ea4e-4041-ba39-815373ff8c9a" d="M62.76,180.36c0,.33-.26.59-.59.59s-.59-.26-.59-.59.26-.59.59-.59.59.26.59.59Z"/>
            <path class="uuid-9ce50665-ea4e-4041-ba39-815373ff8c9a" d="M70.96,180.36c0,.33-.26.59-.59.59s-.59-.26-.59-.59.26-.59.59-.59.59.26.59.59Z"/>
            <path class="uuid-9ce50665-ea4e-4041-ba39-815373ff8c9a" d="M79.16,180.36c0,.33-.26.59-.59.59s-.59-.26-.59-.59.26-.59.59-.59.59.26.59.59Z"/>
            <path class="uuid-9ce50665-ea4e-4041-ba39-815373ff8c9a" d="M87.35,180.36c0,.33-.26.59-.59.59s-.59-.26-.59-.59.26-.59.59-.59.59.26.59.59Z"/>
            <circle class="uuid-9ce50665-ea4e-4041-ba39-815373ff8c9a" cx="24.89" cy="184.76" r=".59"/>
            <circle class="uuid-9ce50665-ea4e-4041-ba39-815373ff8c9a" cx="33.35" cy="184.76" r=".59"/>
            <circle class="uuid-9ce50665-ea4e-4041-ba39-815373ff8c9a" cx="41.55" cy="184.76" r=".59"/>
            <path class="uuid-9ce50665-ea4e-4041-ba39-815373ff8c9a" d="M50.33,184.76c0,.33-.26.59-.59.59s-.59-.26-.59-.59.26-.59.59-.59.59.26.59.59Z"/>
            <path class="uuid-9ce50665-ea4e-4041-ba39-815373ff8c9a" d="M58.53,184.76c0,.33-.26.59-.59.59s-.59-.26-.59-.59.26-.59.59-.59.59.26.59.59Z"/>
            <circle class="uuid-9ce50665-ea4e-4041-ba39-815373ff8c9a" cx="66.14" cy="184.76" r=".59"/>
            <circle class="uuid-9ce50665-ea4e-4041-ba39-815373ff8c9a" cx="74.33" cy="184.76" r=".59"/>
            <circle class="uuid-9ce50665-ea4e-4041-ba39-815373ff8c9a" cx="82.53" cy="184.76" r=".59"/>
            <path class="uuid-9ce50665-ea4e-4041-ba39-815373ff8c9a" d="M29.71,189.35c0,.33-.26.59-.59.59s-.59-.26-.59-.59.26-.59.59-.59.59.26.59.59Z"/>
            <path class="uuid-9ce50665-ea4e-4041-ba39-815373ff8c9a" d="M38.18,189.35c0,.33-.26.59-.59.59s-.59-.26-.59-.59.26-.59.59-.59.59.26.59.59Z"/>
            <path class="uuid-9ce50665-ea4e-4041-ba39-815373ff8c9a" d="M46.37,189.35c0,.33-.26.59-.59.59s-.59-.26-.59-.59.26-.59.59-.59.59.26.59.59Z"/>
            <path class="uuid-9ce50665-ea4e-4041-ba39-815373ff8c9a" d="M54.57,189.35c0,.33-.26.59-.59.59s-.59-.26-.59-.59.26-.59.59-.59.59.26.59.59Z"/>
            <path class="uuid-9ce50665-ea4e-4041-ba39-815373ff8c9a" d="M62.76,189.35c0,.33-.26.59-.59.59s-.59-.26-.59-.59.26-.59.59-.59.59.26.59.59Z"/>
            <path class="uuid-9ce50665-ea4e-4041-ba39-815373ff8c9a" d="M70.96,189.35c0,.33-.26.59-.59.59s-.59-.26-.59-.59.26-.59.59-.59.59.26.59.59Z"/>
            <path class="uuid-9ce50665-ea4e-4041-ba39-815373ff8c9a" d="M79.16,189.35c0,.33-.26.59-.59.59s-.59-.26-.59-.59.26-.59.59-.59.59.26.59.59Z"/>
            <path class="uuid-9ce50665-ea4e-4041-ba39-815373ff8c9a" d="M87.35,189.35c0,.33-.26.59-.59.59s-.59-.26-.59-.59.26-.59.59-.59.59.26.59.59Z"/>
          </g>
        </g>
      </g>
    </g>
    <path class="uuid-45491967-331c-4398-b2aa-9efe795791bc" d="M80.89,22.86c-5.97-7.56-15.48-11.83-24.79-11.16-9.3-.67-18.81,3.6-24.79,11.16-6.03,7.63-8,19.87-5.59,29.47.4-12.17,8.37-24.48,9.24-25.51,31.14.83,42.94,9.7,51.27,25.51,2.4-9.6.69-21.84-5.34-29.47Z"/>
    <path class="uuid-90bb56df-c41d-4b44-b476-aadf6ec545f4" d="M51.18,179.99c.96.45,3.96,2.65,6.03,4.59.96.9,1.35,1.27,1.72.93.25-.23.23-.7-.71-2.02-1.28-1.79-5.15-4.87-6.89-5.97-1.74-1.1-7.25-2.62-8.14-3.21,0,0,0,0-.01,0-7.28-5.08-13.69-10.19-19.1-14.09-.35-.25-.61-.57-.43-1.18,0,0,0,0,0,0,.07-.24.14-.48.21-.73,1.53-5.58,5.79-17.63,8.25-24.77.58-1.67,2.37-4.56,2.81-4.63.4-.06.72,1.62.76,1.48.68-2.3-.59-6.03-1.54-10.83-1.26-6.37-3.21-9.07-3.21-9.07-.58.25-1.13.57-1.69.98-4.13,3.02-6.03,10.16-6.63,12.3-.61,2.14-6.5,27.06-7.81,32.39-1.61,6.54-1.34,8.71-.35,9.44.02.02.03.06.05.08,5.01,4.07,15.88,8.75,24.64,13.98.03.02.04.05.07.07,1.6,1,1.78,2.01,2.79,3.13,1.34,1.48,2.08,1.62,3.9,2.45,3.41,1.55,5.41,3.5,5.96,3.11.3-.22.05-.54-.46-1.09-.76-.83-3.26-2.62-3.46-2.85-.21-.23.11-.59.43-.48.32.11,2.72,1.53,5.14,3.08.71.46,1.54,1.17,1.94.77.43-.43-.51-1.2-.88-1.57-1.28-1.28-3.5-2.87-4.94-3.73-.57-.34-.39-.58.06-.37,1.99.94,4.75,2.95,6.68,4.39.91.68,1.67,1.47,2.22.97.31-.28-.19-1.12-.92-1.85-2.21-2.2-5.69-4.69-6.76-5.27-.61-.34-.39-.73.27-.42Z"/>
  </g>
</svg>