<?xml version="1.0" encoding="UTF-8"?>
<svg id="uuid-f6ca29d5-5d7e-49f4-86ca-ce26bf091da3" data-name="Capa_2" xmlns="http://www.w3.org/2000/svg" viewBox="0 0 91.4 102.63">
  <defs>
    <style>
      .uuid-9dc79aaf-0e92-4836-9da9-e51f628d937d {
        fill: #fff;
      }

      .uuid-3533a5d3-b087-4959-a667-407489e67669 {
        fill: #ffb176;
      }
    </style>
  </defs>
  <path class="uuid-9dc79aaf-0e92-4836-9da9-e51f628d937d" d="M66.83,29.34s11.95-4.63,11.91-4.93c-.24-2.09-1.09-8.45-4.51-11.91-2.09-2.11-4.39-3.03-8.93-3.3-3.49,1.6-10.39,2.69-18.32,2.69s-14.83-1.09-18.32-2.69c-4.55.27-7.53.37-9.62,2.48-3.42,3.46-6.14,9.89-6.38,11.98-.03.25,12.47,6.32,12.47,6.32,0,0,1.68,15.02.81,22.51-2.28,19.63-5.38,22.16-7.87,38.64,16.54,2.83,38.76,3.16,56.54.21-2.53-17.25-5.83-18.89-8.15-38.85-.9-7.7.38-23.16.38-23.16Z"/>
  <path class="uuid-3533a5d3-b087-4959-a667-407489e67669" d="M39.94,82.22c1.99.94,4.75,2.95,6.68,4.39.91.68,1.67,1.47,2.22.97.31-.28-.19-1.12-.92-1.85-2.21-2.2-5.69-4.69-6.76-5.27-.61-.34-.39-.73.27-.42.96.45,3.96,2.65,6.03,4.59.96.9,1.35,1.27,1.72.93.25-.23.23-.7-.71-2.02-1.28-1.79-5.15-4.87-6.89-5.97-1.74-1.1-7.25-2.62-8.14-3.21,0,0,0,0-.01,0-3.51-2.45-6.8-4.9-9.89-7.22-.68,3.01-1.37,5.57-2.07,8.17,2.69,1.42,5.4,2.88,7.93,4.4.03.02.04.05.07.07,1.6,1,1.78,2.01,2.79,3.13,1.34,1.48,2.08,1.62,3.9,2.45,3.41,1.55,5.41,3.5,5.96,3.11.3-.22.05-.54-.46-1.09-.76-.83-3.26-2.62-3.46-2.85-.21-.23.11-.59.43-.48.32.11,2.72,1.53,5.14,3.08.71.46,1.54,1.17,1.94.77.43-.43-.51-1.2-.88-1.57-1.28-1.28-3.5-2.87-4.94-3.73-.57-.34-.39-.58.06-.37Z"/>
</svg>