<?xml version="1.0" encoding="UTF-8"?>
<svg id="uuid-12820987-2768-4673-ad23-059a5f776453" data-name="Camisas" xmlns="http://www.w3.org/2000/svg" xmlns:xlink="http://www.w3.org/1999/xlink" viewBox="0 0 91.4 102.63">
  <defs>
    <style>
      .uuid-059d87ee-f48a-4669-a955-c5df3571a058 {
        fill: #ef4136;
      }

      .uuid-4dd345b4-1b59-4a86-9ea6-fd8d20387cb1 {
        fill: #a3a3c6;
      }

      .uuid-856e1f3b-4423-4825-8032-dae1d64a7035 {
        fill: none;
      }

      .uuid-23c047ae-4260-4baa-8919-9ff9a8b78268 {
        clip-path: url(#uuid-8bf094b8-777b-4401-bbd1-6f4db66a886c);
      }

      .uuid-57f201c5-b031-47b1-9c5b-b42eed978f0c {
        fill: #ffb176;
      }

      .uuid-b84cfb01-1c44-4ede-8f38-af12c25a7401 {
        fill: #ddddf2;
      }

      .uuid-a17a8761-0a62-4113-b8fc-49c1ad3ee651 {
        fill: #ed1c24;
      }

      .uuid-b03c94a9-d8b7-4f24-a18c-5092841ba9e9 {
        fill: #ebeced;
      }
    </style>
    <clipPath id="uuid-8bf094b8-777b-4401-bbd1-6f4db66a886c">
      <path class="uuid-856e1f3b-4423-4825-8032-dae1d64a7035" d="M-36.39,12.94c-2.27-2.32-4.04-2.85-9.06-3.14-.09,0-.24,0-.43,0-1.41.76-7.2,4.03-12.24,4.33-2.44-2.33-5.95-3.86-7-3.87-2.74-.04-6.13,3.27-6.87,3.74-.74.46-5.63-.23-12.28-4.19-.05,0-.1,0-.13,0-4.39.37-7.61,1.11-9.73,3.56-2.95,3.41-4.3,10.72-5.08,13.96-.09.36-.4,1.85-.4,1.85.48,1.58,5.89,4.59,11.98,4.45.39-.61,1.46-2.42,1.72-2.76.13-.17.93,6.38.67,17.98-.36,15.97-2.14,19.24-6.54,34.95-1.03,3.7-1.22,6.92-1.58,10.72,0,0,19.31,1.55,28.46,1.55s28.76-1.6,28.76-1.6c-.29-3.71-.58-6.88-1.54-10.6-4.16-16.18-6.27-19.07-6.63-35.04-.26-11.6.62-18.31.69-18.11.15.42.69,2.39.94,2.72.15,0,.87.02.9.03,2.97.07,7.65-1.33,9.19-2.39.92-.63.64-.76.8-1.28-.38-3.4-.92-13.14-4.59-16.88ZM-64.98,9.94c-.06,0-.11,0-.17,0,.03,0,.06,0,.08,0,.03,0,.06,0,.08,0Z"/>
    </clipPath>
  </defs>
  <g>
    <path class="uuid-b84cfb01-1c44-4ede-8f38-af12c25a7401" d="M83.45,59.98c-.41-5.27-2.04-30.19-2.32-32.31-.53-4-1.18-8.85-4.38-12.21-1.29-1.36-1.37-2.26-9.3-3.16-1.86-.21-4.72-.75-6.31-2.01s-3.88-4.83-3.88-4.83c0,0-1.55,3-6.81,4.37-.9.23-1.39,2.04-1.39,2.04,0,0-.53-1.69-1.62-2.04-4.49-1.44-7.11-4.2-7.11-4.2,0,0-2.12,3.32-3.53,4.54-1.5,1.3-4.32,1.91-6.19,2.06-6.89.58-10.83,2.48-13.77,10.34-1.96,5.23-8.13,29.44-9.47,34.9-1.59,6.49-1.38,10.75-.44,11.56.01.01,10.02,6.72,15.15,8.58.44-2.61,3.64-7.7,3.64-7.7-2.41-2.22-8.63-6.21-8.88-7.01-.25-.8,6.5-18.79,9.01-26.09.59-1.71,1.49-3.66,1.79-3.83.33-.19.56.16.64.51.41,1.75.96,4.33.72,15.24-.37,16.37-.87,17.87-5.75,33.48-1.08,3.44-1.78,6.99-2.26,10.45,0,0,13.59,4.5,27.8,4.5s28.01-4.69,28.01-4.69c-.47-3.39-1.16-6.87-2.22-10.25-4.88-15.61-5.19-17.15-5.56-33.52-.25-10.9-.03-14.49.56-16.24.15-.46.35-.62.49.05,1.11,5.22,2.75,21.32,3.46,28.16.37,3.55,1.93,11.96,3.65,20.89.14.7,1.67,1.32,4.54,1.03,2.63-.26,3.53-.95,3.45-1.79-.76-8.12-1.32-15.44-1.74-20.83Z"/>
    <g>
      <path class="uuid-4dd345b4-1b59-4a86-9ea6-fd8d20387cb1" d="M48.21,14.13c0,.31-.25.56-.56.56s-.56-.25-.56-.56.25-.56.56-.56.56.25.56.56ZM47.6,21.26c-.31,0-.56.25-.56.56s.25.56.56.56.56-.25.56-.56-.25-.56-.56-.56ZM47.6,29.93c-.31,0-.56.25-.56.56s.25.56.56.56.56-.25.56-.56-.25-.56-.56-.56ZM47.6,37.98c-.31,0-.56.25-.56.56s.25.56.56.56.56-.25.56-.56-.25-.56-.56-.56ZM47.6,46.33c-.31,0-.56.25-.56.56s.25.56.56.56.56-.25.56-.56-.25-.56-.56-.56ZM47.5,53.98c-.31,0-.56.25-.56.56s.25.56.56.56.56-.25.56-.56-.25-.56-.56-.56ZM47.4,61.21c-.31,0-.56.25-.56.56s.25.56.56.56.56-.25.56-.56-.25-.56-.56-.56ZM47.2,68.45c-.31,0-.56.25-.56.56s.25.56.56.56.56-.25.56-.56-.25-.56-.56-.56ZM47.2,76.19c-.31,0-.56.25-.56.56s.25.56.56.56.56-.25.56-.56-.25-.56-.56-.56ZM47.2,84.75c-.31,0-.56.25-.56.56s.25.56.56.56.56-.25.56-.56-.25-.56-.56-.56ZM47.09,93.21c-.31,0-.56.25-.56.56s.25.56.56.56.56-.25.56-.56-.25-.56-.56-.56Z"/>
      <path class="uuid-4dd345b4-1b59-4a86-9ea6-fd8d20387cb1" d="M48.33,96.56h0c-.23,0-.42-.19-.41-.42,0-.81.63-80.63.63-82.91,0-.23.19-.42.42-.42s.42.19.42.42c0,2.28-.62,82.11-.63,82.91,0,.23-.19.41-.42.41Z"/>
    </g>
    <path class="uuid-059d87ee-f48a-4669-a955-c5df3571a058" d="M53.9,69.88c-.41-9.66-1.65-49.08-3.58-51.78-.59-.83-.19-1.76-.19-1.76h-2.88s.74.79-.33,1.82c-1.77,1.7-3.02,42.06-3.43,51.71-.07,1.59,5.2,6.1,5.2,6.11h0s0,0,0,0h0s0,0,0,0c0,0,5.27-4.52,5.2-6.11Z"/>
    <path class="uuid-a17a8761-0a62-4113-b8fc-49c1ad3ee651" d="M47.05,12.03s.74-.18,2.03-.16c.98.02,1.67.34,1.67.34l.77,1.95s-.93,3.58-1.53,3.42c-.59-.17-1.14-.36-2.47-.04-.47.11-1.38-2.79-1.45-3.14.32-.8.98-2.36.98-2.36Z"/>
    <g>
      <path class="uuid-4dd345b4-1b59-4a86-9ea6-fd8d20387cb1" d="M52.64,17.08s-.1,0-.14-.02c-.11-.04-.2-.13-.25-.24-.83-2.13-2.35-5.88-2.37-5.92-.09-.21.02-.46.23-.54.21-.09.46.01.54.23.01.04,1.34,3.3,2.2,5.48,2.41-1.42,5.35-3.7,6.83-5.84.13-.19.39-.24.58-.1.19.13.24.39.1.58-1.76,2.54-5.16,5-7.53,6.33-.06.04-.13.05-.2.05Z"/>
      <path class="uuid-4dd345b4-1b59-4a86-9ea6-fd8d20387cb1" d="M45.08,17.08s.1,0,.14-.02c.11-.04.2-.13.25-.24.83-2.13,2.35-5.88,2.37-5.92.09-.21-.02-.46-.23-.54-.21-.09-.46.01-.54.23-.01.04-1.34,3.3-2.2,5.48-2.41-1.42-5.35-3.7-6.83-5.84-.13-.19-.39-.24-.58-.1-.19.13-.24.39-.1.58,1.76,2.54,5.16,5,7.53,6.33.06.04.13.05.2.05Z"/>
      <path class="uuid-4dd345b4-1b59-4a86-9ea6-fd8d20387cb1" d="M79.21,76.82c-.77,0-1.59-.06-2.43-.22-.23-.04-.38-.26-.33-.49.04-.23.26-.38.49-.33,3.6.68,6.87-.56,6.91-.58.21-.08.46.02.54.24.08.21-.02.46-.24.54-.11.04-2.2.84-4.94.84Z"/>
      <path class="uuid-4dd345b4-1b59-4a86-9ea6-fd8d20387cb1" d="M16.05,73.77h0c-.23-.03-.39-.24-.36-.47.03-.19.66-4.71,3.6-6.93.18-.14.45-.1.59.08.14.18.1.45-.08.59-2.66,2.01-3.27,6.33-3.28,6.38-.03.23-.24.39-.47.36Z"/>
    </g>
    <path class="uuid-57f201c5-b031-47b1-9c5b-b42eed978f0c" d="M44.13,83.38c.96.45,3.96,2.65,6.03,4.59.96.9,1.35,1.27,1.72.93.25-.23.23-.7-.71-2.02-1.28-1.79-5.15-4.87-6.89-5.97-1.74-1.1-7.25-2.62-8.14-3.21,0,0,0,0-.01,0-4.86-3.39-9.32-6.78-13.36-9.83-1.55,2.53-3.65,4.79-4.86,7.5,4.56,2.4,9.65,4.96,14.18,7.67.03.02.04.05.07.07,1.6,1,1.78,2.01,2.79,3.13,1.34,1.48,2.08,1.62,3.9,2.45,3.41,1.55,5.41,3.5,5.96,3.11.3-.22.05-.54-.46-1.09-.76-.83-3.26-2.62-3.46-2.85-.21-.23.11-.59.43-.48.32.11,2.72,1.53,5.14,3.08.71.46,1.54,1.17,1.94.77.43-.43-.51-1.2-.88-1.57-1.28-1.28-3.5-2.87-4.94-3.73-.57-.34-.39-.58.06-.37,1.99.94,4.75,2.95,6.68,4.39.91.68,1.67,1.47,2.22.97.31-.28-.19-1.12-.92-1.85-2.21-2.2-5.69-4.69-6.76-5.27-.61-.34-.39-.73.27-.42Z"/>
    <path class="uuid-b84cfb01-1c44-4ede-8f38-af12c25a7401" d="M22.09,77.61c.44-2.61,3.64-7.7,3.64-7.7-1.01-.93-2.69-2.17-4.32-3.36-2.33,2.52-4.03,5.11-5.07,8.27,2.09,1.17,4.16,2.22,5.75,2.8Z"/>
  </g>
  <g class="uuid-23c047ae-4260-4baa-8919-9ff9a8b78268">
    <g>
      <rect class="uuid-b03c94a9-d8b7-4f24-a18c-5092841ba9e9" x="-15.63" y="-72.05" width=".98" height="130.29" transform="translate(.45 -12.72) rotate(-45)"/>
      <rect class="uuid-b03c94a9-d8b7-4f24-a18c-5092841ba9e9" x="-17.84" y="-69.84" width=".98" height="130.29" transform="translate(-1.76 -13.64) rotate(-45)"/>
      <rect class="uuid-b03c94a9-d8b7-4f24-a18c-5092841ba9e9" x="-20.05" y="-67.63" width=".98" height="130.29" transform="translate(-3.98 -14.56) rotate(-45)"/>
      <rect class="uuid-b03c94a9-d8b7-4f24-a18c-5092841ba9e9" x="-22.27" y="-65.41" width=".98" height="130.29" transform="translate(-6.19 -15.48) rotate(-45)"/>
      <rect class="uuid-b03c94a9-d8b7-4f24-a18c-5092841ba9e9" x="-24.48" y="-63.2" width=".98" height="130.29" transform="translate(-8.4 -16.39) rotate(-45)"/>
      <rect class="uuid-b03c94a9-d8b7-4f24-a18c-5092841ba9e9" x="-26.7" y="-60.98" width=".98" height="130.29" transform="translate(-10.62 -17.31) rotate(-45)"/>
      <rect class="uuid-b03c94a9-d8b7-4f24-a18c-5092841ba9e9" x="-28.91" y="-58.77" width=".98" height="130.29" transform="translate(-12.83 -18.23) rotate(-45)"/>
      <rect class="uuid-b03c94a9-d8b7-4f24-a18c-5092841ba9e9" x="-31.13" y="-56.55" width=".98" height="130.29" transform="translate(-15.05 -19.15) rotate(-45)"/>
      <rect class="uuid-b03c94a9-d8b7-4f24-a18c-5092841ba9e9" x="-33.34" y="-54.34" width=".98" height="130.29" transform="translate(-17.27 -20.06) rotate(-45)"/>
      <rect class="uuid-b03c94a9-d8b7-4f24-a18c-5092841ba9e9" x="-35.56" y="-52.12" width=".98" height="130.29" transform="translate(-19.48 -20.98) rotate(-45)"/>
      <rect class="uuid-b03c94a9-d8b7-4f24-a18c-5092841ba9e9" x="-37.77" y="-49.91" width=".98" height="130.29" transform="translate(-21.69 -21.9) rotate(-45)"/>
      <rect class="uuid-b03c94a9-d8b7-4f24-a18c-5092841ba9e9" x="-39.99" y="-47.69" width=".98" height="130.29" transform="translate(-23.91 -22.82) rotate(-45)"/>
      <rect class="uuid-b03c94a9-d8b7-4f24-a18c-5092841ba9e9" x="-42.2" y="-45.48" width=".98" height="130.29" transform="translate(-26.12 -23.73) rotate(-45)"/>
      <rect class="uuid-b03c94a9-d8b7-4f24-a18c-5092841ba9e9" x="-44.42" y="-43.27" width=".98" height="130.29" transform="translate(-28.33 -24.65) rotate(-45)"/>
      <rect class="uuid-b03c94a9-d8b7-4f24-a18c-5092841ba9e9" x="-46.63" y="-41.05" width=".98" height="130.29" transform="translate(-30.55 -25.57) rotate(-45)"/>
    </g>
  </g>
</svg>