<?xml version="1.0" encoding="UTF-8"?>
<svg id="uuid-ba412e96-26e3-4bef-ba81-a4d109478914" data-name="Capa_2" xmlns="http://www.w3.org/2000/svg" viewBox="0 0 78.69 32.09">
  <path d="M74.41,8.37s-11.09,1.36-11.2,1.36h-17.49c-1.11,0-2.06.67-2.57,1.64-2.45-1.2-5.32-1.18-7.49.07-.5-1.01-1.47-1.7-2.6-1.7H15.57c-.11,0-11.29-1.36-11.29-1.36l.32,3.45,8.02,1.89v6.83c0,1.76,1.32,3.18,2.95,3.18h16.03c.84,0,1.63-.38,2.19-1.05l1.46-1.75c.49-.58.76-1.34.76-2.13v-5.67c1.82-1.33,4.53-1.36,6.75-.12v5.79c0,.79.27,1.55.76,2.13l1.46,1.75c.56.67,1.36,1.05,2.19,1.05h16.03c1.63,0,2.95-1.43,2.95-3.18v-6.83l7.87-1.89.38-3.45ZM34.44,18.43c0,.65-.23,1.28-.66,1.76l-1.27,1.45c-.48.55-1.17.87-1.9.87h-13.87c-1.41,0-2.56-1.18-2.56-2.63v-6.31c0-1.45,1.14-2.63,2.56-2.63h15.14c1.41,0,2.56,1.18,2.56,2.63v4.86ZM64.59,19.88c0,1.45-1.14,2.63-2.56,2.63h-13.87c-.72,0-1.41-.32-1.9-.87l-1.27-1.45c-.42-.48-.66-1.11-.66-1.76v-4.86c0-1.45,1.14-2.63,2.56-2.63h15.14c1.41,0,2.56,1.18,2.56,2.63v6.31Z"/>
</svg>