<?xml version="1.0" encoding="UTF-8"?>
<svg id="uuid-cc6604a0-9b84-4262-bc80-ff328ed371a4" data-name="Capa_2" xmlns="http://www.w3.org/2000/svg" viewBox="0 0 78.69 32.09">
  <path d="M44.98,7.17c-.45,0-.87.13-1.23.36-.32.21-.69.32-1.08.32h-6.67c-.38,0-.76-.11-1.08-.32-.35-.23-.77-.36-1.23-.36H4.92v3.81h5.76c0,3.16.37,13.94,12.64,13.94,9.03,0,11.65-8.17,12.37-11.91.12-.62.58-1.46,1.19-1.64,0,0,.75-.18,2.45-.18s2.47.18,2.47.18c.61.18,1.07,1.02,1.19,1.64.73,3.74,3.35,11.91,12.37,11.91,12.27,0,12.64-10.78,12.64-13.94h5.77v-3.81h-28.79ZM23.23,23.72c-10.08,0-11.18-7.8-11.3-11.61-.02-.62.48-1.13,1.1-1.13h20.59c.69,0,1.22.62,1.09,1.3-.58,3.25-2.89,11.44-11.48,11.44ZM55.45,23.72c-8.59,0-10.9-8.19-11.48-11.44-.12-.68.4-1.3,1.09-1.3h20.59c.62,0,1.12.51,1.1,1.13-.12,3.82-1.22,11.61-11.3,11.61Z"/>
</svg>