<?xml version="1.0" encoding="UTF-8"?>
<svg id="uuid-bc0d5eb9-c4cc-49ce-adfd-0c43449dcb17" data-name="Pantalon" xmlns="http://www.w3.org/2000/svg" viewBox="0 0 81.02 181.79">
  <defs>
    <style>
      .uuid-405c1752-219f-4e14-88be-0d72f13fbacd {
        fill: #353535;
      }
    </style>
  </defs>
  <path class="uuid-405c1752-219f-4e14-88be-0d72f13fbacd" d="M41.48,10.25c-10.19,0-19.54-.73-26.88-1.94-2.79,11.67-2.12,23.87-1.65,28.91,1.36,14.56,4.43,28.69,6.89,40.04,1.28,5.88,3.8,25.97,3.69,36.84-.11,11.53,3.12,59.39,3.12,59.39h11.93s.48-50.56.37-59.31c-.07-6.09.12-20.72.35-22.77,1.35-12.34,1.95-57.48,2.32-57.48.36,0,.68,45.13,2.03,57.48.22,2.04.42,17.98.34,24.44-.1,8.61.38,57.63.38,57.63h11.93s3.26-46.68,3.16-57.38c-.08-8.43,2.37-32.96,3.65-38.85,2.46-11.35,5.53-25.48,6.89-40.04.47-5.04,1.15-17.24-1.65-28.91-7.34,1.21-16.69,1.94-26.88,1.94Z"/>
  <g>
    <path d="M41.52,31.34c-.05,0-.1-.01-.15-.04-1.21-.61-1.91-1.71-2.08-3.27-.22-2.11-.32-16.42-.33-17.02,0-.18.15-.34.33-.34h0c.18,0,.33.15.33.33,0,.15.11,14.88.32,16.96.14,1.32.71,2.25,1.71,2.75.17.08.23.28.15.45-.06.12-.18.18-.3.18Z"/>
    <path d="M41.8,14.9c16.6,0,26.45-1.68,26.55-1.7l-.11-.66c-.1.02-9.9,1.69-26.45,1.69s-26.35-1.67-26.44-1.69l-.11.66c.1.02,9.95,1.7,26.55,1.7h0Z"/>
    <circle cx="41.45" cy="12.57" r="1.1"/>
  </g>
</svg>