<?xml version="1.0" encoding="UTF-8"?>
<svg id="uuid-d9d1dd08-ee39-4df6-b8a3-29ea9bf26656" data-name="Pantalon" xmlns="http://www.w3.org/2000/svg" viewBox="0 0 71.13 112.45">
  <defs>
    <style>
      .uuid-a6e0f434-9540-46ac-8bce-98d0598304e3 {
        fill: #ffb176;
      }

      .uuid-ef18b0ce-b4c1-428c-8877-8dd926c8f878 {
        fill: #0f3659;
      }

      .uuid-a73c40dd-7ed6-4237-bc7c-bfe17c3aaedc {
        fill: #d1d3d4;
      }
    </style>
  </defs>
  <path class="uuid-ef18b0ce-b4c1-428c-8877-8dd926c8f878" d="M61.33,28.62c-3.76-12.03-4.98-15.78-5.51-24.21H15.31c-.53,8.43-1.76,12.18-5.51,24.21-2.36,7.57-3.04,15.65-3.1,22.09-.04,4.68.84,50.83,1.5,53.91,8.02,4.25,48.74,4.83,54.73,0,.71-4.38,1.5-48.75,1.5-53.01,0-6.57-.62-15.06-3.1-22.99Z"/>
  <path class="uuid-a6e0f434-9540-46ac-8bce-98d0598304e3" d="M18.81,28.83c1.6,1,1.78,2.01,2.79,3.13,1.34,1.48,2.08,1.62,3.9,2.45,3.41,1.55,5.41,3.5,5.96,3.11.3-.22.05-.54-.46-1.09-.76-.83-3.26-2.62-3.46-2.85-.21-.23.11-.59.43-.48.32.11,2.72,1.53,5.14,3.08.71.46,1.54,1.17,1.94.77.43-.43-.51-1.2-.88-1.57-1.28-1.28-3.5-2.87-4.94-3.73-.57-.34-.39-.58.06-.37,1.99.94,4.75,2.95,6.68,4.39.91.68,1.67,1.47,2.22.97.31-.28-.19-1.12-.92-1.85-2.21-2.2-5.69-4.69-6.76-5.27-.61-.34-.39-.73.27-.42.96.45,3.96,2.65,6.03,4.59.96.9,1.35,1.27,1.72.93.25-.23.23-.7-.71-2.02-1.28-1.79-5.15-4.87-6.89-5.97-1.74-1.1-7.25-2.62-8.14-3.21,0,0,0,0-.01,0-3.31-2.31-6.43-4.62-9.37-6.82-.59,2.26-1.34,4.77-2.32,7.92,2.6,1.37,5.21,2.79,7.66,4.25.03.02.04.05.07.07Z"/>
  <path d="M14.75,10.11h41.63c-.12-.84-.23-1.71-.32-2.62H15.07c-.09.91-.2,1.78-.32,2.62Z"/>
  <path class="uuid-a73c40dd-7ed6-4237-bc7c-bfe17c3aaedc" d="M38.42,10.54h-4c-.71,0-1.29-.57-1.29-1.28v-1.07c0-.71.58-1.28,1.29-1.28h4c.71,0,1.29.57,1.29,1.28v1.07c0,.71-.58,1.28-1.29,1.28ZM34.42,7.58c-.34,0-.62.28-.62.62v1.07c0,.34.28.62.62.62h4c.34,0,.62-.28.62-.62v-1.07c0-.34-.28-.62-.62-.62h-4Z"/>
</svg>