<?xml version="1.0" encoding="UTF-8"?>
<svg id="uuid-722ec2ee-c4d1-4109-8d76-84bd44d82004" data-name="Pantalon" xmlns="http://www.w3.org/2000/svg" viewBox="0 0 69.96 123.04">
  <defs>
    <style>
      .uuid-f73f1d26-ce68-479a-9f27-466b8a8e1645 {
        fill: #4c4c4c;
      }

      .uuid-bd35144b-26f3-4177-9011-693754ee7cc0 {
        fill: #ffb176;
      }

      .uuid-c3bbf90b-223a-4dcd-b41a-4109f2ca5256 {
        fill: #d1d3d4;
      }
    </style>
  </defs>
  <path d="M55.48,5.83H14.47c-.65,6.44-2,10.65-5.26,21.09-4.08,13.07-3.13,27.69-2.66,32.67,2,21.41,5.84,51.13,6.5,54.22,8.02,4.25,37.86,4.83,43.85,0,.71-4.38,4.5-32.8,6.5-54.22.47-4.98,1.42-19.6-2.66-32.67-3.26-10.44-4.61-14.65-5.26-21.09Z"/>
  <path class="uuid-bd35144b-26f3-4177-9011-693754ee7cc0" d="M18.22,27.13c1.6,1,1.78,2.01,2.79,3.13,1.34,1.48,2.08,1.62,3.9,2.45,3.41,1.55,5.41,3.5,5.96,3.11.3-.21.05-.54-.46-1.09-.76-.83-3.26-2.62-3.46-2.85-.21-.23.11-.59.43-.48.32.11,2.72,1.53,5.14,3.08.71.46,1.54,1.17,1.94.77.43-.43-.51-1.2-.88-1.57-1.28-1.28-3.5-2.87-4.94-3.73-.57-.34-.39-.58.06-.37,1.99.94,4.75,2.95,6.68,4.39.91.68,1.67,1.47,2.22.97.31-.28-.19-1.12-.92-1.85-2.21-2.2-5.69-4.69-6.76-5.27-.61-.34-.39-.73.27-.42.96.45,3.96,2.65,6.03,4.59.96.9,1.35,1.27,1.72.93.25-.23.23-.7-.71-2.02-1.28-1.79-5.15-4.87-6.89-5.97-1.74-1.1-7.25-2.62-8.14-3.21,0,0,0,0-.01,0-3.31-2.31-6.43-4.62-9.37-6.82-.59,2.26-1.34,4.77-2.32,7.92,2.6,1.37,5.21,2.79,7.66,4.25.03.02.04.05.07.07Z"/>
  <path class="uuid-f73f1d26-ce68-479a-9f27-466b8a8e1645" d="M13.74,10.87h42.48c-.17-.87-.32-1.73-.44-2.62H14.18c-.13.89-.27,1.75-.44,2.62Z"/>
  <path class="uuid-c3bbf90b-223a-4dcd-b41a-4109f2ca5256" d="M37.83,11.38h-4c-.71,0-1.29-.57-1.29-1.28v-1.07c0-.71.58-1.28,1.29-1.28h4c.71,0,1.29.57,1.29,1.28v1.07c0,.71-.58,1.28-1.29,1.28ZM33.83,8.41c-.34,0-.62.28-.62.62v1.07c0,.34.28.62.62.62h4c.34,0,.62-.28.62-.62v-1.07c0-.34-.28-.62-.62-.62h-4Z"/>
</svg>