<?xml version="1.0" encoding="UTF-8"?>
<svg id="uuid-4464c77e-2647-4a13-9922-b1c335ba83fd" data-name="Capa_2" xmlns="http://www.w3.org/2000/svg" viewBox="0 0 33.35 19.06">
  <defs>
    <style>
      .uuid-3ce901cc-d830-40cc-8b91-43c81aa74344 {
        fill: #1c4972;
      }

      .uuid-d7ae6893-8a19-40ab-9dc2-ce4316eb05d4 {
        fill: #0d395b;
      }
    </style>
  </defs>
  <g>
    <path class="uuid-d7ae6893-8a19-40ab-9dc2-ce4316eb05d4" d="M14.44,12.63c-.18-.6-.14-1.13-.47-2.08-1.07-3.1-2.51-6.26-2.55-7.49,0-.09-1.64-.98-4.38-.93-2.16.04-3.66.78-3.72.81-.05.03-.24.17-.25.23-.11,1.1-.27,4.74-.35,6.29-.04.73-.06,2.04-.04,2.53.02.79.04,2.6.29,2.75,1.43.89,4.32,1.5,7.01,1.64,1.22.06,2.62-.19,3.01-.28.79-.18,1.66-.65,1.66-1.1,0-.84-.17-2.26-.21-2.38ZM7.67,7.03c-3.3,0-3.68-2.65-3.81-3.42.42-.18,1.61-.61,3.19-.64,2.5-.04,3.73.66,3.74.67.05.03.14.11.13.15-.03.36.24,3.25-3.26,3.25Z"/>
    <path d="M10.91,16.24c2.07,0,3.58-1.45,3.63-1.66.04-.45-.13-2.13-.09-1.98.21.76.38,1.67.38,2.51,0,.44-1.76,1.82-3.89,1.82-2.5,0-4.94-.6-6.55-1.31-1.05-.47-1.66-.78-1.68-1.13-.04-.17-.14-1.6-.01-1.88,0,.05.07.85.19,1.36.06.27,3.61,2.27,8.03,2.27Z"/>
    <path class="uuid-3ce901cc-d830-40cc-8b91-43c81aa74344" d="M3.63,14.04c-.08,0-.15-.02-.22-.06-.19-.12-.25-.38-.13-.57.08-.12,1.88-2.92,5.91-3.05,3.71-.12,4.87,1.97,4.92,2.05.11.2.03.45-.17.56-.2.11-.45.03-.56-.17-.04-.07-.97-1.72-4.16-1.61-3.57.12-5.17,2.56-5.24,2.66-.08.12-.21.19-.35.19Z"/>
  </g>
  <g>
    <path class="uuid-d7ae6893-8a19-40ab-9dc2-ce4316eb05d4" d="M18.7,15.01c0,.44.87.92,1.66,1.1.4.09,1.79.34,3.01.28,2.69-.14,5.58-.74,7.01-1.64.25-.16.27-1.96.29-2.75.01-.49,0-1.8-.04-2.53-.08-1.54-.24-5.18-.35-6.29,0-.06-.2-.2-.25-.23-.06-.03-1.57-.77-3.72-.81-2.74-.05-4.38.83-4.38.93-.04,1.23-1.48,4.39-2.55,7.49-.33.95-.29,1.47-.47,2.08-.03.12-.21,1.53-.21,2.38ZM22.42,3.79s.09-.12.13-.15c.01,0,1.24-.71,3.74-.67,1.58.03,2.77.47,3.19.64-.12.77-.5,3.42-3.81,3.42-3.5,0-3.23-2.88-3.26-3.25Z"/>
    <path d="M22.44,16.24c-2.07,0-3.58-1.45-3.63-1.66-.04-.45.13-2.13.1-1.98-.21.76-.38,1.67-.38,2.51,0,.44,1.76,1.82,3.89,1.82,2.5,0,4.94-.6,6.55-1.31,1.05-.47,1.66-.78,1.68-1.13.04-.17.14-1.6.01-1.88,0,.05-.07.85-.19,1.36-.06.27-3.61,2.27-8.03,2.27Z"/>
    <path class="uuid-3ce901cc-d830-40cc-8b91-43c81aa74344" d="M29.71,14.04c.08,0,.15-.02.22-.06.19-.12.25-.38.13-.57-.08-.12-1.88-2.92-5.91-3.05-3.71-.12-4.87,1.97-4.92,2.05-.11.2-.03.45.17.56.2.11.45.03.56-.17.04-.07.97-1.72,4.16-1.61,3.57.12,5.17,2.56,5.24,2.66.08.12.21.19.35.19Z"/>
  </g>
</svg>