<?xml version="1.0" encoding="UTF-8"?>
<svg id="uuid-c37865fc-a00a-4fa6-8bac-d64c35a5bbae" data-name="Capa_2" xmlns="http://www.w3.org/2000/svg" viewBox="0 0 33.35 19.06">
  <defs>
    <style>
      .uuid-91ee4f51-6402-4af1-9e35-475dd84a4f93 {
        fill: #ef4136;
      }

      .uuid-9ca468e1-accf-4de9-92f0-24841a431380 {
        fill: #c91612;
      }
    </style>
  </defs>
  <g>
    <path class="uuid-9ca468e1-accf-4de9-92f0-24841a431380" d="M14.5,11.44c-.18-.6-2.66-7.47-3.01-7.87-.18.44,1.12,5.12-2.16,5.26-4.76.21-6.18-5.2-6.27-5.5-.48.18-.21,3.4-.29,4.94-.04.73-.06,2.04-.04,2.53.02.79.04,2.6.29,2.75,1.43.89,4.32,1.5,7.01,1.64,1.22.06,2.62-.19,3.01-.28.79-.18,1.66-.65,1.66-1.1,0-.84-.17-2.26-.21-2.38Z"/>
    <path d="M10.97,15.05c2.07,0,3.58-1.45,3.63-1.66.04-.45-.13-2.13-.1-1.98.21.76.38,1.67.38,2.51,0,.44-1.76,1.82-3.89,1.82-2.49,0-4.94-.6-6.55-1.31-1.05-.47-1.66-.78-1.68-1.13-.04-.17-.14-1.6-.01-1.88,0,.05.07.85.19,1.36.06.27,3.61,2.27,8.03,2.27Z"/>
    <path class="uuid-91ee4f51-6402-4af1-9e35-475dd84a4f93" d="M5.05,11.54c-.06,0-.12,0-.17-.03-.15-.06-.2-.18-.1-.28.06-.06,1.48-1.4,4.64-1.47,2.92-.06,3.82.95,3.86.99.09.1.02.22-.13.27-.16.05-.36.02-.44-.08-.03-.03-.77-.83-3.26-.78-2.81.06-4.06,1.23-4.11,1.28-.06.06-.17.09-.28.09Z"/>
  </g>
  <g>
    <path class="uuid-9ca468e1-accf-4de9-92f0-24841a431380" d="M18.64,13.82c0,.44.87.92,1.66,1.1.4.09,1.79.34,3.01.28,2.69-.14,5.58-.74,7.01-1.64.25-.16.27-1.96.29-2.75.01-.49,0-1.8-.04-2.53-.08-1.54.2-4.76-.29-4.94-.09.3-1.52,5.71-6.27,5.5-3.27-.14-1.98-4.82-2.16-5.26-.35.4-2.83,7.26-3.01,7.87-.03.12-.21,1.53-.21,2.38Z"/>
    <path d="M22.38,15.05c-2.07,0-3.58-1.45-3.63-1.66-.04-.45.13-2.13.1-1.98-.21.76-.38,1.67-.38,2.51,0,.44,1.76,1.82,3.89,1.82,2.49,0,4.94-.6,6.55-1.31,1.05-.47,1.66-.78,1.68-1.13.04-.17.14-1.6.01-1.88,0,.05-.07.85-.19,1.36-.06.27-3.61,2.27-8.03,2.27Z"/>
    <path class="uuid-91ee4f51-6402-4af1-9e35-475dd84a4f93" d="M28.29,11.54c.06,0,.12,0,.17-.03.15-.06.2-.18.1-.28-.06-.06-1.48-1.4-4.64-1.47-2.92-.06-3.82.95-3.86.99-.09.1-.02.22.13.27.16.05.36.02.44-.08.03-.03.77-.83,3.26-.78,2.81.06,4.06,1.23,4.11,1.28.06.06.17.09.28.09Z"/>
  </g>
</svg>