<?xml version="1.0" encoding="UTF-8"?>
<svg id="uuid-617fee30-7d4e-4bcf-96ae-9fbbc78749d5" data-name="Capa_2" xmlns="http://www.w3.org/2000/svg" viewBox="0 0 33.35 19.06">
  <defs>
    <style>
      .uuid-43564338-7a79-49d6-a928-9a547cca5bd0 {
        fill: #414042;
      }
    </style>
  </defs>
  <g>
    <path d="M32.23,8.63c-.09-1.73-.41-3.03-.52-4.25,0,.01,0,.03,0,.05-.09-.57-3.45-1.68-5.41-1.67-2.66.01-3.24,1.21-3.28,1.37-.34.96-1.26,2.44-2.36,5.62-.34.98-.3,1.52-.48,2.14-.03.12-.21,1.58-.21,2.45,0,.46.89.94,1.7,1.13.41.09,1.84.35,3.1.29,2.77-.14,5.74-.77,7.21-1.68.26-.16.28-2.01.3-2.83.01-.51,0-1.85-.04-2.6ZM30.55,11.17c-2.38-1.05-4.19-1.39-6.13-1.42-2.17-.03-2.53.6-2.92.77-.2-.99.51-2.97,1.12-4.97.26-.3,1.23-1.21,3.45-1.2,2.3,0,5.04,1.25,5.55,2.19-.17,2.12-.53,4.86-1.07,4.62Z"/>
    <path class="uuid-43564338-7a79-49d6-a928-9a547cca5bd0" d="M23.81,15.6c-2.12,0-3.68-1.49-3.73-1.71-.04-.46.14-2.19.1-2.04-.21.78-.39,1.72-.39,2.58,0,.46,1.81,1.87,4,1.87,2.57,0,5.08-.62,6.73-1.35,1.08-.48,1.7-.8,1.72-1.16.04-.17.14-1.65.01-1.93,0,.05-.07.88-.19,1.39-.06.28-3.71,2.34-8.25,2.34Z"/>
  </g>
  <g>
    <path d="M13.17,11.89c-.18-.62-.15-1.16-.48-2.14-1.1-3.19-2.02-4.66-2.36-5.62-.04-.16-.62-1.36-3.28-1.37-1.96-.01-5.32,1.11-5.41,1.67,0-.01,0-.03,0-.05-.11,1.22-.42,2.52-.52,4.25-.04.75-.06,2.1-.04,2.6.02.82.04,2.67.3,2.83,1.47.92,4.44,1.54,7.21,1.68,1.26.06,2.69-.2,3.1-.29.82-.18,1.71-.67,1.71-1.13,0-.87-.18-2.33-.21-2.45ZM11.85,10.53c-.39-.17-.74-.8-2.92-.77-1.94.03-3.75.37-6.13,1.42-.53.23-.9-2.51-1.07-4.62.51-.94,3.25-2.18,5.55-2.19,2.22,0,3.19.9,3.45,1.2.61,2,1.32,3.98,1.12,4.97Z"/>
    <path class="uuid-43564338-7a79-49d6-a928-9a547cca5bd0" d="M9.54,15.6c2.12,0,3.68-1.49,3.73-1.71.04-.46-.14-2.19-.1-2.04.21.78.39,1.72.39,2.58,0,.46-1.81,1.87-4,1.87-2.57,0-5.08-.62-6.73-1.35-1.08-.48-1.7-.8-1.72-1.16-.04-.17-.14-1.65-.01-1.93,0,.05.07.88.19,1.39.06.28,3.71,2.34,8.25,2.34Z"/>
  </g>
</svg>