<?xml version="1.0" encoding="UTF-8"?>
<svg id="uuid-488975a4-d4dd-4429-8f67-5d8b2dbd3268" data-name="Capa_2" xmlns="http://www.w3.org/2000/svg" viewBox="0 0 33.35 19.06">
  <defs>
    <style>
      .uuid-1f54cb90-1376-4708-9395-d0207c2ac87a {
        fill: #4c4c4c;
      }

      .uuid-22862234-1530-4471-9c38-879c9bb75f74 {
        fill: #231f20;
      }

      .uuid-d6ba73e3-cb1c-4b4d-a3f3-fa4043fbacfd {
        fill: #353132;
      }
    </style>
  </defs>
  <g>
    <path class="uuid-1f54cb90-1376-4708-9395-d0207c2ac87a" d="M2.53,11.92c.02.8.04,2.63.3,2.78,1.45.9,4.37,1.52,7.09,1.66,1.24.06,2.64-.19,3.05-.28.8-.18,1.68-.66,1.68-1.11,0-.85-.18-2.29-.21-2.4-.18-.61-.15-1.14-.48-2.1-1.08-3.14-2.54-6.33-2.57-7.57-.01-.46-.65-.71-3.27-.73-4.29-.02-5.14.46-5.18.84-.11,1.12-.28,4.8-.36,6.36-.04.74-.06,2.06-.04,2.56Z"/>
    <path class="uuid-22862234-1530-4471-9c38-879c9bb75f74" d="M10.86,16.21c2.09,0,3.62-1.47,3.67-1.68.04-.45-.14-2.15-.1-2.01.21.76.38,1.69.38,2.54,0,.45-1.78,1.84-3.93,1.84-2.52,0-5-.61-6.62-1.33-1.06-.47-1.68-.79-1.7-1.14-.04-.17-.14-1.62-.01-1.9,0,.05.07.86.19,1.37.06.27,3.65,2.3,8.12,2.3Z"/>
    <path class="uuid-22862234-1530-4471-9c38-879c9bb75f74" d="M5.36,10.6h-.01c-.42-.01-.98-.32-1.26-1.13-.4-1.13-.22-5.85-.2-6.39,0-.23.19-.41.44-.4.23,0,.41.21.4.44-.08,2.03-.11,5.33.15,6.07.14.41.38.57.5.57.23,0,.41.2.41.43,0,.23-.19.41-.42.41Z"/>
    <path class="uuid-d6ba73e3-cb1c-4b4d-a3f3-fa4043fbacfd" d="M3.5,13.99c-.08,0-.15-.02-.22-.06-.2-.12-.25-.38-.13-.58.08-.12,1.91-2.95,5.98-3.08,3.75-.12,4.92,1.99,4.97,2.08.11.2.03.46-.17.57-.2.11-.46.03-.57-.17-.04-.07-.98-1.74-4.2-1.63-3.61.12-5.23,2.59-5.3,2.69-.08.13-.22.19-.36.19Z"/>
  </g>
  <g>
    <path class="uuid-1f54cb90-1376-4708-9395-d0207c2ac87a" d="M30.77,9.36c-.08-1.56-.25-5.24-.36-6.36-.04-.38-.89-.87-5.18-.84-2.62.01-3.25.27-3.27.73-.04,1.24-1.5,4.44-2.57,7.57-.33.96-.3,1.49-.48,2.1-.03.12-.21,1.55-.21,2.4,0,.45.88.93,1.68,1.11.4.09,1.81.35,3.05.28,2.72-.14,5.64-.75,7.09-1.66.25-.16.27-1.98.3-2.78.01-.5,0-1.82-.04-2.56Z"/>
    <path class="uuid-22862234-1530-4471-9c38-879c9bb75f74" d="M22.49,16.21c-2.09,0-3.62-1.47-3.67-1.68-.04-.45.14-2.15.1-2.01-.21.76-.38,1.69-.38,2.54,0,.45,1.78,1.84,3.93,1.84,2.52,0,5-.61,6.62-1.33,1.06-.47,1.68-.79,1.69-1.14.04-.17.14-1.62.01-1.9,0,.05-.07.86-.19,1.37-.06.27-3.65,2.3-8.12,2.3Z"/>
    <path class="uuid-22862234-1530-4471-9c38-879c9bb75f74" d="M27.99,10.6h.01c.42-.01.98-.32,1.26-1.13.4-1.13.22-5.85.2-6.39,0-.23-.19-.41-.44-.4-.23,0-.41.21-.4.44.08,2.03.11,5.33-.15,6.07-.14.41-.38.57-.5.57-.23,0-.41.2-.41.43,0,.23.19.41.42.41Z"/>
    <path class="uuid-d6ba73e3-cb1c-4b4d-a3f3-fa4043fbacfd" d="M29.84,13.99c.08,0,.15-.02.22-.06.2-.12.25-.38.13-.58-.08-.12-1.91-2.95-5.98-3.08-3.75-.12-4.92,1.99-4.97,2.08-.11.2-.03.46.17.57.2.11.46.03.57-.17.04-.07.98-1.74,4.2-1.63,3.61.12,5.23,2.59,5.3,2.69.08.13.22.19.36.19Z"/>
  </g>
</svg>